<?xml version="1.0" encoding="UTF-8" standalone="no"?>
<!-- Generator: Blender, SVG Export for Grease Pencil - v2.0 -->

<svg
   version="1.1"
   x="0px"
   y="0px"
   width="232.55775"
   height="155.94896"
   viewBox="0 0 232.55775 155.94896"
   id="svg2"
   sodipodi:docname="ten.svg"
   xml:space="preserve"
   inkscape:version="1.3.2 (091e20e, 2023-11-25, custom)"
   xmlns:inkscape="http://www.inkscape.org/namespaces/inkscape"
   xmlns:sodipodi="http://sodipodi.sourceforge.net/DTD/sodipodi-0.dtd"
   xmlns="http://www.w3.org/2000/svg"
   xmlns:svg="http://www.w3.org/2000/svg"><defs
     id="defs2" /><sodipodi:namedview
     id="namedview2"
     pagecolor="#ffffff"
     bordercolor="#000000"
     borderopacity="0.25"
     inkscape:showpageshadow="2"
     inkscape:pageopacity="0.0"
     inkscape:pagecheckerboard="0"
     inkscape:deskcolor="#d1d1d1"
     inkscape:zoom="0.32421875"
     inkscape:cx="-738.6988"
     inkscape:cy="285.3012"
     inkscape:window-width="1920"
     inkscape:window-height="1009"
     inkscape:window-x="1912"
     inkscape:window-y="-6"
     inkscape:window-maximized="1"
     inkscape:current-layer="layer.hole.uuid_0x2" /><g
     id="blender_frame.1"
     transform="translate(-1560.7842,-532.76596)"><g
       id="blender_object.numbersGP.1.uuid_0x0"><g
         id="layer.numbers.uuid_0x1" /><g
         id="layer.hole.uuid_0x2"><path
           d="m 1711.6566,687.63024 c -15.6271,-3.60142 -27.9809,-11.33889 -38.133,-23.8837 l -3.0765,-3.80165 -0.5776,5.59616 c -1.1271,10.92055 -7.4784,19.02056 -16.9046,21.55875 -2.4552,0.66114 -16.4652,0.93587 -38.0958,0.74704 -33.3986,-0.29155 -34.3139,-0.35283 -38.4759,-2.57581 -8.7827,-4.691 -13.562,-15.79619 -11.3181,-26.29882 2.4019,-11.24278 9.9228,-17.74023 21.6213,-18.67928 l 6.4602,-0.51856 v -20.4715 -20.4715 l -2.75,0.8533 c -1.5125,0.46932 -5.3389,0.82738 -8.5031,0.79569 -4.7083,-0.0471 -6.5201,-0.59668 -9.9763,-3.02582 -11.1457,-7.83343 -14.5771,-24.44589 -7.3277,-35.47519 2.5628,-3.89908 28.4955,-22.62617 36.3732,-26.26665 3.8146,-1.76279 6.5398,-2.16451 14.6839,-2.16451 9.3162,0 10.3761,0.21089 15.5,3.08414 5.977,3.3516 11.2074,9.90136 12.9675,16.23855 0.6194,2.23022 1.0235,20.05602 1.0269,45.29848 l 0.01,41.62117 5.239,0.69497 c 2.8815,0.38224 6.6975,1.59637 8.4801,2.69808 l 3.2411,2.00309 -1.4616,-4.14247 c -5.4066,-15.32395 -5.8603,-39.28782 -1.0501,-55.45878 9.6892,-32.57302 34.7146,-52.89263 65.0515,-52.81926 25.1984,0.0609 46.8241,14.0343 59.5366,38.46926 6.3733,12.25034 9.1672,24.56716 9.1442,40.31277 -0.022,14.70088 -1.9303,23.95809 -7.3769,35.77461 -8.5296,18.50513 -24.5893,33.21653 -42.3039,38.75215 -8.8489,2.76519 -23.6323,3.4837 -32,1.55529 z m 31.9774,-7.1334 c 21.124,-7.28536 37.864,-27.74032 43.1866,-52.77055 1.8752,-8.8186 1.3045,-29.23482 -1.0673,-38.1781 -0.8751,-3.3 -3.72,-10.275 -6.3219,-15.5 -8.6779,-17.42682 -24.3504,-30.44751 -41.5212,-34.496 -13.1055,-3.08996 -26.9032,-1.42438 -39.7536,4.79881 -8.4813,4.10734 -22.1707,17.60429 -26.8292,26.45202 -19.6357,37.29372 -9.6221,83.64145 22.4808,104.05205 14.2412,9.05433 33.5814,11.24423 49.8258,5.64177 z m -28.6398,-35.29668 c -5.0778,-3.2638 -8.5177,-8.40879 -11.4679,-17.15197 -2.8018,-8.30353 -2.606,-26.13726 0.3917,-35.68353 2.618,-8.33708 7.3249,-15.07753 12.2656,-17.56492 4.652,-2.34202 11.6526,-2.24428 15.6928,0.2191 14.0996,8.59691 18.6658,41.1567 8.5449,60.9311 -5.88,11.4886 -16.1385,15.22056 -25.4271,9.25022 z m 15.5727,-4.68516 c 3.7584,-2.46259 8.3854,-12.73212 9.7491,-21.63765 0.8969,-5.85752 0.8988,-9.63977 0.01,-16 -4.8866,-34.88973 -30.5602,-32.24123 -33.7335,3.47996 -1.3799,15.53342 4.6644,32.08425 13.0661,35.77796 2.7015,1.18769 7.7747,0.43429 10.9103,-1.62027 z m 21.3649,-4.02561 c -3.292,-1.78647 -5.284,-5.00868 -3.7013,-5.98687 0.5936,-0.36687 1.9624,0.28082 3.0417,1.43932 2.6251,2.81774 8.8778,2.87615 11.3844,0.10635 2.305,-2.54703 3.5,-2.54201 3.5,0.0147 0,2.41934 -5.4141,5.99359 -9,5.94152 -1.375,-0.02 -3.7262,-0.70172 -5.2248,-1.51502 z m -69.5252,-5.37398 c -1.9169,-1.20195 -3.25,-2.86421 -3.25,-4.05252 0,-2.60814 0.587,-2.54003 4.1824,0.4853 3.8007,3.1981 7.2357,3.17279 10.4858,-0.0773 1.8614,-1.86136 2.8803,-2.27424 3.6682,-1.48636 1.7831,1.78308 -3.3745,6.13261 -7.9338,6.69085 -2.8188,0.34513 -4.8051,-0.0881 -7.1526,-1.55999 z m 2.8149,-17.00229 c -2.165,-2.16504 -4.0537,-8.01929 -4.0537,-12.56493 0,-11.5271 8.2531,-17.69093 12.5533,-9.37537 3.9971,7.72953 2.2666,20.2644 -3.1375,22.72666 -3.2253,1.46958 -3.0856,1.49007 -5.3621,-0.78636 z m 3.3281,-12.64672 c 1.1911,-3.10395 0.6325,-7.4712 -1.0376,-8.11208 -1.9561,-0.75061 -4.3554,2.10574 -4.3554,5.185 0,3.86809 4.1646,6.12842 5.393,2.92708 z m 65.836,13.91249 c -4.352,-1.75098 -6.0535,-17.43349 -2.5373,-23.38584 3.3225,-5.62459 7.9752,-4.73384 10.6881,2.0462 4.3948,10.98374 -0.705,24.33546 -8.1508,21.33964 z m 2.571,-13.5307 c 2.9496,-2.94955 -0.2145,-11.36076 -3.3078,-8.7935 -1.9197,1.59317 -2.6892,5.75683 -1.4812,8.01402 1.2018,2.24553 3.026,2.54246 4.789,0.77948 z m -105.3225,80.08461 c 8.3071,-2.30624 14.4704,-12.14805 12.9314,-20.64943 -1.8673,-10.31495 -9.3748,-16.21282 -20.6589,-16.22961 -3.7144,-0.006 -3.75,-0.044 -3.75,-4.05089 v -4.04531 l -3.4348,0.64438 c -4.4761,0.83971 -10.0173,-1.0417 -12.5496,-4.261 -2.3739,-3.01799 -2.6422,-6.29275 -0.5156,-6.29275 0.825,0 1.5,0.59656 1.5,1.32568 0,1.79813 3.9716,5.27008 6.8182,5.96049 1.275,0.30924 3.6375,0.10233 5.25,-0.45979 l 2.9318,-1.02203 v -10.90218 -10.90217 h -4.4233 c -5.3354,0 -10.5767,-3.76066 -10.5767,-7.5889 0,-3.21385 1.5809,-3.05781 3.1978,0.31563 1.5256,3.18316 5.4155,4.83812 9.1618,3.89787 l 2.6404,-0.66271 -0.01,-24.73094 c 0,-14.17093 -0.4535,-26.34386 -1.0545,-28.50829 -1.3366,-4.81283 -6.1068,-10.257 -11.3158,-12.91444 -5.0056,-2.55365 -14.6592,-3.42765 -20.4759,-1.8538 -4.2119,1.13964 -29.6769,17.5682 -35.5214,22.9164 -8.1837,7.48876 -7.3661,21.88284 1.6948,29.83843 5.524,4.85015 9.5754,5.19338 16.8734,1.42951 3.3203,-1.71241 6.4347,-2.86761 6.9209,-2.5671 0.4863,0.3005 0.8841,7.43971 0.8841,15.86491 0,16.38645 0.1214,16.80283 5.275,18.09631 3.7773,0.94804 8.4988,-1.19487 10.2978,-4.67374 1.7953,-3.47165 3.4272,-3.7076 3.4272,-0.49551 0,5.56957 -8.722,9.97799 -15.5781,7.87378 l -3.3496,-1.02803 -0.2862,9.14531 -0.2861,9.14531 -7.5348,0.61301 c -14.1969,1.15503 -19.9652,6.87678 -19.9652,19.8042 0,8.76443 5.3943,15.51048 13.6852,17.11468 6.3086,1.22063 63.3111,1.09679 67.7922,-0.14728 z m -37.322,-90.41405 c -3.9155,-4.97774 -3.9419,-16.17592 -0.048,-20.35548 5.1222,-5.49807 10.8822,-0.11063 10.8889,10.18458 0.01,10.84757 -5.9283,16.4161 -10.8408,10.1709 z m 4.2375,-11.05235 c 1.0408,-2.71213 0.6678,-6.12283 -0.8029,-7.34344 -1.1185,-0.92823 -1.7386,-0.70083 -3,1.10006 -1.8955,2.70617 -2.0297,4.98558 -0.3901,6.62517 1.6637,1.66373 3.4712,1.49915 4.193,-0.38179 z m -8.9573,-15.5222 c -0.3752,-0.60719 0.4573,-2.24356 1.8501,-3.63636 3.5697,-3.56965 9.8886,-3.53984 13.492,0.0636 2.2525,2.25248 2.3762,2.68038 0.9348,3.23349 -0.9425,0.3617 -2.3521,-0.0534 -3.2583,-0.95966 -2.2067,-2.20663 -7.0512,-2.00018 -9.4543,0.40288 -2.3114,2.31141 -2.6387,2.39368 -3.5643,0.89601 z"
           style="fill:#000000"
           id="path1-0" /><path
           style="fill:#b4e1ee;fill-opacity:1;stroke:#fcfcff;stroke-width:0"
           d="m 1708.6644,680.24675 c -13.2814,-3.76963 -28.2519,-16.99565 -36.7899,-32.50286 -7.4104,-13.45916 -7.8052,-15.22421 -7.8052,-34.89529 0,-25.56506 4.3208,-38.08362 18.3044,-53.0332 17.3073,-18.50297 35.9222,-24.36836 57.4632,-18.10621 33.504,9.73989 54.9285,53.04383 44.3117,89.56441 -2.0335,6.99518 -5.2773,15.28017 -7.2083,18.41107 -6.1667,9.99858 -18.8248,22.2826 -27.6558,26.83839 -9.9117,5.11328 -29.4225,6.90187 -40.6201,3.72369 z m 27.1322,-36.5775 c 6.7922,-5.87014 10.0586,-16.6947 10.0586,-33.33346 0,-26.24793 -11.0478,-41.70949 -26.9508,-37.71809 -22.7515,5.71026 -24.8659,64.58662 -2.6645,74.19448 7.411,3.20721 13.3052,2.25997 19.5567,-3.14293 z m 28.513,-7.58976 c 2.3161,-1.69358 3.3354,-4.05065 2.4037,-5.55829 -1.2142,-1.96453 -2.3634,-1.99895 -4.6058,-0.13795 -1.7608,1.46133 -5.7118,1.88151 -9.6201,1.02309 -7.4794,-1.64274 -8.1536,-0.76207 -3.205,4.18651 4.2042,4.2042 9.6998,4.38217 15.0272,0.48664 z m -70.654,-3.67903 c 2.3202,-1.24173 4.2185,-3.67426 4.2185,-5.40563 0,-2.57532 -1.0025,-2.69114 -5.5115,-0.63671 -4.1794,1.90427 -6.1298,1.89297 -8.0696,-0.0468 -3.4748,-3.47482 -6.0475,-3.21741 -6.0475,0.60508 0,2.9962 5.5622,7.53186 9.4125,7.67539 0.9785,0.0365 3.6774,-0.94964 5.9976,-2.19137 z m 0.091,-18.74319 c 5.5329,-6.66673 1.9889,-26.98015 -4.7071,-26.98015 -4.1832,0 -8.6125,7.44455 -8.6125,14.47538 0,13.92433 6.8243,20.33114 13.3196,12.50477 z m 68.3426,-1.29395 c 4.6075,-6.57819 4.2701,-15.41184 -0.8261,-21.62791 -4.0357,-4.92242 -4.3931,-4.97973 -8.1291,-1.30377 -3.9891,3.92506 -5.2413,16.60998 -2.3653,23.96219 2.0554,5.25459 7.2494,4.78177 11.3205,-1.03051 z"
           id="path16" /><path
           style="fill:#b4e1ee;fill-opacity:1;stroke:#fcfcff;stroke-width:0"
           d="m 1586.0391,680.67534 c -4.5317,-0.95219 -9.653,-3.59879 -11.3806,-5.88134 -3.6549,-4.8289 -4.2081,-14.69751 -1.1449,-20.42122 2.3325,-4.35835 12.9893,-8.80985 21.0906,-8.80985 4.5137,0 5.1269,-1.02693 5.1269,-8.58564 0,-8.03131 0.4435,-8.62976 6.8682,-9.26906 3.7775,-0.37588 7.9138,-2.35385 9.1919,-4.39549 3.402,-5.43448 -0.068,-7.43441 -5.0607,-2.91641 -7.7476,7.0115 -10.9994,2.97357 -10.9994,-13.65866 0,-8.23441 -0.6154,-15.58702 -1.3675,-16.33914 -0.7521,-0.75212 -4.8297,0.0791 -9.0613,1.84718 -6.8512,2.86261 -8.2646,2.84064 -12.906,-0.20054 -6.5373,-4.28338 -9.9634,-13.01155 -8.2212,-20.94382 1.4671,-6.67935 14.6911,-17.48557 33.0607,-27.01608 13.7269,-7.12176 24.1877,-5.9087 32.3124,3.74701 5.1339,6.1012 5.4401,7.92917 5.4401,32.46931 0,27.219 -1.0139,29.71004 -9.1107,22.38258 -2.201,-1.99185 -4.6077,-3.01561 -5.3483,-2.27501 -2.6893,2.68929 1.5353,8.51759 7.9211,10.92795 5.8607,2.21218 6.5379,3.43479 6.5379,11.80393 0,7.76693 -0.7069,9.33616 -4.2061,9.33616 -2.3134,0 -5.6783,-1.47215 -7.4776,-3.27144 -4.0484,-4.04843 -5.7639,-4.14904 -5.7639,-0.33802 0,4.33524 7.2838,10.15233 12.7122,10.15233 2.6045,0 4.7354,1.36292 4.7354,3.02871 0,1.7353 3.2635,3.64095 7.642,4.46235 15.7139,2.94794 21.7663,19.37318 10.9003,29.58129 -5.0705,4.76348 -7.4522,5.15983 -34.3501,5.71628 -15.896,0.32885 -32.6096,-0.18116 -37.1414,-1.13336 z m 37.2463,-87.89154 c 3.7565,-3.75649 3.2296,-18.26848 -0.81,-22.30806 -1.885,-1.88497 -3.7778,-3.42722 -4.2062,-3.42722 -3.0735,0 -7.6333,7.99549 -7.6333,13.3849 0,12.23686 6.4579,18.54203 12.6495,12.35038 z m -9.4222,-27.8448 c 0.717,-1.16023 4.4553,-1.48543 8.3073,-0.72265 6.429,1.2731 6.7504,1.07918 3.9179,-2.36376 -4.0609,-4.93593 -16.2183,-3.96274 -17.2303,1.37926 -0.7665,4.04658 2.8061,5.26516 5.0051,1.70715 z"
           id="path17" /></g></g></g></svg>
