<?xml version="1.0" encoding="UTF-8" standalone="no"?>
<!-- Generator: Blender, SVG Export for Grease Pencil - v2.0 -->

<svg
   version="1.1"
   x="0px"
   y="0px"
   width="130.46414"
   height="157.52795"
   viewBox="0 0 130.46414 157.52795"
   id="svg2"
   sodipodi:docname="two.svg"
   xml:space="preserve"
   inkscape:version="1.3.2 (091e20e, 2023-11-25, custom)"
   xmlns:inkscape="http://www.inkscape.org/namespaces/inkscape"
   xmlns:sodipodi="http://sodipodi.sourceforge.net/DTD/sodipodi-0.dtd"
   xmlns="http://www.w3.org/2000/svg"
   xmlns:svg="http://www.w3.org/2000/svg"><defs
     id="defs2" /><sodipodi:namedview
     id="namedview2"
     pagecolor="#ffffff"
     bordercolor="#000000"
     borderopacity="0.25"
     inkscape:showpageshadow="2"
     inkscape:pageopacity="0.0"
     inkscape:pagecheckerboard="0"
     inkscape:deskcolor="#d1d1d1"
     inkscape:zoom="0.32421875"
     inkscape:cx="-973.10843"
     inkscape:cy="522.79518"
     inkscape:window-width="1920"
     inkscape:window-height="1009"
     inkscape:window-x="1912"
     inkscape:window-y="-6"
     inkscape:window-maximized="1"
     inkscape:current-layer="layer.hole.uuid_0x2" /><g
     id="blender_frame.1"
     transform="translate(-1794.8553,-296.0654)"><g
       id="blender_object.numbersGP.1.uuid_0x0"><g
         id="layer.numbers.uuid_0x1" /><g
         id="layer.hole.uuid_0x2"><path
           d="m 1817.483,453.04051 c -5.5818,-1.15277 -9.1888,-3.14402 -12.9644,-7.157 -8.9064,-9.46627 -10.5779,-25.12612 -3.737,-35.01074 1.399,-2.02148 8.9034,-8.99648 16.6765,-15.5 27.8965,-23.34031 40.6985,-37.41309 40.6985,-44.73854 0,-4.00347 -1.5518,-5.58604 -5.4775,-5.58604 -4.1237,0 -7.1161,2.26896 -9.6487,7.31608 -4.6963,9.35888 -10.8681,13.10751 -21.3738,12.98191 -16.4925,-0.19717 -26.6923,-8.79869 -26.8002,-22.60064 -0.2011,-25.72402 27.947,-46.74457 62.508,-46.67999 17.5801,0.0328 32.386,5.18901 43.1505,15.02711 10.8888,9.9518 15.7991,20.97547 15.823,35.52297 0.028,17.13855 -7.6335,32.3226 -25.6012,50.73799 -3.6191,3.7092 -6.5801,6.92302 -6.5801,7.14181 0,0.21879 6.0382,0.54516 13.4182,0.72528 13.0947,0.31958 13.5224,0.40075 17.7375,3.36622 12.177,8.56702 13.5242,29.80678 2.4812,39.11904 -6.3544,5.35854 -6.5298,5.37777 -52.9323,5.80174 -23.7625,0.21711 -45.0827,0.007 -47.3782,-0.4672 z m 94.2397,-7.47819 c 6.0606,-3.55174 8.7937,-9.52222 8.2522,-18.02676 -0.3366,-5.28675 -0.9398,-7.07809 -3.4344,-10.20018 -5.2765,-6.60366 -7.7194,-7.28388 -26.1653,-7.28564 -12.6681,-10e-4 -16.3952,-0.29832 -16.7945,-1.33882 -0.2988,-0.77849 3.092,-4.85246 8.115,-9.75 11.0354,-10.75995 18.3382,-19.72184 22.7452,-27.91273 5.6244,-10.45343 6.9543,-15.78883 6.5607,-26.32047 -0.3032,-8.11268 -0.7616,-10.07784 -3.7804,-16.20587 -8.3326,-16.915 -27.3258,-27.40199 -49.7266,-27.4563 -28.7406,-0.0697 -55.2184,17.54426 -57.0701,37.96489 -0.6597,7.27512 0.01,10.00192 3.4404,14.08297 3.9829,4.73338 9.5302,6.88757 17.7917,6.90908 9.1402,0.0238 12.2556,-1.85958 16.6194,-10.0469 4.0252,-7.55199 7.4817,-9.91854 14.4942,-9.92366 6.9708,-0.005 10.3864,3.22324 10.3864,9.8169 0,6.89404 -3.3129,12.43803 -14.1657,23.70586 -5.4089,5.61564 -9.8343,10.87878 -9.8343,11.69586 0,0.81707 1.1538,2.73052 2.5639,4.25209 2.131,2.29938 3.141,2.67285 5.9817,2.21186 3.6085,-0.58558 5.6879,0.91829 3.3325,2.41018 -0.7579,0.48008 -2.9103,0.87977 -4.7829,0.88819 -2.6725,0.012 -4.2098,-0.83081 -7.1471,-3.91861 l -3.7423,-3.93393 -11.3529,9.52914 c -21.3881,17.95228 -22.3116,19.23218 -21.6966,30.07072 0.4978,8.77234 3.1028,13.83219 9.2764,18.018 l 4.7933,3.25 h 45.5492 45.5491 z m -46.2675,-60.08247 c -5.3292,-2.72071 -8.1727,-9.00241 -6.3021,-13.92244 1.3981,-3.6772 3.2119,-2.13677 2.4247,2.05925 -0.5598,2.98387 -0.1994,3.85334 2.8693,6.92202 3.6744,3.67441 7.8595,4.56998 11.7146,2.5068 1.2872,-0.68889 2.0843,-0.66162 2.5471,0.0871 1.9905,3.22074 -8.0571,5.00019 -13.2536,2.34723 z m 11.0333,-8.0092 c -0.333,-0.86765 0.1312,-2.31408 1.0314,-3.21429 1.5156,-1.51566 1.7578,-1.51566 3.2734,0 2.0445,2.04448 1.1061,4.79183 -1.6367,4.79183 -1.1345,0 -2.3352,-0.7099 -2.6681,-1.57754 z m -11.9235,-8.80067 c -0.8094,-2.10919 0.3267,-3.62179 2.7202,-3.62179 1.5107,0 1.9311,0.55679 1.691,2.23978 -0.373,2.61398 -3.5558,3.61115 -4.4112,1.38201 z m -31.4084,-38.04 c 0,-3.9662 4.3139,-7.58179 9.0461,-7.58179 2.9365,0 7.8283,3.02884 8.5465,5.29172 0.8981,2.82954 -0.3458,3.27871 -2.8465,1.0279 -1.2354,-1.11188 -3.0621,-2.31047 -4.0594,-2.66353 -2.1534,-0.76232 -7.198,1.62803 -8.0341,3.80692 -0.7411,1.93116 -2.6526,2.01675 -2.6526,0.11878 z m 37.3257,-1.09986 c -2.8012,-3.1974 -8.6939,-3.46639 -10.5578,-0.48193 -1.2708,2.03489 -3.7679,2.75182 -3.7679,1.08179 0,-4.17506 5.4532,-7.59455 10.5782,-6.63311 3.3315,0.625 7.4218,4.58543 7.4218,7.18618 0,2.02229 -1.231,1.63602 -3.6743,-1.15293 z"
           style="fill:#000000"
           id="path1-3" /><path
           style="fill:#b4e1ee;fill-opacity:1;stroke:#fcfcff;stroke-width:0"
           d="m 1811.8309,443.22279 c -5.6744,-4.36826 -9.7314,-16.43264 -7.9341,-23.59381 1.0548,-4.20249 20.2084,-22.85021 28.5898,-27.83454 1.4655,-0.87154 5.0076,-0.0494 7.8712,1.82693 2.8637,1.87635 6.8171,2.79357 8.7855,2.03826 5.0085,-1.92197 4.4676,-5.26853 -0.8517,-5.26853 -7.8004,0 -7.5709,-6.31021 0.541,-14.87531 11.3533,-11.98765 14.7942,-18.03751 14.7942,-26.01163 0,-5.66872 -1.1568,-7.64186 -5.4335,-9.26785 -7.5093,-2.85503 -11.8302,-0.91874 -21.0158,9.41775 -6.545,7.36493 -9.2283,8.865 -15.5375,8.68616 -29.3615,-0.83228 -25.6184,-33.01466 5.7078,-49.0735 10.9754,-5.62639 35.5939,-7.66719 48.9431,-4.05725 10.2435,2.7701 25.0498,14.80428 30.0057,24.3879 1.7216,3.32927 3.1303,11.04173 3.1303,17.13881 0,14.52677 -6.7337,27.61004 -23.7628,46.17025 -7.3224,7.98083 -13.3135,14.98012 -13.3135,15.55398 0,0.57386 8.4383,1.74628 18.7517,2.60538 22.2191,1.85085 27.0484,5.14032 27.0484,18.42422 0,6.65581 -1.2812,9.57333 -5.7465,13.08573 -5.3966,4.24497 -8.4842,4.51726 -50.7073,4.47171 -39.2456,-0.0423 -45.5842,-0.52849 -49.866,-3.82466 z m 66.6411,-59.16005 c 0.7071,-2.14985 -0.2836,-2.71983 -3.3387,-1.9209 -2.3893,0.62481 -5.9557,0.23415 -7.9253,-0.86812 -4.4832,-2.50891 -4.719,-10.51122 -0.3098,-10.51122 1.7993,0 3.2714,-1.47215 3.2714,-3.27144 0,-4.32373 -3.2976,-4.13998 -8.6988,0.4847 -5.6111,4.8043 -5.5741,10.32334 0.1071,16.00459 5.0164,5.01635 15.2549,5.06628 16.8941,0.0824 z m 4.7834,-8.00777 c 0,-2.03099 -1.4839,-3.14357 -3.636,-2.7262 -5.4715,1.06115 -6.2228,6.15755 -0.9077,6.15755 2.679,0 4.5437,-1.40822 4.5437,-3.43135 z m -36.905,-46.11751 c 5.1042,3.1876 7.8726,0.55196 4.142,-3.94323 -1.7514,-2.11019 -5.447,-3.18221 -9.5799,-2.7789 -5.1786,0.50535 -6.8968,1.84537 -7.4587,5.81692 -0.6951,4.91268 -0.499,4.99839 4.0871,1.78615 3.7593,-2.63311 5.6941,-2.82658 8.8095,-0.88094 z m 25.9393,-3.95789 c -3.4567,-4.16514 -11.745,-4.09664 -15.2495,0.12604 -3.6672,4.41868 -0.803,6.97772 4.2663,3.81184 3.1128,-1.94396 4.9428,-1.83629 8.0794,0.47538 4.7305,3.48625 6.8219,0.30768 2.9038,-4.41326 z"
           id="path15" /></g></g></g></svg>
