<?xml version="1.0" encoding="UTF-8" standalone="no"?>
<!-- Generator: Blender, SVG Export for Grease Pencil - v2.0 -->

<svg
   version="1.1"
   x="0px"
   y="0px"
   width="128.39302"
   height="159.12479"
   viewBox="0 0 128.39302 159.12479"
   id="svg2"
   sodipodi:docname="eight.svg"
   xml:space="preserve"
   inkscape:version="1.3.2 (091e20e, 2023-11-25, custom)"
   xmlns:inkscape="http://www.inkscape.org/namespaces/inkscape"
   xmlns:sodipodi="http://sodipodi.sourceforge.net/DTD/sodipodi-0.dtd"
   xmlns="http://www.w3.org/2000/svg"
   xmlns:svg="http://www.w3.org/2000/svg"><defs
     id="defs2" /><sodipodi:namedview
     id="namedview2"
     pagecolor="#ffffff"
     bordercolor="#000000"
     borderopacity="0.25"
     inkscape:showpageshadow="2"
     inkscape:pageopacity="0.0"
     inkscape:pagecheckerboard="0"
     inkscape:deskcolor="#d1d1d1"
     inkscape:zoom="0.32421875"
     inkscape:cx="-402.50602"
     inkscape:cy="380.91566"
     inkscape:window-width="1920"
     inkscape:window-height="1009"
     inkscape:window-x="1912"
     inkscape:window-y="-6"
     inkscape:window-maximized="1"
     inkscape:current-layer="layer.hole.uuid_0x2" /><g
     id="blender_frame.1"
     transform="translate(-1225,-439)"><g
       id="blender_object.numbersGP.1.uuid_0x0"><g
         id="layer.numbers.uuid_0x1" /><g
         id="layer.hole.uuid_0x2"><path
           d="m 1272.6249,597.52429 c -14.7448,-2.69178 -25.7293,-7.85702 -34.3852,-16.16888 -6.9398,-6.66393 -10.6815,-13.45442 -12.488,-22.66344 -3.0717,-15.65917 3.4778,-32.923 15.8696,-41.83038 l 3.957,-2.84434 -5.3074,-5.73256 c -6.833,-7.38051 -9.5712,-14.42057 -9.6194,-24.73237 -0.059,-12.54731 3.7004,-20.80887 13.5741,-29.83285 6.2769,-5.73673 14.6907,-10.1431 24.5684,-12.86668 8.985,-2.47742 31.8312,-2.46858 40.9147,0.0158 31.4487,8.60145 46.8173,35.5753 33.9859,59.64948 -1.7593,3.30085 -5.0047,7.63312 -7.212,9.62725 l -4.0132,3.6257 2.9123,2.0549 c 9.068,6.39827 15.4306,16.90808 17.4368,28.80226 3.9321,23.31201 -12.6328,44.56854 -40.0397,51.38012 -7.469,1.85632 -33.008,2.82051 -40.1539,1.51596 z m 39.9977,-6.98861 c 15.2181,-4.36757 25.5322,-11.62381 30.9376,-21.76541 5.4861,-10.29303 5.9682,-23.31724 1.2573,-33.967 -2.54,-5.74221 -10.4366,-13.9892 -16.1829,-16.90109 -2.5845,-1.30965 -4.9612,-2.80533 -5.2816,-3.32373 -0.3204,-0.5184 0.8853,-1.94631 2.6792,-3.17312 11.5578,-7.90386 16.7618,-16.72809 16.7618,-28.42236 0,-17.44939 -13.1187,-31.3888 -35,-37.18962 -8.9,-2.35942 -28.1563,-2.35059 -37,0.017 -10.9744,2.93797 -18.6671,7.11975 -24.9962,13.58794 -7.8638,8.03652 -10.3578,14.56541 -9.7734,25.58472 0.6116,11.53255 5.0366,19.32623 14.2927,25.1739 2.4603,1.55436 4.4741,3.38102 4.4751,4.05925 10e-4,0.67824 -2.2636,2.3811 -5.0323,3.78415 -7.0142,3.55436 -12.6226,9.5246 -16.2707,17.32044 -2.724,5.82091 -3.1043,7.69042 -3.0821,15.15125 0.035,11.87735 2.7413,18.54141 10.7994,26.59555 7.318,7.31449 16.1799,11.83614 28.4606,14.52159 11.5959,2.53572 32.2114,2.03016 42.9555,-1.05342 z m -32.3472,-25.44628 c -13.8409,-6.03085 -13.9028,-27.42408 -0.098,-33.69332 7.0519,-3.20238 16.5991,-1.95108 21.9359,2.87503 6.9038,6.24314 7.5904,19.36485 1.3636,26.05918 -5.3045,5.70276 -16.001,7.89679 -23.202,4.75911 z m 15.2355,-5.2764 c 12.7557,-6.05297 7.6447,-25.31685 -6.7169,-25.31685 -7.8039,0 -13.9843,5.95829 -13.9897,13.48682 -0.01,10.30247 10.8518,16.50646 20.7066,11.83003 z m -12.3882,-48.73555 c -3.5987,-1.62472 -5.9876,-5.0692 -4.2574,-6.13856 0.5922,-0.366 2.085,0.28169 3.3172,1.43931 2.9434,2.7652 8.9098,2.80188 12.3751,0.0761 3.7767,-2.97072 5.5202,-0.8006 2.1026,2.61701 -3.1328,3.13284 -9.0873,4.01525 -13.5375,2.00615 z m -22.929,-13.3598 c -2.3599,-1.57574 -3.3997,-5.4059 -3.3997,-12.52292 0,-6.48983 0.3073,-7.75133 2.4523,-10.06574 2.6713,-2.88247 3.7305,-3.15377 6.5083,-1.66713 4.2764,2.28867 5.5679,16.00192 2.0504,21.77111 -1.9462,3.19192 -5.0397,4.20179 -7.6113,2.48468 z m 3.1003,-16.24838 c 0,-3.79112 -0.3041,-4.4863 -1.9626,-4.4863 -2.6161,0 -4.4165,5.73583 -2.5183,8.02299 2.4452,2.94634 4.4809,1.33963 4.4809,-3.53669 z m 45.811,14.36562 c -2.4637,-3.76016 -2.9827,-14.15228 -0.9072,-18.16591 5.1231,-9.90697 13.486,-2.92963 12.3861,10.33394 -0.5721,6.89893 -2.8923,10.48005 -6.7899,10.48005 -2.0914,0 -3.4605,-0.77322 -4.689,-2.64808 z m 5.689,-13.76466 c 0,-4.11599 -2.2743,-6.43441 -4.5,-4.58726 -1.7718,1.47043 -1.995,7.10499 -0.3468,8.75319 2.0286,2.02861 4.8468,-0.39369 4.8468,-4.16593 z m -34.9592,12.79362 c -4.5792,-3.85312 -6.3543,-7.90747 -5.7621,-13.16083 1.7091,-15.16357 21.8462,-17.93382 27.2628,-3.75055 3.8932,10.19414 -2.7588,19.5305 -13.9151,19.5305 -3.3664,0 -5.2429,-0.64792 -7.5856,-2.61912 z m 13.6602,-3.88398 c 2.8457,-1.99321 4.6323,-7.49397 3.4438,-10.60286 -2.9311,-7.66702 -13.092,-8.76446 -16.692,-1.80285 -2.245,4.34141 -1.7924,7.72303 1.4703,10.98573 3.3195,3.31949 8.2221,3.91056 11.7779,1.41998 z m -39.2606,-22.7916 c -0.8566,-2.23227 0.2568,-3.68085 4.0462,-5.26414 5.5759,-2.32978 13.6556,1.13997 12.0992,5.1959 -0.5702,1.48574 -0.8813,1.43393 -2.9263,-0.48727 -3.0029,-2.82105 -7.9595,-2.81749 -10.5915,0.008 -1.7484,1.87663 -2.0903,1.94793 -2.6276,0.54789 z m 50.5596,-0.0503 c 0,-2.6848 4.0848,-5.15499 8.5244,-5.15499 3.1899,0 4.9871,0.63191 6.895,2.42431 1.4194,1.33337 2.5806,2.79587 2.5806,3.25 0,1.39704 -3.2142,0.91317 -4.3898,-0.66084 -0.6106,-0.81759 -2.5258,-1.76447 -4.256,-2.10417 -2.4104,-0.47324 -3.6378,-0.12571 -5.25,1.48653 -2.4062,2.40616 -4.1042,2.72024 -4.1042,0.75916 z"
           style="fill:#000000"
           id="path1-2" /><path
           style="fill:#b4e1ee;fill-opacity:1;stroke:#fcfcff;stroke-width:0"
           d="m 1270.024,589.99299 c -22.9996,-5.10691 -38.6748,-21.00382 -38.6748,-39.22176 0,-10.79105 7.5896,-24.35525 16.8193,-30.05952 8.501,-5.25391 8.7865,-6.83372 2.1857,-12.09656 -9.258,-7.38146 -12.4621,-14.20954 -12.4621,-26.55677 0,-10.97419 0.6476,-12.44459 9.2859,-21.08289 20.8965,-20.89652 61.1067,-21.59165 82.6848,-1.4294 15.1921,14.19517 15.2673,31.25292 0.2061,46.75112 -8.0099,8.24233 -8.1037,8.52554 -3.8481,11.61551 21.084,15.30916 25.9598,33.42489 14.1898,52.72131 -10.2549,16.81236 -42.2385,25.60906 -70.3866,19.35896 z m 31.9121,-27.71577 c 4.5924,-3.61236 5.7465,-6.37583 5.7465,-13.75937 0,-5.08154 -1.2267,-10.90247 -2.7262,-12.9354 -7.3067,-9.90671 -28.6028,-7.65519 -33.9871,3.59329 -3.8528,8.0489 -1.6115,19.95694 4.5713,24.28756 6.8113,4.77082 19.5503,4.19839 26.3955,-1.18608 z m -3.7299,-53.36919 c 1.8471,-4.81351 -0.3414,-6.09352 -5.6035,-3.27734 -3.3481,1.79189 -5.7492,1.79189 -9.0974,0 -5.6026,-2.99841 -7.9373,-1.16181 -4.2188,3.3187 3.6654,4.41657 17.2204,4.38694 18.9197,-0.0414 z m -30.217,-12.33739 c 5.0291,-5.02902 1.9341,-25.73528 -3.8466,-25.73528 -4.1113,0 -8.8029,7.13358 -8.8029,13.3849 0,12.23686 6.4579,18.54203 12.6495,12.35038 z m 29.585,-1.90306 c 6.6128,-5.2016 7.5602,-13.72945 2.3514,-21.16598 -4.7737,-6.81549 -18.9694,-6.81549 -23.7432,0 -4.8834,6.97209 -4.1887,14.18607 1.9582,20.33294 6.5399,6.53988 11.8872,6.7691 19.4336,0.83304 z m 22.1037,-8.53566 c 0,-9.78341 -0.7151,-12.1031 -3.9214,-12.72059 -5.7944,-1.11589 -10.2548,3.63395 -10.2548,10.92019 0,9.41355 3.8005,15.2429 9.4166,14.44338 4.2315,-0.6024 4.7596,-2.00531 4.7596,-12.64298 z m -60.6466,-17.67956 c 1.7233,-1.72336 3.6552,-1.70212 6.979,0.0767 3.9945,2.13777 4.5961,1.86151 4.5961,-2.11057 0,-3.94606 -1.1146,-4.47784 -8.1605,-3.8934 -5.703,0.47306 -8.3782,1.8262 -8.8837,4.49356 -0.8156,4.3036 1.8899,5.01282 5.4691,1.43367 z m 50.162,0 c 1.7233,-1.72336 3.6155,-1.72336 6.8356,0 5.8677,3.14026 6.9204,3.01143 6.9204,-0.84688 0,-7.08944 -16.7447,-6.51233 -19.1353,0.6595 -1.077,3.23118 2.2206,3.34605 5.3793,0.18738 z"
           id="path14" /></g></g></g></svg>
