<?xml version="1.0" encoding="UTF-8" standalone="no"?>
<!-- Generator: Blender, SVG Export for Grease Pencil - v2.0 -->

<svg
   version="1.1"
   x="0px"
   y="0px"
   width="146.62529"
   height="161.19958"
   viewBox="0 0 146.62529 161.19958"
   id="svg2"
   sodipodi:docname="four.svg"
   xml:space="preserve"
   inkscape:version="1.3.2 (091e20e, 2023-11-25, custom)"
   xmlns:inkscape="http://www.inkscape.org/namespaces/inkscape"
   xmlns:sodipodi="http://sodipodi.sourceforge.net/DTD/sodipodi-0.dtd"
   xmlns="http://www.w3.org/2000/svg"
   xmlns:svg="http://www.w3.org/2000/svg"><defs
     id="defs2" /><sodipodi:namedview
     id="namedview2"
     pagecolor="#ffffff"
     bordercolor="#000000"
     borderopacity="0.25"
     inkscape:showpageshadow="2"
     inkscape:pageopacity="0.0"
     inkscape:pagecheckerboard="0"
     inkscape:deskcolor="#d1d1d1"
     inkscape:zoom="0.32421875"
     inkscape:cx="-849.73494"
     inkscape:cy="630.74699"
     inkscape:window-width="1920"
     inkscape:window-height="1009"
     inkscape:window-x="1912"
     inkscape:window-y="-6"
     inkscape:window-maximized="1"
     inkscape:current-layer="layer.hole.uuid_0x2" /><g
     id="blender_frame.1"
     transform="translate(-1672,-188)"><g
       id="blender_object.numbersGP.1.uuid_0x0"><g
         id="layer.numbers.uuid_0x1" /><g
         id="layer.hole.uuid_0x2"><path
           d="m 1759.6406,347.88969 c -9.9406,-3.21722 -15.9381,-11.3651 -15.978,-21.70711 l -0.022,-5.68458 -23.75,-0.31542 c -22.2924,-0.29606 -24.0625,-0.45689 -28.8419,-2.62055 -6.3727,-2.88493 -13.6087,-10.15722 -16.6115,-16.69487 -3.2328,-7.03808 -3.253,-21.75622 -0.04,-28.82005 4.2642,-9.37408 44.5591,-66.02238 51.2852,-72.09905 17.2,-15.5392 49.5985,-16.00157 64.159,-0.91564 7.0213,7.27464 7.2211,8.34671 7.7896,41.79859 l 0.5093,29.96385 3.7118,0.87645 c 5.3042,1.25247 12.0759,7.61268 14.768,13.87057 5.7739,13.42178 -1.4983,30.56448 -14.4335,34.02412 l -4.341,1.16104 -0.3829,6.77696 c -0.502,8.88498 -3.9564,14.08844 -12.1268,18.26689 -6.9463,3.5525 -18.3582,4.4935 -25.6956,2.1188 z m 21.7303,-6.05429 c 7.9283,-3.31267 11.2697,-8.74256 11.2697,-18.31368 0,-6.64907 0.7141,-7.6024 6.343,-8.46802 10.5839,-1.62761 17.3114,-14.46023 13.5189,-25.78732 -2.4356,-7.27466 -8.6407,-12.89922 -14.2304,-12.89922 -5.8865,0 -5.6315,1.3887 -5.6315,-30.66417 0,-17.91261 -0.4264,-31.14346 -1.0883,-33.77232 -1.5639,-6.21066 -5.979,-10.97891 -13.6747,-14.76837 -6.4439,-3.17307 -7.1372,-3.29514 -18.7144,-3.29514 -11.0195,0 -12.5114,0.22895 -17.8806,2.74413 -11.6952,5.47847 -14.3159,8.22518 -33.3975,35.0033 -25.2092,35.37714 -27.8546,39.47909 -29.7844,46.18347 -2.1461,7.45584 -1.4297,15.73489 1.9317,22.32286 3.0627,6.00241 6.7719,9.52336 13.1082,12.44262 4.6818,2.15703 6.5909,2.33543 30,2.80362 l 25,0.5 0.5107,8 c 0.7521,11.78043 3.6856,15.95494 13.4684,19.16613 4.8162,1.58093 13.9626,1.0118 19.2512,-1.19789 z m -61.7303,-60.81842 c 0,-2.22132 26.5374,-40.1229 28.3379,-40.47315 1.5071,-0.29317 1.6621,1.64158 1.6621,20.75 v 21.07333 h -15 c -11.9269,0 -15,-0.27662 -15,-1.35018 z m 25.5823,-4.00367 c 0.2857,-0.74462 0.1591,-6.45646 -0.2814,-12.69298 l -0.8009,-11.33914 -7.8728,11.44298 c -4.33,6.29364 -8.0906,12.00549 -8.357,12.69299 -0.3644,0.9409 1.6519,1.25 8.1542,1.25 6.3416,0 8.7765,-0.35996 9.1579,-1.35385 z m 19.0526,-0.71873 c -2.7702,-2.17898 -3.5271,-4.92742 -1.3571,-4.92742 0.7027,0 2.0483,0.9 2.9902,2 1.0083,1.17769 2.9499,2 4.7222,2 1.6765,0 3.8958,-0.886 5.0098,-2 2.3457,-2.34573 4,-2.58253 4,-0.57258 0,2.47081 -5.0095,5.57258 -9,5.57258 -2.2596,0 -4.7691,-0.81711 -6.3651,-2.07258 z m 2.8528,-11.5826 c -2.5849,-2.58484 -3.4877,-5.93961 -3.4877,-12.95958 0,-7.58486 1.9274,-12.07792 5.5736,-12.99306 7.7324,-1.94071 12.1192,15.00636 6.3431,24.50448 -2.1413,3.52102 -5.7382,4.13899 -8.429,1.44816 z m 3.9053,-12.92661 c 1.9648,-5.12008 -0.7621,-11.01663 -3.893,-8.41821 -1.499,1.24404 -2.1075,8.05919 -0.8333,9.33333 1.2361,1.23613 4.1147,0.67877 4.7263,-0.91512 z m -52.6684,11.82996 c -2.5895,-2.86138 -3.7248,-6.99981 -3.7209,-13.56327 0.01,-10.7371 5.6682,-16.17362 10.9449,-10.5097 2.5435,2.73015 3.4077,7.22181 2.8563,14.84534 -0.6416,8.87037 -5.9806,13.75774 -10.0803,9.22763 z m 3.2402,-13.18243 c 2.496,-4.6638 -0.1479,-10.81853 -3.4648,-8.06574 -1.8232,1.51313 -2.0136,8.62607 -0.25,9.33772 2.1711,0.87606 2.6537,0.71083 3.7148,-1.27198 z m -8.9648,-18.00904 c 0,-5.24626 11.1387,-7.00892 15.6682,-2.47943 1.8877,1.88773 2.2804,2.87411 1.4678,3.68676 -0.8127,0.81264 -1.7323,0.52442 -3.4372,-1.07728 -2.9434,-2.76518 -7.7851,-2.85384 -10.1988,-0.18675 -2.2858,2.52584 -3.5,2.54551 -3.5,0.0567 z"
           style="fill:#000000"
           id="path1-7" /><path
           style="fill:#b4e1ee;fill-opacity:1;stroke:#fcfcff;stroke-width:0"
           d="m 1760.0297,340.4133 c -6.4132,-3.24492 -10.871,-11.23029 -10.9156,-19.55347 l -0.032,-5.99763 -20.1739,-0.052 c -11.0956,-0.0286 -23.9491,-0.92808 -28.5632,-1.99882 -16.6864,-3.87214 -25.6263,-19.29697 -20.2419,-34.92527 3.4313,-9.95948 30.0336,-48.83068 31.7502,-46.39327 1.7141,2.434 19.7811,2.57971 19.7811,0.15953 0,-2.81477 -10.2722,-6.31518 -14.1573,-4.82433 -5.9551,2.28519 -3.4487,-2.91809 7.0079,-14.54836 5.6641,-6.29979 13.484,-12.78523 17.3776,-14.41209 15.0844,-6.30266 38.0223,-1.90473 45.4617,8.71644 2.321,3.3138 3.1959,10.91406 3.1959,27.76371 0,32.77192 1.7038,43.43824 6.9385,43.43824 6.5891,0 14.8711,9.75509 14.8711,17.51628 0,7.32925 -10.0148,19.55997 -16.0161,19.55997 -1.9381,0 -3.846,2.88198 -4.6925,7.08811 -2.7068,13.44896 -3.7289,15.13078 -11.0554,18.19198 -9.0048,3.76246 -13.5178,3.82202 -20.536,0.27101 z m -8.7668,-77.76532 c 0,-11.92447 -0.8947,-22.23379 -1.9882,-22.90961 -1.0935,-0.67582 -5.6803,3.92805 -10.1929,10.23082 -4.5126,6.30278 -8.854,12.2302 -9.6476,13.17206 -0.7936,0.94186 -1.0096,-3.51314 -0.4799,-9.89999 0.7516,-9.06389 0.154,-12.28386 -2.7232,-14.67173 -5.7261,-4.75219 -10.8311,-0.15805 -11.6205,10.45755 -0.7451,10.0191 2.4523,17.85409 7.2861,17.85409 3.9955,0 3.9549,2.083 -0.1461,7.50496 -1.7611,2.32843 -3.202,4.9591 -3.202,5.84594 0,2.13776 7.2693,3.43672 21.2643,3.79974 l 11.45,0.29701 z m 25.7353,14.70178 c 4.2302,-4.23018 3.1635,-5.00453 -7.1977,-5.22533 -10.2847,-0.21917 -12.4276,1.7414 -5.9971,5.48683 5.1475,2.99814 10.032,2.90134 13.1948,-0.2615 z m 1.354,-19.68826 c 2.4726,-10.00879 -1.0263,-19.13275 -7.3372,-19.13275 -5.0683,0 -8.8473,6.0551 -8.8473,14.17621 0,15.67551 12.5843,19.52948 16.1845,4.95654 z"
           id="path7" /></g></g></g></svg>
