<?xml version="1.0" encoding="UTF-8" standalone="no"?>
<!-- Generator: Blender, SVG Export for Grease Pencil - v2.0 -->

<svg
   version="1.1"
   x="0px"
   y="0px"
   width="112.49937"
   height="158.60014"
   viewBox="0 0 112.49937 158.60014"
   id="svg2"
   sodipodi:docname="one.svg"
   xml:space="preserve"
   inkscape:version="1.3.2 (091e20e, 2023-11-25, custom)"
   xmlns:inkscape="http://www.inkscape.org/namespaces/inkscape"
   xmlns:sodipodi="http://sodipodi.sourceforge.net/DTD/sodipodi-0.dtd"
   xmlns="http://www.w3.org/2000/svg"
   xmlns:svg="http://www.w3.org/2000/svg"><defs
     id="defs2" /><sodipodi:namedview
     id="namedview2"
     pagecolor="#ffffff"
     bordercolor="#000000"
     borderopacity="0.25"
     inkscape:showpageshadow="2"
     inkscape:pageopacity="0.0"
     inkscape:pagecheckerboard="0"
     inkscape:deskcolor="#d1d1d1"
     inkscape:zoom="0.32421875"
     inkscape:cx="-818.89157"
     inkscape:cy="914.50602"
     inkscape:window-width="1920"
     inkscape:window-height="1009"
     inkscape:window-x="1912"
     inkscape:window-y="-6"
     inkscape:window-maximized="1"
     inkscape:current-layer="layer.hole.uuid_0x2" /><g
     id="blender_frame.1"
     transform="translate(-1640.293,94.818568)"><g
       id="blender_object.numbersGP.1.uuid_0x0"><g
         id="layer.numbers.uuid_0x1" /><g
         id="layer.hole.uuid_0x2"><path
           d="m 1659.3955,62.7368 c -15.1403,-5.59993 -20.1582,-26.24492 -9.4265,-38.78259 4.5936,-5.36658 10.0997,-7.85603 17.4376,-7.88406 l 5.75,-0.022 V -5.90083 -27.8498 l -3.4679,1.44897 c -18.3542,7.6689 -36.4649,-17.08117 -26.6199,-36.37887 2.3023,-4.51289 3.3128,-5.37803 20.5878,-17.62614 17.7964,-12.61782 20.3581,-13.81673 30.6396,-14.34021 14.3982,-0.73308 23.8058,4.07578 29.6504,15.15635 l 2.71,5.13785 0.2885,45.25 0.2886,45.25 3.7114,0.01 c 5.6878,0.015 13.6141,4.1829 17.0962,8.98973 4.0436,5.58203 5.7144,13.74541 4.1992,20.51627 -1.525,6.81428 -5.0968,11.81963 -10.8462,15.19929 l -4.7377,2.78494 -37,0.1974 c -26.8476,0.14323 -37.8948,-0.13357 -40.2611,-1.00879 z m 75.2611,-4.78736 c 7.822,-2.12679 12.5,-8.63243 12.5,-17.38371 0,-7.03787 -1.7259,-11.1917 -6.3297,-15.23384 -3.5808,-3.144 -6.338,-4.02489 -14.1703,-4.52718 -3.7193,-0.23852 -4.022,-0.48461 -4.3134,-3.50652 -0.2742,-2.84455 -0.6738,-3.25 -3.2029,-3.25 -4.2147,0 -7.9331,-2.00143 -9.5587,-5.14503 -0.7837,-1.51561 -1.425,-3.228 -1.425,-3.80531 0,-2.10126 2.5413,-0.96443 4.1446,1.85406 1.6352,2.87452 6.6831,4.93882 8.831,3.61136 0.6227,-0.38484 1.0244,-6.29616 1.0244,-15.0741 v -14.44098 h -2.5497 c -3.717,0 -7.8852,-2.46427 -9.2556,-5.47206 -1.4687,-3.2234 -1.477,-3.52794 -0.096,-3.52794 0.6043,0 2.3599,1.35 3.9012,3 1.7233,1.84484 3.8031,3 5.4012,3 h 2.5988 l -0.044,-24.25 c -0.032,-17.62813 -0.4095,-25.27456 -1.3829,-28.00203 -3.4681,-9.71838 -11.2603,-14.95178 -23.1964,-15.57929 -9.0405,-0.47527 -12.0107,0.79615 -28.4228,12.16667 -18.5388,12.84389 -21.5118,15.65286 -22.9611,21.6943 -2.3187,9.66544 2.4844,20.52454 10.6821,24.15081 5.4027,2.38985 9.4383,1.91048 14.8535,-1.76436 6.0162,-4.0827 6.4715,-3.27501 6.4715,11.47993 0,12.80853 0.031,12.98284 2.6348,15.03139 1.5961,1.25547 4.1056,2.07258 6.3652,2.07258 3.9492,0 9,-3.09421 9,-5.51357 0,-1.87564 1.9546,-2.93185 3.1722,-1.7142 1.5407,1.5407 -1.719,6.94205 -5.3103,8.79918 -3.1301,1.61861 -10.4904,1.62439 -14.0804,0.0111 -1.5657,-0.70363 -1.7435,0.32479 -2,11.57263 l -0.2815,12.34489 -8,0.55443 c -9.5811,0.66401 -13.5364,2.53238 -17.2543,8.15042 -6.4551,9.75435 -1.3482,25.60945 9.2543,28.73141 4.4604,1.31339 68.1531,1.28284 73,-0.035 z m -39.271,-92.57055 c -3.983,-1.60254 -5.7648,-15.4601 -2.74,-21.30949 4.3131,-8.34046 11.511,-2.72591 11.511,8.97879 0,9.35454 -3.5976,14.41222 -8.771,12.3307 z m 2.5892,-15.7208 c 0.376,-4.57684 -1.0026,-6.53169 -3.2758,-4.64508 -1.5567,1.29192 -2.1386,7.10562 -0.8412,8.40308 1.7867,1.78663 3.8135,-0.0635 4.117,-3.758 z m -8.8182,-14.5532 c 0,-5.17677 10.2399,-6.90767 14.6682,-2.47943 1.8877,1.88773 2.2804,2.87411 1.4678,3.68676 -0.8127,0.81264 -1.7323,0.52442 -3.4372,-1.07728 -2.904,-2.72816 -6.8268,-2.8078 -9.1988,-0.18675 -2.2858,2.52584 -3.5,2.54551 -3.5,0.0567 z"
           style="fill:#000000"
           id="path1-5" /><path
           style="fill:#b4e1ee;fill-opacity:1;stroke:#fcfcff;stroke-width:0"
           d="m 1672.2297,57.360138 c -11.6996,-0.740906 -14.1658,-1.652807 -17.2659,-6.38416 -8.517,-12.998494 -1.843,-26.370818 14.2379,-28.527709 8.9372,-1.198732 9.0442,-1.318983 9.0772,-10.194937 0.043,-11.6288829 1.6987,-13.9252615 10.6705,-14.8021017 4.0669,-0.3974639 8.4401,-2.3930931 9.7181,-4.4347295 3.3053,-5.2799848 -0.01,-7.4897188 -4.7684,-3.1809238 -9.338,8.4508002 -15.6536,2.0504908 -15.6536,-15.863669 0,-6.076485 -0.5394,-11.048158 -1.1988,-11.048158 -0.6593,0 -4.0468,1.472765 -7.5277,3.27281 -11.6831,6.041584 -22.8673,-3.682884 -21.428,-18.631184 0.5807,-6.030321 3.1092,-9.318055 13.7421,-17.868065 18.0618,-14.523718 29.4333,-19.735476 39.1026,-17.921493 16.2534,3.049144 20.8642,13.967065 20.91,49.512216 0.015,11.372566 -0.696,14.721452 -3.1238,14.721452 -1.7285,0 -3.7492,-0.981431 -4.4906,-2.180956 -2.0825,-3.369527 -5.4524,-2.578455 -5.4524,1.279924 0,1.903484 2.9443,4.572226 6.5429,5.930538 6.1192,2.309744 6.5428,3.207063 6.5428,13.8580533 0,12.8726361 -2.6828,16.0223377 -8.8746,10.418871 -2.3308,-2.1093616 -4.8555,-3.217562 -5.6104,-2.4626677 -2.4427,2.4427033 5.7288,12.4134424 10.1734,12.4134424 2.3714,0 4.3116,1.34671 4.3116,2.99269 0,1.798107 3.4348,3.541934 8.6049,4.368666 9.9992,1.598924 15.3857,7.839363 15.3857,17.824741 0,12.586277 -6.346,15.636594 -34.8953,16.773197 -13.7946,0.549189 -31.2232,0.609555 -38.7302,0.134153 z m 29.8726,-93.184726 c 3.7675,-4.539535 2.0189,-21.028537 -2.5324,-23.880559 -5.4037,-3.386126 -9.2355,1.292089 -9.2052,11.23836 0.044,14.474638 5.4154,20.259948 11.7376,12.642199 z m -1.1653,-28.371086 c 7.0558,1.77091 7.7669,-2.775465 0.8351,-5.3397 -6.906,-2.554723 -12.6218,-0.458895 -12.6218,4.628113 0,3.508815 0.6062,3.871519 3.0628,1.832676 1.7445,-1.447777 5.4996,-1.930337 8.7239,-1.121089 z"
           id="path4" /></g></g></g></svg>
