<?xml version="1.0" encoding="UTF-8" standalone="no"?>
<!-- Created with Inkscape (http://www.inkscape.org/) -->

<svg
   width="219.75775mm"
   height="194.0755mm"
   viewBox="0 0 219.75775 194.0755"
   version="1.1"
   id="svg1"
   inkscape:version="1.3.2 (091e20e, 2023-11-25, custom)"
   sodipodi:docname="noga1.svg"
   xmlns:inkscape="http://www.inkscape.org/namespaces/inkscape"
   xmlns:sodipodi="http://sodipodi.sourceforge.net/DTD/sodipodi-0.dtd"
   xmlns="http://www.w3.org/2000/svg"
   xmlns:svg="http://www.w3.org/2000/svg">
  <sodipodi:namedview
     id="namedview1"
     pagecolor="#ffffff"
     bordercolor="#000000"
     borderopacity="0.25"
     inkscape:showpageshadow="2"
     inkscape:pageopacity="0.0"
     inkscape:pagecheckerboard="0"
     inkscape:deskcolor="#d1d1d1"
     inkscape:document-units="mm"
     inkscape:zoom="1.4485269"
     inkscape:cx="466.33582"
     inkscape:cy="302.03097"
     inkscape:window-width="1920"
     inkscape:window-height="1009"
     inkscape:window-x="-8"
     inkscape:window-y="-8"
     inkscape:window-maximized="1"
     inkscape:current-layer="layer1" />
  <defs
     id="defs1">
    <clipPath
       clipPathUnits="userSpaceOnUse"
       id="clipPath24">
      <ellipse
         style="fill:#2b2162;fill-opacity:1;stroke:none;stroke-width:23.8166;stroke-linecap:square;stroke-linejoin:round;stroke-dasharray:none;stroke-opacity:1;paint-order:fill markers stroke"
         id="ellipse24"
         cx="2337.5415"
         cy="580.77734"
         rx="45.341484"
         ry="86.179855" />
    </clipPath>
    <clipPath
       clipPathUnits="userSpaceOnUse"
       id="clipPath1">
      <ellipse
         style="fill:#2b2162;fill-opacity:1;stroke:none;stroke-width:23.8166;stroke-linecap:square;stroke-linejoin:round;stroke-dasharray:none;stroke-opacity:1;paint-order:fill markers stroke"
         id="ellipse1"
         cx="2337.5415"
         cy="580.77734"
         rx="45.341484"
         ry="86.179855" />
    </clipPath>
    <clipPath
       clipPathUnits="userSpaceOnUse"
       id="clipPath2">
      <ellipse
         style="fill:#2b2162;fill-opacity:1;stroke:none;stroke-width:6.30148;stroke-linecap:square;stroke-linejoin:round;stroke-dasharray:none;stroke-opacity:1;paint-order:fill markers stroke"
         id="ellipse3"
         cx="166.54306"
         cy="105.14861"
         rx="11.996601"
         ry="22.801754" />
    </clipPath>
    <clipPath
       clipPathUnits="userSpaceOnUse"
       id="clipPath6">
      <ellipse
         style="fill:#2b2162;fill-opacity:1;stroke:none;stroke-width:6.30148;stroke-linecap:square;stroke-linejoin:round;stroke-dasharray:none;stroke-opacity:1;paint-order:fill markers stroke"
         id="ellipse7"
         cx="166.54306"
         cy="105.14861"
         rx="11.996601"
         ry="22.801754" />
    </clipPath>
  </defs>
  <g
     inkscape:label="Layer 1"
     inkscape:groupmode="layer"
     id="layer1"
     transform="translate(-15.345826,-27.781252)">
    <path
       style="fill:#b1deed;fill-opacity:1;stroke:#2b2162;stroke-width:6.61458;stroke-linecap:square;stroke-linejoin:round;stroke-dasharray:none;stroke-opacity:1;paint-order:fill markers stroke"
       d="m 180.31782,54.565388 c 0,0 20.28732,-27.779509 32.24654,-15.422264 9.22369,9.530678 10.2815,36.452622 6.07544,37.387305"
       id="path11"
       sodipodi:nodetypes="csc" />
    <path
       style="fill:#b1deed;fill-opacity:1;stroke:#2b2162;stroke-width:6.61458;stroke-linecap:square;stroke-linejoin:round;stroke-dasharray:none;stroke-opacity:1;paint-order:fill markers stroke"
       d="m 95.530264,51.260784 c 0,0 -25.379997,-30.114364 -35.834637,-16.460613 -8.562763,11.18298 -6.693403,37.490971 -2.487348,38.425654"
       id="path12"
       sodipodi:nodetypes="csc" />
    <path
       style="fill:#b1deed;fill-opacity:1;stroke:#2b2162;stroke-width:6.61458;stroke-linecap:square;stroke-linejoin:round;stroke-dasharray:none;stroke-opacity:1;paint-order:fill markers stroke"
       d="m 162.39407,50.953116 c 0,0 -15.63404,-20.83784 -36.68109,-19.82761 -32.777273,1.573265 -34.233592,25.742325 -43.951209,28.750037 -18.250429,5.648717 -28.040938,5.708862 -42.629375,22.801755 -4.586102,5.37343 -7.270115,23.462672 -6.278721,29.741422 0.991367,6.27874 1.652296,6.6092 -3.965522,16.19255 -5.617845,9.58334 -10.094225,28.17903 -10.094225,30.49225 0,2.31322 -1.141439,11.80666 3.154548,18.41584 4.295987,6.60922 12.227031,16.19256 18.505778,18.83625 6.278748,2.64369 17.844849,6.60921 25.114964,8.59197 6.113516,4.29596 8.757206,4.13075 16.357785,7.43535 7.60058,3.30459 17.679617,5.78304 26.602057,6.1135 8.92241,0.33047 15.20116,-0.82616 27.09775,-3.80028 4.85037,-1.21261 6.83604,-3.00371 11.89979,-3.89474 7.68663,0.19267 15.73959,-0.43175 21.80712,-0.23601 10.24427,0.33046 26.68455,-4.29588 43.2903,-16.19255 5.89775,-4.22527 17.18392,-17.84485 18.83622,-28.08912 1.65232,-10.24427 -3.63503,-28.41958 -4.62642,-39.32477 -0.99137,-10.90518 4.61623,-24.46584 1.32183,-36.020159 -2.0021,-7.02192 -2.97413,-10.905186 -12.22703,-18.175311 -9.25288,-7.270123 -14.8707,-14.209789 -28.08912,-19.166692 -13.2184,-4.956902 -25.44543,-2.643682 -25.44543,-2.643682 z"
       id="path10"
       sodipodi:nodetypes="csssssssscssscssssassc" />
    <path
       style="fill:none;fill-opacity:1;stroke:#2b2162;stroke-width:6.61458;stroke-linecap:round;stroke-linejoin:round;stroke-dasharray:none;stroke-opacity:1;paint-order:fill markers stroke"
       d="m 104.97901,147.16567 c 5.14858,28.12382 47.45445,30.6328 55.34726,0.49569"
       id="path14"
       sodipodi:nodetypes="cc" />
    <ellipse
       style="fill:#2b2162;fill-opacity:1;stroke:none;stroke-width:6.30148;stroke-linecap:square;stroke-linejoin:round;stroke-dasharray:none;stroke-opacity:1;paint-order:fill markers stroke"
       id="path13"
       cx="166.54306"
       cy="105.14861"
       rx="11.996601"
       ry="22.801754" />
    <ellipse
       style="fill:#f9f9f9;fill-opacity:1;stroke:none;stroke-width:7.05362;stroke-linecap:round;stroke-linejoin:round;stroke-dasharray:none;stroke-opacity:1;paint-order:fill markers stroke"
       id="path15"
       cx="159.67989"
       cy="98.38942"
       rx="6.3094025"
       ry="12.106836"
       clip-path="url(#clipPath6)" />
    <ellipse
       style="fill:#2b2162;fill-opacity:1;stroke:none;stroke-width:6.30148;stroke-linecap:square;stroke-linejoin:round;stroke-dasharray:none;stroke-opacity:1;paint-order:fill markers stroke"
       id="ellipse13"
       cx="98.762245"
       cy="105.14861"
       rx="11.996601"
       ry="22.801754" />
    <g
       id="g9"
       transform="translate(-67.780815)">
      <ellipse
         style="fill:#2b2162;fill-opacity:1;stroke:none;stroke-width:6.30148;stroke-linecap:square;stroke-linejoin:round;stroke-dasharray:none;stroke-opacity:1;paint-order:fill markers stroke"
         id="ellipse8"
         cx="166.54306"
         cy="105.14861"
         rx="11.996601"
         ry="22.801754" />
      <ellipse
         style="fill:#f9f9f9;fill-opacity:1;stroke:none;stroke-width:7.05362;stroke-linecap:round;stroke-linejoin:round;stroke-dasharray:none;stroke-opacity:1;paint-order:fill markers stroke"
         id="ellipse9"
         cx="159.67989"
         cy="98.38942"
         rx="6.3094025"
         ry="12.106836"
         clip-path="url(#clipPath6)" />
    </g>
  </g>
</svg>
