<?xml version="1.0" encoding="UTF-8"?>
<!-- Generator: Blender, SVG Export for Grease Pencil - v2.0 -->
<!DOCTYPE svg PUBLIC "-//W3C//DTD SVG 1.1//EN" "http://www.w3.org/Graphics/SVG/1.1/DTD/svg11.dtd">
<svg version="1.1" x="0px" y="0px" xmlns="http://www.w3.org/2000/svg" width="1920.000000px" height="1080.000000px" viewBox="0 0 1920.000000 1080.000000">
	<g id="blender_frame.1">
		<g id="blender_object.Stroke.1.uuid_0x0">
			<g id="layer.nogaEars.uuid_0x1">
				<polyline points="679.075134,355.761353 679.070496,355.759705 679.056702,355.755066 679.033691,355.747498 679.001465,355.736755 678.960144,355.722900 678.909424,355.706055 678.849609,355.686035 678.780518,355.663086 678.702271,355.636902 678.614746,355.607910 678.518005,355.575623 678.412231,355.540283 678.297119,355.501953 678.172852,355.460571 678.039307,355.415955 677.896606,355.368469 677.744751,355.317749 677.583496,355.264099 677.413208,355.207397 677.233765,355.147461 677.044922,355.084595 676.846924,355.018555 676.639771,354.949524 676.423523,354.877258 676.197937,354.802185 675.963196,354.724060 675.719177,354.642639 675.466003,354.558228 675.203491,354.470764 674.931885,354.380249 674.651001,354.286682 674.361084,354.189941 674.061829,354.090210 673.753418,353.987366 673.435791,353.881531 673.108887,353.772522 672.772827,353.660461 672.427612,353.545410 672.073059,353.427307 671.709412,353.306091 671.336487,353.181763 670.954529,353.054443 670.563232,352.923889 670.162659,352.790466 669.752869,352.653931 669.334045,352.514221 668.905762,352.371399 668.468506,352.225647 668.021973,352.076843 667.566162,351.924988 667.101196,351.770020 666.627197,351.612000 666.143616,351.450867 665.651123,351.286560 665.149353,351.119324 664.638428,350.948975 664.118225,350.775452 663.588745,350.599121 663.050110,350.419556 662.502380,350.237000 661.945374,350.051270 661.378967,349.862671 660.803467,349.670715 660.468140,341.725281 660.235657,333.985352 660.106018,326.451172 660.078979,319.122498 660.154907,311.999512 660.333496,305.082336 660.615112,298.370544 660.999451,291.864441 661.486511,285.563965 662.076538,279.469116 662.769348,273.579895 663.564880,267.896423 664.463440,262.418518 665.464600,257.146240 666.568604,252.079590 667.775574,247.218323 669.085083,242.563049 670.497681,238.113342 672.013000,233.869202 673.631165,229.830566 675.351990,225.997803 677.175781,222.370361 679.102234,218.948975 681.131714,215.732727 683.263855,212.722412 685.498962,209.917664 687.836609,207.318726 690.277405,204.925049 692.820862,202.737305 695.467163,200.755066 698.216187,198.978516 701.068115,197.407410 704.022888,196.042053 707.080383,194.882324 710.240784,193.928345 713.503845,193.179932 716.869934,192.637085 720.338745,192.299683 723.910278,192.168335 727.584717,192.242371 731.362061,192.522034 735.242065,193.007385 739.225037,193.698303 743.310669,194.594849 747.499084,195.697144 751.790405,197.005005 756.184570,198.518433 760.681641,200.237549 765.281311,202.162109 769.983948,204.292664 774.789246,206.628662 779.697571,209.170288 784.708618,211.917480 789.822449,214.870239 795.039185,218.028931 800.358582,221.392944 805.780884,224.962769 811.305969,228.738159 816.933838,232.719116 822.664673,236.905823 828.498169,241.298218 834.434509,245.896118 840.473755,250.699646" fill="#B1DEED" stroke="none" fill-opacity="1" />
				<path d="M674.772827,368.381409L677.317566,368.978333L679.929871,369.067200L682.509277,368.644775L684.956726,367.727295L687.178223,366.349915L689.088257,364.565674L690.613464,362.443054L691.695312,360.063599L692.292175,357.518860L692.381042,354.906616L691.958679,352.327209L691.041138,349.879761L689.663757,347.658325L687.879517,345.748291L685.756836,344.223022L683.377502,343.141174L683.372803,343.139587L683.309509,343.118225L683.232239,343.092407L683.224670,343.089905L683.188599,343.077820L683.124756,343.056641L683.076904,343.040649L682.999268,343.014832L682.930847,342.991882L682.824097,342.956421L682.739075,342.928040L682.635254,342.893433L682.512634,342.852478L682.391296,342.812195L682.266235,342.770325L682.110840,342.718628L681.962708,342.669250L681.799866,342.614990L681.630005,342.558411L681.455139,342.500061L681.259583,342.434875L681.063843,342.369690L680.860046,342.301697L680.646423,342.230347L680.409912,342.151672L680.178894,342.074707L679.938477,341.994568L679.687195,341.910645L679.417419,341.820923L679.148621,341.731262L678.867615,341.637634L678.579956,341.541626L678.280090,341.441650L677.969971,341.338318L677.652344,341.232422L677.325317,341.123413L676.989929,341.011597L676.644165,340.896362L676.289001,340.778015L675.926880,340.657227L675.552673,340.532532L675.172485,340.405884L674.784485,340.276367L674.376465,340.140503L673.969727,340.005005L673.553589,339.866150L673.123108,339.722656L672.684265,339.576416L672.238770,339.427856L671.782776,339.275940L671.317078,339.120667L670.844238,338.963074L670.360474,338.801941L669.871277,338.638733L669.365723,338.470215L668.855652,338.300171L668.337219,338.127258L667.803589,337.949585L667.266418,337.770447L666.718933,337.587952L666.162109,337.402344L665.595581,337.213623L671.454041,341.649170L673.792786,341.243896L673.565247,333.670410L673.438599,326.311951L673.412231,319.169006L673.486023,312.242554L673.659241,305.533936L673.931458,299.043152L674.301941,292.771423L674.769531,286.720154L675.333801,280.890564L675.993408,275.283020L676.746826,269.899780L677.592773,264.741577L678.529236,259.809509L679.553955,255.105591L680.664917,250.630676L681.858643,246.386047L683.132385,242.372681L684.482117,238.591248L685.903931,235.041809L687.392883,231.724304L688.944275,228.637756L690.552979,225.779724L692.214050,223.146240L693.922119,220.733643L695.673767,218.534668L697.465942,216.541260L699.297546,214.744080L701.169800,213.133118L703.086853,211.696533L705.055481,210.424133L707.085083,209.306030L709.187073,208.334778L711.373901,207.505432L713.659607,206.815857L716.056885,206.266602L718.577515,205.860657L721.229492,205.603271L724.021118,205.501160L726.958008,205.560913L730.041870,205.789856L733.274597,206.194702L736.656006,206.781799L740.184204,207.556458L743.858215,208.523743L747.675232,209.687378L751.632385,211.050598L755.727173,212.616211L759.956421,214.386047L764.317566,216.362000L768.808472,218.545288L773.426697,220.936890L778.169739,223.537354L783.035461,226.347046L788.022644,229.366699L793.129028,232.596130L798.353516,236.035889L803.694641,239.685547L809.151001,243.545227L814.721680,247.615051L820.405579,251.894775L826.202087,256.384399L832.173828,261.134644L834.369141,262.553406L836.798950,263.516541L839.369995,263.987122L841.983459,263.947266L844.538940,263.398132L846.938232,262.361023L849.088989,260.875793L850.908752,258.999573L852.327454,256.804321L853.290649,254.374390L853.761292,251.803345L853.721313,249.189819L853.172241,246.634399L852.135132,244.235229L850.649902,242.084351L848.773560,240.264587L842.734375,235.461121L836.662781,230.756958L830.684814,226.254272L824.799316,221.952820L819.005859,217.852783L813.303162,213.954163L807.690491,210.256531L802.165833,206.759949L796.728149,203.464661L791.375793,200.370789L786.107178,197.478638L780.920288,194.788574L775.813477,192.301208L770.783508,190.017029L765.828247,187.937500L760.945557,186.064148L756.132385,184.398438L751.385925,182.942932L746.704224,181.700623L742.083008,180.674805L737.520935,179.870239L733.016907,179.291809L728.569214,178.945374L724.178772,178.837769L719.848633,178.975464L715.579407,179.366333L711.380859,180.016663L707.260376,180.932312L703.227295,182.117798L699.294067,183.575500L695.475037,185.304016L691.782959,187.299805L688.230286,189.556641L684.827332,192.065674L681.582642,194.816650L678.500732,197.799316L675.585815,201.000916L672.836487,204.412903L670.251038,208.026428L667.826172,211.833557L665.557617,215.828491L663.439514,220.008362L661.467468,224.369568L659.636169,228.910034L657.940613,233.630249L656.376770,238.528809L654.940369,243.607788L653.628113,248.866455L652.436951,254.307617L651.364197,259.930908L650.407349,265.738281L649.564697,271.731628L648.834473,277.911377L648.215210,284.279053L647.705688,290.836853L647.304932,297.584290L647.011902,304.523193L646.826050,311.655396L646.746338,318.980347L646.772644,326.500305L646.904236,334.214661L647.140869,342.125732L647.482056,350.232971L648.002441,353.400513L649.264832,356.351868L651.196045,358.915955L653.684143,360.944214L656.584778,362.319031L657.160278,362.510986L657.729736,362.700684L658.285645,362.885986L658.833557,363.068665L659.372742,363.248413L659.901794,363.424561L660.419434,363.597290L660.933228,363.768555L661.432800,363.934998L661.923523,364.098755L662.411865,364.261475L662.884155,364.418884L663.350464,364.574280L663.805237,364.725830L664.251709,364.874695L664.689758,365.020691L665.115662,365.162659L665.533386,365.302002L665.948425,365.440247L666.345886,365.572632L666.733215,365.701904L667.121094,365.831238L667.492676,365.955078L667.855530,366.076050L668.212158,366.194824L668.555969,366.309448L668.891724,366.421387L669.219666,366.530640L669.536804,366.636414L669.844421,366.738953L670.142639,366.838318L670.432190,366.934998L670.716309,367.029602L670.986694,367.119751L671.249878,367.207336L671.497986,367.290222L671.745544,367.372742L671.984131,367.452271L672.207092,367.526428L672.416992,367.596497L672.629395,367.667297L672.828796,367.733765L673.016357,367.796265L673.191772,367.854858L673.369202,367.913879L673.527466,367.966614L673.678589,368.017029L673.820679,368.064270L673.945984,368.106201L674.084412,368.152283L674.192932,368.188416L674.295044,368.222534L674.395752,368.256165L674.488098,368.286804L674.551941,368.308105L674.631409,368.334595L674.682068,368.351624L674.744080,368.372131L674.772949,368.381775L674.815735,368.396118L674.840698,368.404297L674.792908,368.388306z" fill="#2E2662" stroke="none" fill-opacity="1" />
				<polyline points="1146.521851,253.744873 1146.521851,253.744873 1146.521851,253.744873 1146.521851,253.744873 1146.521851,253.744873 1146.521851,253.744751 1146.521851,253.744873 1146.521973,253.744873 1146.521973,253.744751 1146.521973,253.744751 1146.522217,253.744751 1146.522217,253.744751 1146.522217,253.744751 1146.522217,253.744751 1146.522217,253.744629 1146.521973,253.744629 1146.522217,253.744629 1146.521973,253.744751 1146.522217,253.744629 1146.521973,253.744629 1146.522339,253.744568 1146.521973,253.744629 1146.522339,253.744507 1146.521973,253.744507 1146.522339,253.744507 1146.522339,253.744507 1146.522339,253.744385 1146.522217,253.744507 1146.522339,253.744202 1146.522217,253.744202 1146.522461,253.744202 1146.522339,253.744202 1146.522339,253.744202 1146.522461,253.744202 1146.522461,253.744080 1146.522461,253.744019 1146.522461,253.744019 1146.522461,253.743896 1146.522461,253.743896 1146.522461,253.743896 1146.522583,253.743713 1146.522583,253.743713 1146.522461,253.743652 1146.522461,253.743652 1146.522461,253.743469 1146.522583,253.743469 1146.522583,253.743469 1146.522827,253.743347 1146.522827,253.743347 1146.522827,253.743347 1146.522827,253.743225 1146.522827,253.743225 1146.522949,253.743103 1146.522949,253.742920 1146.523071,253.742920 1146.523071,253.742920 1146.523071,253.742737 1146.523071,253.742737 1146.523193,253.742737 1146.523193,253.742432 1146.523193,253.742432 1146.523193,253.742432 1146.523438,253.742249 1146.523438,253.742249 1151.015381,248.919983 1155.452148,244.314026 1159.833496,239.924500 1164.159790,235.751343 1168.430786,231.794617 1172.646484,228.054138 1176.807007,224.530151 1180.912354,221.222473 1184.962402,218.131165 1188.957153,215.256104 1192.896729,212.597412 1196.780884,210.155334 1200.609985,207.929626 1204.383667,205.920105 1208.102173,204.127075 1211.765625,202.550293 1215.373413,201.190063 1218.926392,200.045959 1222.423950,199.118408 1225.866211,198.406982 1229.253296,197.912354 1232.585327,197.633789 1235.861694,197.571716 1239.083008,197.725830 1242.248901,198.096497 1245.359985,198.683533 1248.415649,199.486938 1251.416016,200.506470 1254.361084,201.742737 1257.251099,203.195068 1260.085449,204.864014 1262.864868,206.749207 1265.589233,208.850769 1268.257935,211.168701 1270.871582,213.702942 1273.430054,216.453735 1275.933105,219.420715 1278.380981,222.604187 1280.773682,226.004089 1283.111084,229.620239 1285.393311,233.452698 1287.620361,237.501648 1289.791992,241.766846 1291.908203,246.248657 1293.969604,250.946594 1295.975708,255.861084 1297.926147,260.991699 1299.821777,266.338684 1301.661865,271.902405 1303.447021,277.682251 1305.176392,283.678406 1306.851196,289.891113 1308.470215,296.320068 1310.034302,302.965393 1311.543091,309.827148 1312.996460,316.905334 1314.394897,324.199646 1315.737793,331.710571 1317.025513,339.437744 1318.258057,347.381409 1319.435425,355.541260 1320.557495,363.917664 1321.624268,372.510254" fill="#B1DEED" stroke="none" fill-opacity="1" />
				<path d="M1146.521851,253.744873L1146.521851,253.744873L1146.521851,253.744873L1146.521851,253.744873L1146.521851,253.744873L1159.855225,253.744751L1159.598999,251.143616L1158.840210,248.642273L1157.608032,246.337158L1155.949951,244.316711L1153.929443,242.658569L1151.624268,241.426331L1149.123169,240.667603L1146.521851,240.411438L1143.920776,240.667603L1141.419434,241.426331L1139.114258,242.658569L1137.093750,244.316711L1135.435669,246.337219L1134.203613,248.642273L1133.444824,251.143616L1133.188599,253.744751L1133.188599,253.744873L1133.522827,256.711853L1134.509033,259.529968L1136.097534,262.057983L1138.208618,264.169373L1140.736816,265.757751L1143.555054,266.743896L1146.521851,267.078186L1146.521973,267.078186L1149.489014,266.743958L1152.307251,265.757751L1154.835205,264.169373L1156.946533,262.057983L1158.535034,259.529968L1159.520996,256.711853L1159.855347,253.744873L1146.521973,253.744751L1146.521973,253.744751L1146.522217,253.744751L1146.522217,253.744751L1146.522217,253.744751L1146.522217,253.744751L1159.855469,253.744629L1159.521118,250.777710L1158.535156,247.959534L1156.946655,245.431396L1154.835327,243.320190L1152.307373,241.731750L1149.489136,240.745667L1146.522217,240.411316L1146.521973,240.411316L1143.920898,240.667480L1141.419678,241.426208L1139.114380,242.658386L1137.093872,244.316589L1135.435791,246.337036L1134.203735,248.642151L1133.444946,251.143433L1133.188721,253.744629L1133.444946,256.345764L1134.203735,258.847107L1135.435791,261.152283L1137.093872,263.172729L1139.114380,264.830933L1141.419678,266.063049L1143.920898,266.821777L1146.521973,267.078003L1134.342163,259.169250L1136.611328,244.825195L1135.061768,246.930115L1133.952393,249.296814L1133.326294,251.834534L1133.207153,254.445496L1133.599854,257.029724L1134.488892,259.487610L1135.840454,261.724854L1137.602417,263.655334L1139.707397,265.205078L1142.074097,266.314331L1144.611694,266.940613L1147.222900,267.059692L1149.807007,266.667175L1152.264893,265.777954L1154.502075,264.426453L1156.432495,262.664307L1156.432739,262.664185L1158.070557,260.408997L1159.203613,257.862549L1159.782715,255.136230L1159.782227,252.348999L1159.202393,249.622803L1158.068481,247.076721L1156.430054,244.822144L1154.358643,242.957275L1151.944946,241.563843L1149.294067,240.702637L1146.522217,240.411316L1159.726440,251.895325L1150.185303,266.564880L1152.615967,265.603943L1154.812500,264.187256L1156.690430,262.369263L1158.177856,260.219788L1159.217041,257.821533L1159.768555,255.266541L1159.810913,252.653137L1159.342773,250.081665L1158.381714,247.650879L1156.964966,245.454285L1155.147095,243.576416L1152.997559,242.089172L1150.599365,241.049927L1148.044312,240.498413L1145.430908,240.455933L1142.859497,240.924194L1158.809448,248.568115L1153.137451,265.321106L1155.322754,263.760864L1157.151245,261.794495L1158.548706,259.501648L1159.458374,256.975281L1159.843384,254.317810L1159.688110,251.637207L1158.998901,249.042053L1157.803711,246.637634L1156.151123,244.521362L1154.107788,242.779236L1151.756958,241.481689L1149.193848,240.681580L1146.522339,240.411194L1146.521973,240.411194L1143.920898,240.667419L1141.419678,241.426025L1139.114380,242.658142L1137.093872,244.316406L1135.435791,246.336853L1134.203735,248.642029L1133.444946,251.143311L1133.188721,253.744507L1133.444946,256.345703L1134.203735,258.846985L1135.435791,261.152100L1137.093872,263.172607L1139.114380,264.830750L1141.419678,266.062927L1143.920898,266.821594L1146.521973,267.077820L1146.522339,253.744507L1146.522339,253.744507L1159.855713,253.744385L1159.580688,251.050476L1158.767090,248.467712L1157.448486,246.102539L1155.679077,244.052612L1153.531982,242.402344L1151.095947,241.220093L1148.471069,240.554260L1145.765991,240.432556L1143.091919,240.859863L1140.559448,241.818787L1156.580688,244.992065L1157.509644,261.298035L1158.879761,258.751404L1159.668579,255.969360L1159.839233,253.082764L1159.383423,250.227051L1158.322510,247.536987L1156.706787,245.138733L1154.611938,243.145325L1152.136475,241.650513L1149.396973,240.724548L1146.522339,240.410889L1159.790649,252.430420L1133.910889,258.071350L1153.531982,242.402222L1155.950439,263.172302L1146.522461,267.077576L1149.489380,266.743286L1152.307617,265.757141L1154.835693,264.168701L1156.946899,262.057434L1158.535278,259.529297L1159.521362,256.711182L1159.855713,253.744202L1159.855713,253.744080L1146.522461,253.744019L1146.522461,253.744019L1155.950562,263.172058L1146.522461,253.743896L1146.522461,253.743896L1146.522583,253.743713L1146.522583,253.743713L1146.522461,253.743652L1146.522461,253.743652L1155.950684,263.171570L1146.522583,267.076843L1149.489746,266.742615L1152.307739,265.756409L1154.835938,264.167908L1156.947144,262.056702L1158.535645,259.528625L1159.521851,256.710388L1159.856079,253.743469L1157.443604,261.392761L1146.522827,253.743347L1146.522827,253.743347L1159.856201,253.743347L1146.522827,253.743225L1146.522827,253.743225L1155.951050,263.171143L1158.069946,260.409790L1159.401978,257.193970L1159.856323,253.743103L1158.278564,260.034424L1146.523071,253.742920L1146.523071,253.742920L1146.523071,253.742737L1146.523071,253.742737L1146.523193,267.076050L1149.490112,266.741760L1152.308350,265.755615L1154.836426,264.167114L1156.947632,262.055908L1158.536255,259.527771L1159.522339,256.709656L1159.856567,253.742737L1146.523193,253.742432L1146.523193,253.742432L1146.523193,253.742432L1146.523438,253.742249L1146.523438,253.742249L1160.695312,258.089294L1164.972168,253.649109L1169.180664,249.432922L1173.319458,245.440491L1177.386597,241.672363L1181.380493,238.128662L1185.299072,234.809326L1189.140747,231.713989L1192.902466,228.842529L1196.581543,226.194397L1200.175415,223.768677L1203.680786,221.564575L1207.094727,219.579651L1210.413818,217.811829L1213.634766,216.258423L1216.754395,214.915222L1219.770020,213.777588L1222.680054,212.840027L1225.483154,212.096069L1228.180054,211.538086L1230.772827,211.158813L1233.267456,210.949707L1235.669189,210.903564L1237.988770,211.014221L1240.236328,211.276978L1242.426758,211.690125L1244.572876,212.254517L1246.687866,212.973328L1248.783813,213.853516L1250.871338,214.903076L1252.956909,216.131714L1255.046997,217.550110L1257.142090,219.167053L1259.242310,220.991882L1261.346069,223.032654L1263.449951,225.295349L1265.550049,227.785522L1267.641846,230.506531L1269.720825,233.461304L1271.782471,236.651428L1273.822266,240.077393L1275.836426,243.740173L1277.821289,247.638977L1279.773926,251.774536L1281.691406,256.145081L1283.570923,260.749878L1285.410400,265.588623L1287.208008,270.659973L1288.962036,275.963379L1290.671143,281.497253L1292.333618,287.261169L1293.949097,293.254578L1295.515747,299.475586L1297.033569,305.924377L1298.501099,312.599792L1299.918335,319.501526L1301.284546,326.628296L1302.598999,333.979858L1303.861572,341.555847L1305.071777,349.355652L1306.229126,357.378296L1307.333618,365.624207L1308.392456,374.153137L1308.967285,376.703003L1310.028442,379.091675L1311.535156,381.227417L1313.429688,383.028137L1315.639038,384.424805L1318.078369,385.363464L1320.654175,385.808350L1323.267090,385.742004L1325.816895,385.167297L1328.205688,384.106140L1330.341309,382.599365L1332.142212,380.704895L1333.538696,378.495483L1334.477539,376.056030L1334.922119,373.480469L1334.855957,370.867493L1333.789062,362.274841L1332.650635,353.771057L1331.454834,345.477356L1330.201294,337.393433L1328.889771,329.518799L1327.520020,321.852966L1326.091431,314.394897L1324.603882,307.145203L1323.056641,300.102234L1321.449097,293.265503L1319.780762,286.634644L1318.050415,280.208252L1316.257935,273.987000L1314.401489,267.967834L1312.480469,262.151733L1310.493164,256.536621L1308.438721,251.122986L1306.314209,245.907654L1304.118042,240.891296L1301.848633,236.073486L1299.502197,231.452026L1297.076050,227.026917L1294.567139,222.798462L1291.971313,218.765930L1289.285034,214.930786L1286.502808,211.293091L1283.621216,207.856140L1280.634766,204.622314L1277.539429,201.596313L1274.332153,198.784180L1271.008789,196.192078L1267.569824,193.829407L1264.016235,191.705566L1260.348022,189.829163L1256.576904,188.212463L1252.705322,186.862549L1248.750732,185.788452L1244.721069,184.994324L1240.633423,184.482910L1236.498779,184.253540L1232.332764,184.302856L1228.142456,184.625366L1223.939209,185.213745L1219.725586,186.060974L1215.508545,187.158081L1211.286621,188.498474L1207.061768,190.074219L1202.831055,191.879944L1198.592651,193.910034L1194.343140,196.160706L1190.080322,198.627930L1185.799683,201.309753L1181.498291,204.204224L1177.173828,207.309143L1172.822632,210.623718L1168.441772,214.147522L1164.028809,217.880066L1159.581665,221.821045L1155.098389,225.970337L1150.576904,230.328186L1146.015381,234.894531L1141.412476,239.669922L1146.523438,253.742249L1146.523438,253.742249L1146.523193,253.742432L1146.523193,253.742432L1146.523193,253.742432L1137.095093,244.314636L1146.523071,253.742737L1146.523071,253.742737L1146.523071,253.742920L1146.523071,253.742920L1139.126953,242.649048L1136.650635,244.781128L1134.767334,247.451538L1133.589966,250.499878L1133.189697,253.742920L1134.204590,248.640625L1146.522827,253.743225L1146.522827,253.743225L1133.189575,253.743347L1146.522827,253.743347L1146.522827,253.743347L1141.966064,241.212891L1139.069336,242.687805L1136.615601,244.819946L1134.750854,247.482422L1133.585571,250.517090L1133.189453,253.743469L1137.094604,244.315369L1146.522461,240.410156L1143.555664,240.744507L1140.737427,241.730530L1138.209351,243.319031L1136.098145,245.430359L1134.509521,247.958374L1133.523560,250.776550L1133.189209,253.743469L1146.522461,253.743652L1146.522461,253.743652L1146.522583,253.743713L1146.522583,253.743713L1146.522461,253.743896L1146.522461,253.743896L1146.522461,240.410522L1143.555420,240.744873L1140.737305,241.730957L1138.209229,243.319458L1136.098022,245.430725L1134.509521,247.958801L1133.523315,250.776917L1133.189087,253.743896L1146.522461,253.744019L1146.522461,253.744019L1133.189087,253.744080L1137.094360,244.316162L1146.522339,240.410889L1143.555298,240.745117L1140.737305,241.731323L1138.209106,243.319824L1136.097900,245.430969L1134.509399,247.959106L1133.523193,250.777283L1133.188965,253.744202L1133.188965,253.744202L1133.463989,256.438171L1134.277588,259.020996L1135.596191,261.386169L1137.365601,263.436096L1139.512573,265.086243L1141.948730,266.268616L1144.573486,266.934387L1147.278564,267.056152L1149.952759,266.628784L1152.485107,265.669983L1152.485352,265.669922L1154.792114,264.203186L1156.751221,262.296814L1158.280518,260.031067L1159.315552,257.500916L1159.812744,254.812988L1159.751465,252.080078L1159.134033,249.417114L1157.986572,246.936035L1156.357178,244.741150L1154.314209,242.924561L1151.943970,241.562927L1149.345825,240.713196L1146.628906,240.411316L1143.907593,240.669861L1143.907227,240.669861L1141.235596,241.503784L1138.796875,242.877014L1136.698364,244.729187L1135.032959,246.978516L1133.873657,249.526001L1133.271851,252.259277L1133.253662,255.058105L1133.820312,257.799011L1134.946655,260.361206L1136.582886,262.631836L1138.657349,264.510864L1141.078003,265.915527L1143.738770,266.783875L1146.522217,267.077576L1134.722046,259.951599L1135.535034,246.190735L1134.238647,248.558838L1133.445679,251.139526L1133.189087,253.827026L1133.479004,256.511108L1134.303711,259.081787L1135.629272,261.433594L1137.401489,263.470215L1139.547485,265.108154L1141.979614,266.280090L1144.597900,266.938232L1147.295044,267.055420L1149.960449,266.626831L1152.484985,265.670166L1139.512573,265.086365L1146.522339,253.744507L1146.522339,253.744507L1146.521973,240.411194L1143.920898,240.667419L1141.419678,241.426025L1139.114380,242.658142L1137.093872,244.316406L1135.435791,246.336853L1134.203735,248.642029L1133.444946,251.143311L1133.188721,253.744507L1133.444946,256.345703L1134.203735,258.846985L1135.435791,261.152100L1137.093872,263.172607L1139.114380,264.830750L1141.419678,266.062927L1143.920898,266.821594L1146.521973,267.077820L1133.635742,257.166687L1139.906860,242.168030L1137.666870,243.776550L1135.805664,245.811401L1134.402832,248.185608L1133.518555,250.797607L1133.190308,253.535706L1133.432373,256.282715L1134.234619,258.921204L1135.562378,261.338196L1137.358887,263.430481L1139.547363,265.108276L1142.034180,266.300049L1144.713135,266.954773L1147.469360,267.044312L1150.185059,266.564941L1150.185303,266.564880L1152.615967,265.603943L1154.812500,264.187256L1156.690430,262.369263L1158.177856,260.219788L1159.217041,257.821533L1159.768555,255.266541L1159.810913,252.653137L1159.342773,250.081665L1158.381714,247.650879L1156.964966,245.454285L1155.147095,243.576416L1152.997559,242.089172L1150.599365,241.049927L1148.044312,240.498413L1145.430908,240.455933L1142.859497,240.924194L1142.859131,240.924316L1140.331665,241.935486L1138.062256,243.438904L1136.145508,245.371765L1134.661255,247.653748L1133.671387,250.189575L1133.217163,252.873657L1133.317505,255.593933L1133.968384,258.237183L1135.142456,260.693237L1136.790771,262.859619L1138.844971,264.646118L1141.218994,265.978027L1143.814087,266.800110L1146.521973,267.078003L1134.342163,259.169250L1136.611328,244.825195L1135.061768,246.930115L1133.952393,249.296814L1133.326294,251.834534L1133.207153,254.445496L1133.599854,257.029724L1134.488892,259.487610L1135.840454,261.724854L1137.602417,263.655334L1139.707397,265.205078L1142.074097,266.314331L1144.611694,266.940613L1147.222900,267.059692L1149.807007,266.667175L1152.264893,265.777954L1154.502075,264.426453L1156.432495,262.664307L1156.432739,262.664185L1158.070557,260.408997L1159.203613,257.862549L1159.782715,255.136230L1159.782227,252.348999L1159.202393,249.622803L1158.068481,247.076721L1156.430054,244.822144L1154.358643,242.957275L1151.944946,241.563843L1149.294067,240.702637L1146.522217,240.411316L1146.521973,240.411316L1143.920898,240.667480L1141.419678,241.426208L1139.114380,242.658386L1137.093872,244.316589L1135.435791,246.337036L1134.203735,248.642151L1133.444946,251.143433L1133.188721,253.744629L1133.444946,256.345764L1134.203735,258.847107L1135.435791,261.152283L1137.093872,263.172729L1139.114380,264.830933L1141.419678,266.063049L1143.920898,266.821777L1146.521973,267.078003L1137.094116,263.172729L1146.522217,253.744751L1146.522217,253.744751L1146.522217,253.744751L1146.522217,253.744751L1146.521973,253.744751L1146.521973,253.744751L1137.093994,244.316711L1155.949951,244.316711L1159.855225,253.744751L1159.598999,251.143616L1158.840210,248.642273L1157.608032,246.337158L1155.949951,244.316711L1153.929443,242.658569L1151.624268,241.426331L1149.123169,240.667603L1146.521851,240.411438L1143.920776,240.667603L1141.419434,241.426331L1139.114258,242.658569L1137.093750,244.316711L1135.435669,246.337219L1134.203613,248.642273L1133.444824,251.143616L1133.188599,253.744751L1146.521851,253.744873L1146.521851,253.744873L1146.521851,253.744873L1146.521851,253.744873z" fill="#2E2662" stroke="none" fill-opacity="1" />
			</g>
			<g id="layer.nogaBody.uuid_0x2">
				<polyline points="800.885315,287.242798 800.885315,287.242798 800.885315,287.242676 800.885376,287.242798 800.885315,287.242798 800.885315,287.242798 800.885315,287.242676 800.885315,287.242676 800.885376,287.242676 800.885376,287.242676 800.885193,287.242676 800.885315,287.242676 800.885315,287.242676 800.885315,287.242676 800.885193,287.242676 800.885193,287.242554 800.885315,287.242554 800.885132,287.242554 800.885193,287.242554 800.885132,287.242554 800.885193,287.242493 800.885193,287.242493 800.885193,287.242371 800.885071,287.242493 800.885193,287.242371 800.885132,287.242493 800.885132,287.242371 800.885071,287.242493 800.885193,287.242371 800.885071,287.242371 800.885193,287.242371 800.885071,287.242371 800.885071,287.242249 800.885071,287.242004 800.885071,287.242004 800.884949,287.242004 800.884949,287.242004 800.884949,287.242004 800.884888,287.242004 800.884888,287.241943 800.884888,287.241943 800.884888,287.241882 800.884888,287.241699 800.884766,287.241699 800.884888,287.241638 800.884644,287.241638 800.884644,287.241577 800.884644,287.241577 800.884644,287.241455 800.884644,287.241333 800.884644,287.241333 800.884583,287.241333 800.884583,287.241272 800.884583,287.241150 800.884460,287.241150 800.884399,287.241089 800.884399,287.241028 800.884399,287.241028 800.884399,287.240906 800.884460,287.240723 800.884460,287.240723 800.884216,287.240723 800.884216,287.240723 800.884216,287.240540 804.193115,281.285828 807.545532,275.505920 810.941956,269.901001 814.381897,264.471130 817.865784,259.215881 821.393188,254.135864 824.964478,249.230835 828.579468,244.500488 832.238037,239.945374 835.940552,235.564880 839.686768,231.359375 843.476624,227.329102 847.310242,223.473450 851.187622,219.792908 855.108765,216.287415 859.073669,212.956482 863.082031,209.800903 867.134460,206.819946 871.230408,204.013977 875.370361,201.383118 879.553772,198.927246 883.781067,196.645874 888.051941,194.539795 892.366821,192.608643 896.725098,190.852295 901.127380,189.270935 905.573303,187.864685 910.063049,186.632996 914.596313,185.576599 919.173523,184.694824 923.794250,183.988403 928.458923,183.456543 933.167175,183.099731 937.919373,182.917969 942.715210,182.911011 947.554688,183.079163 952.437866,183.421997 957.365051,183.939941 962.335754,184.632751 967.350098,185.500488 972.408264,186.543152 977.510254,187.760864 982.655945,189.153625 987.845276,190.721069 993.078552,192.463562 998.355408,194.380859 1003.675964,196.473389 1009.040466,198.740601 1014.448364,201.182678 1019.900208,203.799927 1025.395752,206.592102 1030.935181,209.559021 1036.518066,212.700989 1042.144775,216.017822 1047.815430,219.509705 1053.529663,223.176514 1059.287598,227.018250 1065.089233,231.034912 1070.934570,235.226440 1076.823853,239.593018 1082.756714,244.134460 1088.733276,248.850891 1094.753784,253.742188 1103.832520,254.863037 1112.748413,256.099304 1121.501831,257.450317 1130.092529,258.916443 1138.520264,260.498047 1146.785767,262.194336 1154.888428,264.005798 1162.828491,265.932373 1170.605957,267.974121 1178.220825,270.130859 1185.672607,272.402954 1192.962158,274.789795 1200.088745,277.291931 1207.052856,279.908936 1213.854370,282.641235 1220.493164,285.488586 1226.969238,288.451111 1233.282593,291.528442 1239.432983,294.721191 1245.421509,298.028870 1251.246826,301.451782 1256.909668,304.989441 1262.409790,308.642639 1267.747314,312.410522 1272.922119,316.293762 1277.934326,320.291931 1282.783569,324.405273 1287.470825,328.633667 1291.994629,332.977234 1296.356445,337.435791 1300.555054,342.009583 1304.591431,346.698425 1308.464844,351.502136 1312.175781,356.421082 1315.723999,361.455261 1319.109497,366.604431 1322.332397,371.868652 1325.392700,377.248047 1328.290283,382.742310 1331.025146,388.351990 1333.597534,394.076538 1336.007202,399.916260 1338.254028,405.870972 1340.338135,411.940979 1342.260010,418.125916 1344.018799,424.425964 1345.615234,430.841003 1347.048706,437.371277 1348.319946,444.016663 1349.428345,450.777161 1350.373657,457.652649 1351.156738,464.643188 1351.776978,471.748840 1352.234619,478.969727 1352.529907,486.305542 1352.662231,493.756531 1352.631836,501.322510 1352.439087,509.003723 1352.083252,516.800049 1351.565063,524.711426 1350.884033,532.737793 1350.040527,540.879333 1349.034180,549.135925 1351.168335,560.138855 1353.075684,570.960693 1354.755249,581.601562 1356.208130,592.061401 1357.433960,602.340088 1358.432495,612.437744 1359.204102,622.354248 1359.748291,632.089661 1360.065552,641.644104 1360.155884,651.017456 1360.018677,660.209717 1359.654541,669.220825 1359.063599,678.051025 1358.245239,686.699951 1357.199707,695.167969 1355.927368,703.454834 1354.427612,711.560669 1352.701050,719.485352 1350.746948,727.229004 1348.566162,734.791565 1346.157959,742.173096 1343.523071,749.373474 1340.660522,756.392944 1337.571289,763.231201 1334.254639,769.888428 1330.711182,776.364502 1326.940308,782.659607 1322.942627,788.773560 1318.717407,794.706543 1314.265503,800.458252 1309.586182,806.029175 1304.679932,811.418823 1299.546631,816.627441 1294.186157,821.654907 1288.598633,826.501404 1282.783936,831.166870 1276.741943,835.651123 1270.473145,839.954346 1263.976929,844.076538 1257.253662,848.017639 1250.303589,851.777649 1243.126221,855.356628 1235.721924,858.754456 1228.090088,861.971313 1220.231201,865.006958 1212.145630,867.861633 1203.832520,870.535217 1195.292603,873.027710 1186.525269,875.339172 1177.531128,877.469482 1168.309814,879.418823 1158.861328,881.187012 1149.185547,882.774231 1139.282959,884.180237 1129.153320,885.405151 1118.796265,886.449097 1108.212158,887.311951 1097.401123,887.993774 1086.362915,888.494385 1075.097412,888.813965 1063.604980,888.952576 1051.885254,888.910034 1039.938721,888.686401 1034.602295,890.701721 1029.275879,892.638672 1023.959717,894.497437 1018.653381,896.277832 1013.356812,897.980103 1008.070496,899.604065 1002.793823,901.149780 997.527588,902.617188 992.270813,904.006348 987.024292,905.317200 981.787659,906.549927 976.561096,907.704285 971.344604,908.780396 966.137634,909.778198 960.941101,910.697815 955.754456,911.539062 950.577515,912.302185 945.410950,912.987000 940.253967,913.593506 935.107300,914.121826 929.970276,914.571777 924.843567,914.943542 919.726562,915.237122 914.619812,915.452271 909.522705,915.589294 904.435852,915.647949 899.358704,915.628479 894.291809,915.530579 889.234680,915.354492 884.187683,915.100037 879.150513,914.767578 874.123413,914.356628 869.106201,913.867493 864.099121,913.300171 859.101929,912.654419 854.114624,911.930542 849.137329,911.128296 844.170166,910.247925 839.212646,909.289185 834.265381,908.252258 829.328003,907.136963 824.400635,905.943420 819.483154,904.671692 814.575745,903.321655 809.678406,901.893433 804.790894,900.386841 799.913330,898.802002 795.045715,897.138977 790.188171,895.397583 785.340637,893.578003 780.502869,891.680176 775.675293,889.704102 770.857666,887.649658 766.049927,885.517090 761.252136,883.306152 756.464478,881.016968 751.686584,878.649597 746.918823,876.203857 742.161133,873.679932 737.413208,871.077637 732.675232,868.397156 727.947266,865.638489 723.229431,862.801514 714.325256,860.668396 705.642944,858.426453 697.182190,856.075562 688.943481,853.615784 680.926270,851.046875 673.131104,848.369141 665.557251,845.582397 658.205444,842.686768 651.075073,839.682129 644.166748,836.568604 637.479980,833.346069 631.015076,830.014526 624.771851,826.574158 618.750366,823.024780 612.950684,819.366333 607.372498,815.599121 602.016174,811.722900 596.881836,807.737671 591.968872,803.643616 587.277954,799.440430 582.808594,795.128418 578.561096,790.707275 574.535217,786.177368 570.731140,781.538452 567.148560,776.790649 563.788147,771.933838 560.649231,766.968140 557.732178,761.893311 555.036621,756.709717 552.562988,751.416992 550.310974,746.015442 548.280945,740.504944 546.472534,734.885376 544.885803,729.156921 543.520752,723.319580 542.377625,717.373169 541.456177,711.317871 540.756348,705.153687 540.278381,698.880493 540.022095,692.498291 539.987488,686.007202 540.174744,679.407104 540.583740,672.698120 541.214417,665.880127 542.066895,658.953247 543.141052,651.917236 544.436890,644.772461 545.954468,637.518738 547.693970,630.155945 549.655029,622.684326 551.837891,615.103760 554.242554,607.414062 556.868774,599.615479 559.716980,591.708008 562.786804,583.691528 566.078186,575.566162 569.591553,567.331787 573.326538,558.988525 577.283447,550.536316 581.461914,541.974976 585.862183,533.304749 590.484253,524.525696 595.327942,515.637634 593.810364,509.301514 592.447571,503.054504 591.239990,496.896362 590.187256,490.827332 589.289490,484.847229 588.546875,478.956177 587.959045,473.154053 587.526367,467.440918 587.248657,461.816895 587.125854,456.281860 587.158142,450.835754 587.345337,445.478821 587.687378,440.210693 588.184692,435.031677 588.836853,429.941589 589.643982,424.940552 590.606140,420.028625 591.723389,415.205444 592.995422,410.471558 594.422607,405.826477 596.004639,401.270447 597.741760,396.803406 599.633789,392.425476 601.681030,388.136475 603.882996,383.936462 606.240112,379.825439 608.752014,375.803467 611.419128,371.870422 614.241028,368.026428 617.218201,364.271362 620.349976,360.605591 623.637085,357.028381 627.078979,353.540466 630.676025,350.141663 634.428101,346.831604 638.334961,343.610657 642.396851,340.478638 646.613708,337.435730 650.985596,334.481750 655.512512,331.616760 660.194458,328.841003 665.031311,326.153992 670.023193,323.555969 675.169922,321.046936 680.471863,318.627014 685.928772,316.296143 691.540405,314.054260 697.307312,311.901367 703.229187,309.837463 709.305847,307.862549 715.537537,305.976624 721.924377,304.179688 728.466125,302.471863 735.162903,300.852966 742.014465,299.322998 749.021179,297.882019 756.183044,296.530334 763.499695,295.267273 770.971252,294.093506 778.597961,293.008484 786.379639,292.012756 794.316284,291.105957 802.407898,290.288025" fill="#B1DEED" stroke="none" fill-opacity="1" />
				<path d="M800.885315,287.242798L800.885315,287.242798L805.424316,299.779663L788.810852,281.587402L800.885315,287.242798L800.885315,287.242798L800.885315,287.242676L800.885315,287.242676L800.885376,287.242676L800.885376,287.242676L800.885193,273.909363L798.283997,274.165588L795.782776,274.924316L793.477539,276.156433L791.457092,277.814575L789.798950,279.835083L788.566833,282.140320L787.808044,284.641479L787.551819,287.242676L787.808044,289.843933L788.566833,292.345093L789.798950,294.650330L791.457092,296.670837L793.477539,298.328979L795.782776,299.561096L798.283997,300.319824L800.885193,300.576050L800.885315,287.242676L800.885315,287.242676L800.885315,287.242676L810.313232,277.814575L810.313232,296.670593L800.885315,300.575867L803.486511,300.319641L805.987793,299.560974L808.292908,298.328796L810.313477,296.670593L811.971619,294.650146L813.203735,292.345032L813.962463,289.843750L814.218689,287.242554L813.962463,284.641357L813.203735,282.140076L811.971619,279.834961L810.313477,277.814392L808.292908,276.156311L805.987793,274.924133L803.486511,274.165344L800.885315,273.909241L800.885132,273.909241L798.283936,274.165344L795.782715,274.924133L793.477539,276.156311L791.457031,277.814392L789.798889,279.834961L788.566772,282.140076L787.807983,284.641357L787.551758,287.242554L787.807983,289.843750L788.566772,292.345032L789.798889,294.650146L791.457031,296.670593L793.477539,298.328796L795.782715,299.560974L798.283936,300.319641L800.885132,300.575867L800.885193,300.575867L803.486389,300.319641L805.987671,299.560974L808.292786,298.328796L810.313293,296.670593L811.971497,294.650146L813.203613,292.345032L813.962341,289.843750L814.218567,287.242554L813.962341,284.641357L813.203613,282.140076L811.971497,279.834961L810.313293,277.814392L808.292786,276.156311L805.987671,274.924133L803.486389,274.165344L800.885193,273.909241L812.640808,280.951111L800.885193,287.242493L800.885193,287.242493L814.218506,287.242371L813.922424,284.448303L813.047485,281.778320L811.632324,279.350952L809.740112,277.273987L807.454529,275.639709L804.877258,274.520691L802.122681,273.966553L799.313232,274.002014L796.573486,274.625427L794.025208,275.809143L794.025146,275.809265L791.926453,277.367249L790.172058,279.304688L788.829285,281.547302L787.949829,284.008606L787.567505,286.594299L787.696899,289.204895L788.333252,291.740051L789.451843,294.102356L791.009827,296.201111L792.947327,297.955505L795.189819,299.298279L797.651245,300.177673L800.236877,300.560059L802.847534,300.430603L805.382690,299.794312L807.744995,298.675720L791.235535,296.443481L804.748962,274.481201L814.218506,287.242371L813.952454,284.592285L813.165039,282.047913L811.887573,279.710815L810.171082,277.674194L808.084167,276.019409L805.709839,274.812500L803.143066,274.101562L800.486206,273.914917L797.845215,274.260132L795.325623,275.123352L793.027771,276.470154L791.043518,278.246765L789.451904,280.382385L789.451843,280.382507L788.286438,282.877563L787.658508,285.558716L787.594727,288.311829L788.097778,291.019165L789.146362,293.565491L790.695679,295.842041L792.679565,297.751892L795.013489,299.213318L797.597839,300.164246L800.322571,300.563904L803.071106,300.395386L805.726440,299.665771L808.175293,298.406311L810.313110,296.670532L810.313232,296.670410L812.075256,294.492188L813.343201,291.993774L814.061096,289.285583L814.197144,286.487244L813.745483,283.722168L812.725952,281.112549L811.183655,278.773621L809.186707,276.808533L806.823120,275.304199L804.197388,274.326965L801.425415,273.919922L798.629517,274.101196L795.933350,274.862671L795.933228,274.862671L793.613159,276.066650L791.572571,277.700012L789.889954,279.700134L788.629822,281.990051L787.840637,284.481934L787.552673,287.079773L787.777161,289.683960L788.505371,292.194214L789.709351,294.514282L791.342773,296.554810L793.342834,298.237488L795.632751,299.497620L798.124634,300.286804L800.722534,300.574707L803.326660,300.350220L805.836975,299.622070L805.837097,299.622070L808.335449,298.299927L810.498901,296.481018L812.230408,294.246887L813.452087,291.697937L814.108826,288.948730L814.171448,286.122864L813.636902,283.347290L812.529358,280.746826L810.898438,278.438171L808.817627,276.525269L806.380127,275.093994L803.695801,274.208618L800.885193,273.908936L810.313110,277.814209L814.218445,287.242249L800.885071,287.242004L800.885071,287.242004L810.312988,277.813965L800.884949,287.242004L800.884949,287.242004L810.312927,277.813965L800.884888,287.241943L800.884888,287.241943L814.218201,287.241882L814.218201,287.241699L813.883850,284.274780L812.897766,281.456543L811.309265,278.928467L809.198059,276.817261L806.669983,275.228821L803.851868,274.242676L800.884888,273.908386L812.959290,281.586304L811.127808,295.777466L812.656921,293.502319L813.688477,290.962585L814.178772,288.265442L814.107239,285.525208L813.476746,282.857422L812.314087,280.374939L810.668213,278.182739L808.608887,276.373474L806.223083,275.023621L803.611572,274.190125L800.884888,273.908325L810.312744,277.813538L800.884644,287.241577L800.884644,287.241577L814.217957,287.241455L800.884644,287.241333L800.884644,287.241333L810.312683,277.813171L814.217896,287.241272L814.217896,287.241150L813.883667,284.274292L812.897522,281.456055L811.309021,278.927979L809.197815,276.816772L806.669678,275.228271L803.851562,274.242188L800.884583,273.907837L806.539917,275.166687L813.421326,282.702148L800.884399,287.241028L800.884399,287.241028L814.206238,287.794983L800.884460,287.240723L800.884460,287.240723L800.884216,287.240723L800.884216,287.240723L813.791077,290.585693L815.787842,287.869141L819.014465,282.306091L822.275696,276.924133L825.570801,271.722839L828.898926,266.702271L832.259277,261.862793L835.651672,257.203308L839.074829,252.723816L842.528137,248.424316L846.010986,244.303589L849.522400,240.361572L853.061768,236.597473L856.628479,233.010193L860.221619,229.599182L863.841309,226.363098L867.486755,223.300476L871.157288,220.410767L874.853516,217.691650L878.574890,215.142212L882.322205,212.760681L886.095947,210.545166L889.896729,208.494019L893.724976,206.606079L897.582886,204.879333L901.471680,203.312195L905.392578,201.903625L909.348267,200.652405L913.340332,199.557190L917.370911,198.618042L921.442566,197.833679L925.557312,197.204651L929.718201,196.730347L933.926025,196.411438L938.183777,196.248657L942.493286,196.242554L946.856262,196.394165L951.273743,196.704468L955.747559,197.174744L960.278320,197.806396L964.867004,198.600586L969.514343,199.558716L974.220642,200.681946L978.986206,201.971985L983.811218,203.429504L988.695251,205.055786L993.638245,206.851990L998.640320,208.819214L1003.700928,210.958069L1008.819092,213.269470L1013.994812,215.754089L1019.227966,218.413086L1024.517456,221.246277L1029.862671,224.254456L1035.263428,227.438110L1040.719116,230.797668L1046.228760,234.333374L1051.792480,238.045532L1057.409180,241.934204L1063.078857,245.999756L1068.800781,250.242371L1074.574463,254.661987L1080.399292,259.258728L1086.346069,264.090576L1089.530029,266.009644L1093.120117,266.974976L1102.100098,268.083313L1110.815674,269.291748L1119.363159,270.611023L1127.741211,272.040894L1135.950439,273.581299L1143.990845,275.231384L1151.861816,276.991150L1159.563599,278.859741L1167.096313,280.837280L1174.459595,282.922668L1181.653564,285.116150L1188.678833,287.416443L1195.535034,289.823486L1202.222412,292.336548L1208.741089,294.955139L1215.091675,297.678772L1221.274414,300.507141L1227.289673,303.439087L1233.137695,306.474731L1238.820312,309.613464L1244.336792,312.854675L1249.688232,316.197815L1254.875732,319.643372L1259.900391,323.190247L1264.762573,326.838806L1269.463745,330.588745L1274.004395,334.440491L1278.386963,338.393921L1282.610962,342.449280L1286.678589,346.607300L1290.590332,350.868347L1294.347900,355.233521L1297.951660,359.702881L1301.403076,364.277893L1304.702881,368.959534L1307.852051,373.748962L1310.850586,378.646851L1313.699707,383.655151L1316.399658,388.774597L1318.950439,394.006714L1321.352539,399.352478L1323.605713,404.813171L1325.709717,410.390076L1327.665161,416.084656L1329.471069,421.897095L1331.127075,427.828735L1332.632812,433.880615L1333.988037,440.053528L1335.191895,446.347900L1336.243774,452.764099L1337.142944,459.303162L1337.889160,465.965210L1338.481323,472.750427L1338.919312,479.659424L1339.202026,486.692017L1339.329224,493.848328L1339.300049,501.128479L1339.114014,508.532471L1338.770508,516.060303L1338.269287,523.711914L1337.609497,531.487000L1336.791016,539.385681L1335.798828,547.522705L1338.057617,562.565430L1339.924561,573.157410L1341.566284,583.558289L1342.984375,593.768127L1344.179199,603.785767L1345.151001,613.610962L1345.900391,623.243408L1346.428223,632.682983L1346.735229,641.929565L1346.822510,650.982239L1346.690552,659.841064L1346.340454,668.506409L1345.773560,676.977661L1344.990479,685.254883L1343.992432,693.339111L1342.781006,701.229919L1341.356812,708.928345L1339.721436,716.434509L1337.875488,723.750183L1335.820801,730.876221L1333.557617,737.813599L1331.087036,744.564331L1328.409912,751.130005L1325.526367,757.512573L1322.436890,763.714478L1319.141357,769.737244L1315.639282,775.583984L1311.930298,781.256470L1308.013062,786.757080L1303.886719,792.088196L1299.549316,797.251831L1294.999878,802.249634L1290.235962,807.083313L1285.255615,811.754272L1280.056641,816.263550L1274.637085,820.611816L1268.994385,824.799683L1263.126953,828.827209L1257.032593,832.694397L1250.709106,836.400940L1244.155518,839.946411L1237.369995,843.329834L1230.351196,846.550598L1223.097900,849.607788L1215.609131,852.500427L1207.884644,855.227478L1199.923218,857.787842L1191.724854,860.180603L1183.288940,862.404602L1174.615479,864.458862L1165.704468,866.342529L1156.555664,868.054565L1147.169067,869.594238L1137.545288,870.960632L1127.684326,872.153015L1117.585938,873.170776L1107.250854,874.013306L1096.679443,874.679993L1085.871826,875.170105L1074.828003,875.483337L1063.548950,875.619324L1052.034302,875.577576L1040.188232,875.355347L1035.228027,876.212891L1029.968506,878.199463L1024.797119,880.080017L1019.638550,881.883667L1014.492615,883.610291L1009.359192,885.260193L1004.238586,886.833252L999.130249,888.329590L994.034668,889.749451L988.951416,891.092712L983.880432,892.359741L978.822144,893.550537L973.776367,894.664978L968.742981,895.703308L963.721252,896.665649L958.711975,897.552124L953.714905,898.362671L948.729309,899.097534L943.756226,899.756714L938.794556,900.340332L933.844788,900.848389L928.906311,901.280945L923.979553,901.638184L919.064026,901.920288L914.160034,902.126892L909.266724,902.258362L904.384583,902.314636L899.513000,902.296021L894.652466,902.202087L889.802307,902.033325L884.962463,901.789246L880.132812,901.470459L875.313477,901.076477L870.503662,900.607605L865.704102,900.063782L860.913879,899.444824L856.133057,898.750854L851.361816,897.981812L846.599609,897.137756L841.846191,896.218506L837.101868,895.224060L832.366455,894.154419L827.639465,893.009399L822.920776,891.789062L818.210632,890.493347L813.508850,889.122131L808.814880,887.675232L804.129028,886.152649L799.450989,884.554443L794.780884,882.880188L790.118286,881.130005L785.463196,879.303833L780.815979,877.401611L776.176086,875.422974L771.543396,873.367981L766.918274,871.236694L762.300232,869.028564L757.689392,866.743896L753.085999,864.382568L748.489624,861.944214L743.900269,859.428833L739.317993,856.836365L734.742798,854.166748L730.100464,851.374878L717.545227,847.729675L709.094666,845.547668L700.874390,843.263611L692.885132,840.878357L685.126587,838.392456L677.599243,835.806763L670.302734,833.122192L663.237671,830.339539L656.403564,827.459839L649.800781,824.484070L643.428650,821.413330L637.287170,818.248535L631.375488,814.990967L625.693237,811.641663L620.239441,808.201660L615.013000,804.672119L610.013428,801.054199L605.238647,797.348206L600.687012,793.555298L596.357117,789.675903L592.246643,785.710205L588.353577,781.658203L584.675354,777.519775L581.210022,773.294067L577.954895,768.980286L574.908142,764.576904L572.066772,760.082031L569.429321,755.493774L566.993591,750.809937L564.758728,746.027710L562.722717,741.144348L560.885437,736.157104L559.246094,731.062744L557.804749,725.858765L556.561768,720.542419L555.517639,715.111145L554.673401,709.562561L554.030090,703.895020L553.589294,698.106445L553.351929,692.195312L553.320007,686.160889L553.494873,680.001892L553.878052,673.717896L554.470947,667.308716L555.275391,660.773987L556.292358,654.113403L557.523071,647.327637L558.969055,640.416992L560.631287,633.381470L562.510681,626.221680L564.607910,618.938354L566.924072,611.531738L569.459717,604.002686L572.215698,596.351562L575.192200,588.578857L578.389709,580.685608L581.808655,572.672241L585.449585,564.539307L589.312805,556.287109L593.398376,547.916321L597.706360,539.427795L602.237427,530.821838L607.035645,522.017883L608.545410,517.391785L608.294556,512.531982L606.807861,506.327637L605.503906,500.350586L604.351440,494.473938L603.349487,488.697998L602.497437,483.023499L601.794922,477.450317L601.240540,471.978638L600.833740,466.608582L600.573486,461.340088L600.458679,456.173462L600.488647,451.108215L600.662048,446.143799L600.977783,441.279968L601.435059,436.516235L602.032715,431.851196L602.769592,427.284607L603.645020,422.815002L604.658325,418.440491L605.808472,414.160034L607.095093,409.971985L608.517944,405.874390L610.076843,401.865295L611.772034,397.942810L613.603943,394.104736L615.572876,390.349243L617.680115,386.674133L619.926086,383.077942L622.312744,379.558533L624.840881,376.114746L627.512634,372.744995L630.329285,369.448242L633.292725,366.223389L636.404358,363.070251L639.666443,359.988037L643.080505,356.976257L646.647705,354.035400L650.369751,351.165588L654.248047,348.367065L658.283936,345.640198L662.478333,342.985840L666.832458,340.404480L671.347168,337.896606L676.022766,335.463257L680.859924,333.105286L685.859192,330.823486L691.021179,328.618591L696.345642,326.491577L701.833252,324.442993L707.483948,322.473694L713.297668,320.584290L719.274353,318.775635L725.414124,317.048218L731.716736,315.402832L738.182373,313.839966L744.810364,312.359924L751.600708,310.963501L758.553650,309.651184L765.668457,308.423096L772.944885,307.280029L780.383179,306.221741L787.982605,305.249329L795.743591,304.362671L803.748840,303.553772L806.311096,303.037231L808.723328,302.030823L810.892883,300.573120L812.736389,298.720154L814.182922,296.543152L815.177063,294.125732L815.680298,291.560852L815.673645,288.947083L815.157104,286.384827L814.150757,283.972595L812.692993,281.802979L810.840088,279.959473L808.662964,278.513000L806.245667,277.518921L803.680786,277.015625L801.067017,277.022278L792.975403,277.840149L784.866211,278.765503L776.905518,279.783020L769.093262,280.893127L761.430420,282.095520L753.915039,283.391296L746.548218,284.780029L739.328613,286.263000L732.257141,287.840149L725.333130,289.511780L718.556335,291.278687L711.926392,293.141663L705.443787,295.100830L699.108032,297.157043L692.919312,299.310730L686.877136,301.562988L680.982178,303.914307L675.234253,306.365479L669.633728,308.917358L664.180481,311.570984L658.875732,314.326538L653.719482,317.185425L648.712830,320.147644L643.855347,323.215027L639.148865,326.387878L634.594666,329.666443L630.193298,333.051697L625.946411,336.543823L621.855347,340.143066L617.921631,343.849182L614.146729,347.663025L610.532349,351.583923L607.080811,355.610535L603.793030,359.742859L600.671082,363.980042L597.716675,368.320251L594.931152,372.762329L592.316101,377.304443L589.872192,381.945068L587.600891,386.682190L585.502625,391.513733L583.577820,396.438049L581.827026,401.452576L580.250000,406.555786L578.846863,411.745544L577.616760,417.019592L576.559326,422.377502L575.673889,427.817139L574.959412,433.337219L574.415161,438.936340L574.039978,444.614807L573.832825,450.369995L573.792725,456.202820L573.918579,462.112732L574.209229,468.098694L574.663818,474.161011L575.281311,480.299927L576.060913,486.514893L577.001709,492.806885L578.102722,499.174988L579.363586,505.620361L580.783325,512.143188L582.110474,513.883545L578.776611,518.145508L574.064148,527.093140L569.572205,535.940857L565.301147,544.687988L561.250977,553.335449L557.422058,561.883789L553.814514,570.333740L550.428833,578.685547L547.265381,586.939819L544.324341,595.097168L541.606567,603.158569L539.112305,611.124329L536.842346,618.994934L534.797546,626.770996L532.978394,634.453125L531.386169,642.041992L530.021790,649.537903L528.886292,656.940857L527.980835,664.251526L527.307007,671.470032L526.866211,678.595947L526.659607,685.629028L526.688904,692.569214L526.955811,699.415588L527.461548,706.166504L528.207886,712.822021L529.195984,719.379089L530.427246,725.836914L531.902710,732.192871L533.622986,738.444580L535.588623,744.589478L537.799805,750.624695L540.256409,756.547852L542.957397,762.354980L545.902649,768.044800L549.089600,773.612793L552.517761,779.058105L556.184021,784.377136L560.087769,789.569580L564.225098,794.631958L568.594910,799.564697L573.193542,804.365845L578.020203,809.035950L583.071167,813.573853L588.346130,817.980713L593.840698,822.255676L599.555786,826.400757L605.488342,830.415833L611.636963,834.301941L618.001221,838.060486L624.580078,841.692200L631.372253,845.198242L638.378174,848.579834L645.596497,851.837891L653.027893,854.973755L660.670959,857.988159L668.527039,860.882324L676.594543,863.656982L684.874939,866.313171L693.367737,868.851624L702.073364,871.273071L710.991638,873.578308L718.181702,875.142395L721.076294,877.065002L725.955627,879.913391L730.847717,882.682495L735.752686,885.372192L740.670349,887.982483L745.601135,890.513123L750.544739,892.964111L755.500549,895.335205L760.469727,897.626526L765.451294,899.837708L770.445129,901.968811L775.451965,904.019775L780.471375,905.990417L785.502563,907.880493L790.546326,909.690186L795.602600,911.419312L800.670593,913.067627L805.750732,914.635132L810.842773,916.121765L815.946716,917.527466L821.062256,918.852051L826.189148,920.095581L831.327759,921.257935L836.477478,922.338867L841.638428,923.338684L846.810303,924.257080L851.992981,925.093994L857.186768,925.849487L862.390442,926.523560L867.605042,927.116028L872.829651,927.627075L878.064209,928.056519L883.309387,928.404419L888.563354,928.670898L893.827881,928.855835L899.101135,928.959290L904.384827,928.981140L909.676392,928.921692L914.978027,928.780823L920.287842,928.558594L925.607300,928.255005L930.934570,927.870239L936.270874,927.404236L941.615417,926.857178L946.968445,926.229065L952.329468,925.519897L957.698792,924.729858L963.075806,923.859131L968.461182,922.907532L973.854126,921.875427L979.254883,920.762695L984.663330,919.569458L990.079468,918.295776L995.502869,916.941956L1000.934021,915.507996L1006.372803,913.993713L1011.818604,912.399780L1017.272156,910.725647L1022.733093,908.971680L1028.201050,907.138123L1033.676514,905.224915L1039.158936,903.232239L1042.210083,901.824829L1051.635742,902.241089L1063.556641,902.285767L1075.258057,902.146362L1086.740967,901.822388L1098.005127,901.313416L1109.051392,900.618896L1119.879639,899.738342L1130.490479,898.671265L1140.883545,897.417175L1151.059937,895.975159L1161.019653,894.344482L1170.762329,892.524658L1180.288818,890.514587L1189.598389,888.313599L1198.691650,885.920532L1207.568359,883.334534L1216.227783,880.554688L1224.670166,877.579773L1232.894409,874.408997L1240.900635,871.040955L1248.687256,867.474854L1256.253418,863.709839L1263.598145,859.744751L1270.719604,855.579346L1277.616943,851.212280L1284.287842,846.643738L1290.730225,841.873474L1296.942627,836.901062L1302.922485,831.727356L1308.667847,826.352783L1314.176514,820.778076L1319.446167,815.004517L1324.474976,809.034058L1329.261353,802.867676L1333.803345,796.507935L1338.099731,789.956299L1342.149292,783.216248L1345.951538,776.288574L1349.505615,769.176697L1352.811401,761.882446L1355.869141,754.408020L1358.679199,746.755432L1361.241943,738.927002L1363.558350,730.923218L1365.629150,722.747803L1367.455322,714.399109L1369.038086,705.880432L1370.378540,697.191528L1371.478027,688.333740L1372.337646,679.307068L1372.958130,670.111206L1373.341064,660.748047L1373.487671,651.216309L1373.398315,641.515625L1373.074219,631.647217L1372.516602,621.610107L1371.725708,611.403564L1370.702393,601.027832L1369.447632,590.482544L1367.961792,579.767273L1366.245850,568.881775L1364.299194,557.824646L1362.359253,548.667358L1363.275879,542.492493L1364.146362,534.111816L1364.850708,525.838684L1365.388184,517.671509L1365.758423,509.611572L1365.961060,501.657227L1365.995605,493.809937L1365.861084,486.068542L1365.557251,478.433838L1365.083740,470.905640L1364.439575,463.483704L1363.624268,456.168274L1362.637207,448.960693L1361.477417,441.859619L1360.144653,434.866333L1358.638306,427.982117L1356.957642,421.206360L1355.102417,414.540710L1353.071167,407.984558L1350.864502,401.540833L1348.482178,395.209412L1345.922852,388.990723L1343.187256,382.887085L1340.275146,376.899109L1337.186523,371.028259L1333.921631,365.275635L1330.480957,359.642395L1326.864868,354.130066L1323.073975,348.739624L1319.109009,343.472107L1314.970947,338.329102L1310.660034,333.310852L1306.178711,328.419067L1301.525757,323.653259L1296.705200,319.015747L1291.714600,314.505127L1286.559448,310.123962L1281.236450,305.870300L1275.750244,301.746033L1270.098999,297.749878L1264.287109,293.882935L1258.311157,290.143555L1252.176147,286.533020L1245.879517,283.049866L1239.425903,279.694641L1232.811035,276.465698L1226.039917,273.363770L1219.109863,270.387390L1212.023193,267.536621L1204.779053,264.810730L1197.379028,262.209290L1189.821655,259.731567L1182.109497,257.377197L1174.239380,255.145386L1166.214111,253.036011L1158.032104,251.048401L1149.694946,249.182251L1141.200928,247.436890L1132.551636,245.811890L1123.744995,244.307007L1114.782104,242.921997L1105.663696,241.656006L1099.977539,241.474731L1097.140869,238.502380L1091.016479,233.667603L1084.928223,229.005432L1078.875732,224.515930L1072.859131,220.199463L1066.877319,216.055786L1060.929565,212.085205L1055.016479,208.288147L1049.135986,204.664307L1043.288940,201.214783L1037.474487,197.939392L1031.691040,194.838562L1025.939819,191.912903L1020.218689,189.162659L1014.527893,186.588745L1008.866577,184.191833L1003.235229,181.972534L997.632080,179.931824L992.057556,178.070557L986.511414,176.389771L980.993774,174.890686L975.503479,173.574036L970.042053,172.441772L964.609314,171.494751L959.205627,170.734253L953.831665,170.161804L948.488770,169.778503L943.177917,169.585815L937.900146,169.584656L932.657532,169.776062L927.451294,170.161438L922.283936,170.740906L917.158386,171.514648L912.074158,172.484009L907.036926,173.647583L902.046021,175.006409L897.106262,176.558411L892.217407,178.304199L887.383423,180.241577L882.605042,182.369751L877.883911,184.687622L873.221619,187.193420L868.620178,189.884644L864.078918,192.760925L859.599182,195.820007L855.181396,199.060364L850.826050,202.480164L846.532410,206.078308L842.300964,209.852844L838.130798,213.803101L834.021545,217.927979L829.973389,222.225525L825.984497,226.696106L822.054932,231.338318L818.184021,236.151001L814.370483,241.134888L810.614197,246.287903L806.913757,251.611145L803.268738,257.104004L799.678711,262.765503L796.142456,268.596008L792.659485,274.596130L789.229431,280.764099L787.550903,287.240540L800.884216,287.240723L800.884216,287.240723L800.884460,287.240723L800.884460,287.240723L787.597107,286.133667L800.884399,287.241028L800.884399,287.241028L787.551086,287.241089L788.347412,291.780151L790.641479,295.776917L790.641541,295.776978L793.532532,298.364380L797.045959,300.010010L800.884460,300.574524L791.456482,296.669250L787.551270,287.241272L787.551270,287.241333L787.885559,290.208313L788.871643,293.026428L790.460205,295.554504L792.571350,297.665771L795.099487,299.254211L797.917664,300.240356L800.884583,300.574646L800.884644,287.241333L800.884644,287.241333L787.551331,287.241455L800.884644,287.241577L800.884644,287.241577L787.551331,287.241638L787.885620,290.208557L788.871704,293.026794L790.460266,295.554871L792.571411,297.666077L795.099548,299.254578L797.917725,300.240662L800.884644,300.575012L788.810303,292.897034L790.641846,278.705872L789.112732,280.981079L788.081177,283.520813L787.590881,286.217896L787.662476,288.958191L788.292908,291.625977L789.455627,294.108398L791.101379,296.300598L793.160767,298.109863L795.546631,299.459717L798.158081,300.293274L800.884766,300.575073L791.456787,296.669800L787.551575,287.241882L800.884888,287.241943L800.884888,287.241943L787.551575,287.242004L787.885864,290.208984L788.871887,293.027161L790.460449,295.555237L792.571716,297.666443L795.099731,299.254944L797.917908,300.241028L800.884888,300.575378L800.884949,287.242004L800.884949,287.242004L787.551636,287.242004L787.885864,290.208984L788.872070,293.027161L790.460510,295.555298L792.571777,297.666443L795.099792,299.254944L797.917969,300.241028L800.884949,300.575378L800.885071,287.242004L800.885071,287.242004L787.551697,287.242249L787.551697,287.242371L787.885986,290.209229L788.872192,293.027466L790.460632,295.555542L792.571899,297.666748L795.099915,299.255249L797.918152,300.241394L800.885071,300.575684L787.792419,289.763794L795.933228,274.862671L793.613159,276.066650L791.572571,277.700012L789.889954,279.700134L788.629822,281.990051L787.840637,284.481934L787.552673,287.079773L787.777161,289.683960L788.505371,292.194214L789.709351,294.514282L791.342773,296.554810L793.342834,298.237488L795.632751,299.497620L798.124634,300.286804L800.722534,300.574707L803.326660,300.350220L805.836975,299.622070L789.753967,294.582214L809.090637,276.733093L797.326111,300.091858L787.551819,287.242493L787.852600,290.058411L788.741272,292.747375L790.177795,295.187927L792.097351,297.270081L794.413391,298.899841L797.021362,300.003662L799.803650,300.531860L802.634644,300.460510L805.386902,299.792847L807.935974,298.559021L810.166870,296.814636L811.979126,294.638489L811.979187,294.638306L813.265564,292.192566L814.020081,289.534180L814.210388,286.777222L813.828308,284.040283L812.890259,281.440918L811.436462,279.090820L809.529480,277.090759L807.251099,275.526855L804.699341,274.466248L801.983643,273.954346L799.220764,274.013306L796.529480,274.640564L794.025208,275.809143L794.025146,275.809265L791.926453,277.367249L790.172058,279.304688L788.829285,281.547302L787.949829,284.008606L787.567505,286.594299L787.696899,289.204895L788.333252,291.740051L789.451843,294.102356L791.009827,296.201111L792.947327,297.955505L795.189819,299.298279L797.651245,300.177673L800.236877,300.560059L802.847534,300.430603L805.382690,299.794312L807.744995,298.675720L794.315857,298.845032L800.885193,287.242493L800.885193,287.242493L789.791138,279.846497L788.464417,282.394592L787.714233,285.167725L787.575562,288.037231L788.054688,290.869751L789.129456,293.533936L790.750000,295.906067L792.841064,297.876038L795.305542,299.352234L798.029114,300.266357L800.885132,300.575867L800.885193,300.575867L803.486389,300.319641L805.987671,299.560974L808.292786,298.328796L810.313293,296.670593L811.971497,294.650146L813.203613,292.345032L813.962341,289.843750L814.218567,287.242554L813.962341,284.641357L813.203613,282.140076L811.971497,279.834961L810.313293,277.814392L808.292786,276.156311L805.987671,274.924133L803.486389,274.165344L800.885193,273.909241L800.885132,273.909241L798.283936,274.165344L795.782715,274.924133L793.477539,276.156311L791.457031,277.814392L789.798889,279.834961L788.566772,282.140076L787.807983,284.641357L787.551758,287.242554L787.807983,289.843750L788.566772,292.345032L789.798889,294.650146L791.457031,296.670593L793.477539,298.328796L795.782715,299.560974L798.283936,300.319641L800.885132,300.575867L800.885315,300.575867L803.486511,300.319641L805.987793,299.560974L808.292908,298.328796L810.313477,296.670593L811.971619,294.650146L813.203735,292.345032L813.962463,289.843750L814.218689,287.242554L813.962463,284.641357L813.203735,282.140076L811.971619,279.834961L810.313477,277.814392L808.292908,276.156311L805.987793,274.924133L803.486511,274.165344L800.885315,273.909241L800.885193,273.909241L797.918274,274.243530L795.100037,275.229553L792.572021,276.818115L790.460754,278.929321L788.872253,281.457397L787.886169,284.275574L787.551819,287.242554L787.551880,287.242676L787.886169,290.209656L788.872314,293.027832L790.460815,295.555847L792.572021,297.667114L795.100037,299.255554L797.918274,300.241699L800.885193,300.575989L800.885315,287.242676L800.885315,287.242676L800.885315,287.242676L800.885193,273.909363L798.283997,274.165588L795.782776,274.924316L793.477539,276.156433L791.457092,277.814575L789.798950,279.835083L788.566833,282.140320L787.808044,284.641479L787.551819,287.242676L787.808044,289.843933L788.566833,292.345093L789.798950,294.650330L791.457092,296.670837L793.477539,298.328979L795.782776,299.561096L798.283997,300.319824L800.885193,300.576050L800.885376,287.242676L800.885376,287.242676L800.885315,287.242676L800.885315,287.242676L800.885315,287.242798L800.885315,287.242798L800.885376,300.576111L803.612122,300.294373L806.223633,299.460876L808.609436,298.110962L810.668762,296.301636L812.314636,294.109436L813.477295,291.627014L814.107788,288.959229L814.179382,286.218933L813.689026,283.521912L812.657471,280.982178L811.128418,278.707031L811.128296,278.706970L809.187622,276.809631L806.903015,275.344543L804.369080,274.372498L801.690735,273.933716L798.979065,274.046387L796.346313,274.705750L793.901733,275.884583L791.746460,277.533997L789.969788,279.585754L788.645447,281.954651L787.828247,284.542725L787.552002,287.242676L800.885315,287.242798z" fill="#2E2662" stroke="none" fill-opacity="1" />
			</g>
			<g id="layer.mouth.uuid_0x3">
				<path d="M851.895752,656.937012L851.895752,656.937012L851.895752,656.937012L851.895752,656.937012L851.895752,656.937012L851.895752,656.937012L851.895752,656.937012L851.895874,670.270325L854.862915,669.936035L857.680969,668.949890L860.209106,667.361389L862.320312,665.250183L863.908813,662.722168L864.894958,659.903931L865.229187,656.937012L865.229187,656.936890L864.973083,654.335693L864.214355,651.834473L862.982239,649.529297L861.323975,647.508850L859.303528,645.850708L856.998413,644.618530L854.497131,643.859802L851.895874,643.603577L849.294739,643.859802L846.793457,644.618530L844.488281,645.850708L842.467773,647.508850L840.809692,649.529297L839.577576,651.834473L838.818787,654.335693L838.562561,656.936890L851.895874,656.937012L851.895874,656.937012L851.895752,656.937012L851.895752,656.937012L851.895752,656.937012L851.895752,656.937012L851.895752,656.937012L851.895752,656.937012L838.562378,656.937012L838.897583,659.907837L839.886292,662.729370L841.478821,665.259644L843.595032,667.371399L846.128601,668.958618L848.952209,669.941406L851.923706,670.270386L854.893860,669.928894L854.894043,669.928833L857.529724,669.021606L859.919128,667.586182L861.957886,665.685425L863.556946,663.402222L864.646301,660.836487L865.178345,658.100342L865.130005,655.313293L864.503235,652.597290L863.325500,650.070923L861.648193,647.844604L859.544617,646.015686L857.106812,644.664062L854.441284,643.848877L851.664490,643.605652L848.897766,643.945068L848.897583,643.945129L846.420654,644.779663L844.154053,646.081421L842.184937,647.800293L840.589111,649.870361L839.427734,652.211975L838.745544,654.735107L838.568604,657.342957L838.903870,659.935181L839.738342,662.412109L841.040161,664.678711L842.759033,666.647827L844.829102,668.243652L847.170654,669.405029L849.693909,670.087280L852.301636,670.264160L854.893860,669.928894L854.894043,669.928833L857.514709,669.028564L859.892700,667.606079L861.925293,665.722778L863.524719,663.459961L864.621826,660.915466L865.169373,658.199097L865.143555,655.428223L864.545654,652.722534L863.401306,650.198853L861.760132,647.966187L859.692871,646.121033L857.288818,644.742920L854.651917,643.891602L851.895874,643.603638L851.895752,656.937012L851.895752,656.937012L851.895752,656.937012L839.169067,660.912598L844.306274,645.974548L842.192871,647.791992L840.503540,650.009216L839.312073,652.529175L838.670654,655.241821L838.607117,658.028442L839.124451,660.767517L840.199951,663.339111L841.786499,665.630859L843.815002,667.542725L846.196594,668.991089L848.827271,669.912598L851.592102,670.266968L854.370178,670.038818L857.040161,669.238037L859.485229,667.899658L859.485352,667.899536L861.626953,666.052124L863.330627,663.794434L864.519836,661.228149L865.140930,658.468872L865.166077,655.640625L864.594116,652.870728L863.450623,650.283752L861.787354,647.996216L859.678894,646.110962L857.220276,644.712891L854.522034,643.864868L851.705627,643.604980L848.897766,643.945068L860.196411,646.502625L865.229065,656.937012L864.972900,654.335815L864.214172,651.834595L862.981995,649.529419L861.323792,647.508911L859.303345,645.850708L856.998169,644.618591L854.496887,643.859863L851.895752,643.603638L849.294556,643.859863L846.793335,644.618591L844.488159,645.850708L842.467712,647.508911L840.809509,649.529419L839.577332,651.834595L838.818604,654.335815L838.562439,656.937012L838.562378,656.937012L838.818604,659.538208L839.577332,662.039490L840.809509,664.344604L842.467712,666.365112L844.488159,668.023315L846.793335,669.255371L849.294556,670.014160L851.895752,670.270386L854.496948,670.014160L856.998169,669.255371L859.303345,668.023254L861.323792,666.365112L862.981995,664.344604L864.214172,662.039429L864.972900,659.538208L865.229065,656.937012L865.229065,656.937012L864.972900,654.335815L864.214172,651.834595L862.981995,649.529419L861.323792,647.508911L859.303345,645.850708L856.998169,644.618591L854.496887,643.859863L851.895752,643.603638L849.294556,643.859863L846.793335,644.618591L844.488159,645.850708L842.467712,647.508911L840.809509,649.529419L839.577332,651.834595L838.818604,654.335815L838.562439,656.937012L851.895752,656.937012L851.895752,656.937012L851.895752,656.937012L851.895752,656.937012L851.895752,656.937012L851.895752,656.937012L851.895752,656.937012L851.895874,656.937134L851.895874,656.937134L851.895874,656.937134L851.895996,656.937134L851.895996,656.937134L851.895996,656.937134L842.467896,647.509033L851.895874,656.937195L851.895874,656.937195L851.895874,656.937195L840.764771,664.277100L838.562683,656.937256L838.818848,659.538452L839.577637,662.039673L840.809753,664.344849L842.467896,666.365356L844.488403,668.023560L846.793579,669.255615L849.294800,670.014404L851.895996,670.270630L854.497192,670.014404L856.998474,669.255615L859.303589,668.023499L861.324097,666.365356L862.982300,664.344849L864.214417,662.039673L864.973083,659.538452L865.229370,656.937256L861.324097,666.365295L838.603699,657.980103L851.895874,656.937256L851.895874,656.937256L851.895874,656.937256L845.574463,645.197754L843.378784,646.678711L841.519287,648.564331L840.069092,650.780396L839.085510,653.239380L838.607300,655.844177L838.653320,658.492126L839.221924,661.078796L840.290466,663.502014L841.816833,665.666260L843.740906,667.486084L845.986633,668.889771L848.465515,669.821899L851.079712,670.245728L853.726196,670.144470L856.300415,669.522095L854.129883,670.082153L851.896179,656.937256L851.896179,656.937256L851.896179,656.937439L851.896179,656.937439L865.229553,656.937256L864.973267,654.336060L864.214539,651.834839L862.982422,649.529663L861.324219,647.509155L859.303772,645.850952L856.998596,644.618896L854.497375,643.860107L851.896179,643.603882L849.294922,643.860107L846.793701,644.618896L844.488586,645.850952L842.468079,647.509155L840.809875,649.529663L839.577759,651.834839L838.819031,654.336060L838.562866,656.937256L851.896179,656.937439L851.896179,656.937439L840.388367,665.484253L842.091187,670.940002L843.991272,676.233826L846.084351,681.366272L848.364075,686.333313L850.824768,691.133484L853.459412,695.763550L856.262817,700.222900L859.226501,704.507324L862.345276,708.616699L865.611145,712.548218L869.018066,716.300964L872.557373,719.872559L876.222717,723.262451L880.006531,726.469604L883.902100,729.493347L887.900635,732.332214L891.997925,734.987305L896.182434,737.456116L900.452393,739.740845L904.795593,741.839233L909.210022,743.753174L913.684509,745.481323L918.217407,747.024902L922.796875,748.383057L927.421753,749.556885L932.081116,750.545715L936.772583,751.350220L941.486816,751.970276L946.220581,752.406128L950.965393,752.657593L955.717651,752.724426L960.468506,752.606995L965.214600,752.304810L969.948486,751.817627L974.663818,751.145508L979.355591,750.287781L984.017273,749.244263L988.642090,748.014526L993.224731,746.597900L997.757629,744.994568L1002.235352,743.203613L1006.650635,741.224976L1010.997192,739.058044L1015.268250,736.702393L1019.456116,734.158569L1023.554871,731.425659L1027.556641,728.504395L1031.454712,725.394470L1035.241455,722.096375L1038.909546,718.611267L1042.452393,714.939026L1045.862183,711.080994L1049.131836,707.037842L1052.253906,702.811890L1055.221680,698.404785L1058.029053,693.815674L1060.667847,689.050293L1063.132935,684.107056L1065.417480,678.989868L1067.515503,673.699951L1069.421143,668.239929L1071.129150,662.610474L1071.634155,660.045898L1071.629272,657.432129L1071.114502,654.869507L1070.109741,652.456604L1068.653442,650.286072L1066.801636,648.441406L1064.625610,646.993286L1062.208984,645.997620L1059.644409,645.492554L1057.030518,645.497559L1054.467896,646.012268L1052.055054,647.017090L1049.884521,648.473389L1048.039917,650.325073L1046.591675,652.501099L1045.596069,654.917847L1044.139282,659.763000L1042.607544,664.180054L1040.932251,668.430298L1039.118896,672.515686L1037.173828,676.438477L1035.101318,680.201416L1032.908081,683.805786L1030.597900,687.254150L1028.175659,690.549438L1025.647095,693.691895L1023.015808,696.683960L1020.286499,699.527161L1017.462952,702.223022L1014.550171,704.772461L1011.552734,707.175903L1008.474060,709.434814L1005.319214,711.549377L1002.091919,713.520142L998.797424,715.347290L995.439941,717.030762L992.024353,718.570862L988.555237,719.967529L985.037537,721.220581L981.476868,722.329956L977.877930,723.295166L974.245789,724.116577L970.586060,724.793762L966.903687,725.326660L963.204468,725.715210L959.494263,725.959412L955.777893,726.059143L952.061279,726.014648L948.350525,725.825928L944.649963,725.493164L940.965942,725.016663L937.303894,724.396851L933.669434,723.633728L930.067383,722.728027L926.503845,721.679749L922.983276,720.489868L919.511597,719.158142L916.092896,717.685486L912.733154,716.071899L909.436462,714.318176L906.208008,712.423828L903.051880,710.389893L899.973572,708.215698L896.976074,705.901123L894.065063,703.446411L891.244263,700.850769L888.517761,698.113403L885.890198,695.233826L883.366089,692.210938L880.949402,689.043213L878.644653,685.728943L876.456543,682.267151L874.390320,678.656006L872.450378,674.893188L870.642334,670.977051L868.971497,666.905701L867.443542,662.676270L866.064026,658.287476L851.896179,656.937439L851.896179,656.937439L865.229553,656.937256L864.973267,654.336060L864.214539,651.834839L862.982422,649.529663L861.324219,647.509155L859.303772,645.850952L856.998596,644.618896L854.497375,643.860107L851.896179,643.603882L849.294922,643.860107L846.793701,644.618896L844.488586,645.850952L842.468079,647.509155L840.809875,649.529663L839.577759,651.834839L838.819031,654.336060L838.562866,656.937256L851.896179,656.937439L851.896179,656.937439L851.896179,656.937256L851.896179,656.937256L851.895996,643.603882L864.095642,651.557739L851.895874,656.937256L851.895874,656.937256L851.895874,656.937256L853.975586,670.107422L856.538208,669.436401L858.917542,668.272034L861.019775,666.660278L862.761841,664.664795L864.075073,662.364258L864.907532,659.849487L865.226501,657.219849L865.019287,654.578979L864.294128,652.031250L863.079590,649.677124L861.423706,647.609558L859.391663,645.910156L857.063843,644.645996L854.532043,643.867004L851.896179,643.603882L851.895996,643.603882L848.929077,643.938171L846.110901,644.924316L843.582825,646.512817L841.471619,648.624023L839.883057,651.152100L838.896973,653.970215L838.562683,656.937256L838.562683,656.937256L838.818848,659.538452L839.577637,662.039673L840.809753,664.344849L842.467896,666.365356L844.488403,668.023560L846.793579,669.255615L849.294800,670.014404L851.895996,670.270630L854.497192,670.014404L856.998474,669.255615L859.303589,668.023499L861.324097,666.365356L862.982300,664.344849L864.214417,662.039673L864.973083,659.538452L865.229370,656.937256L865.229370,656.937256L864.868469,653.856201L863.805481,650.942017L862.097900,648.352295L859.838013,646.227295L857.148254,644.681885L851.895874,656.937195L851.895874,656.937195L851.895874,656.937195L851.895996,670.270508L854.862976,669.936218L857.681091,668.950073L860.209229,667.361572L862.320435,665.250366L863.908936,662.722290L864.895020,659.904114L865.229370,656.937195L851.895996,656.937134L851.895996,656.937134L851.895996,656.937134L851.895874,656.937134L851.895874,656.937134L851.895874,656.937134L851.895752,656.937012L851.895752,656.937012L851.895752,656.937012L851.895752,656.937012L851.895752,656.937012L851.895752,656.937012L851.895752,656.937012L865.229065,656.937012L864.972900,654.335815L864.214172,651.834595L862.981995,649.529419L861.323792,647.508911L859.303345,645.850708L856.998169,644.618591L854.496887,643.859863L851.895752,643.603638L849.294556,643.859863L846.793335,644.618591L844.488159,645.850708L842.467712,647.508911L840.809509,649.529419L839.577332,651.834595L838.818604,654.335815L838.562439,656.937012L838.562378,656.937012L838.818604,659.538208L839.577332,662.039490L840.809509,664.344604L842.467712,666.365112L844.488159,668.023315L846.793335,669.255371L849.294556,670.014160L851.895752,670.270386L854.496948,670.014160L856.998169,669.255371L859.303345,668.023254L861.323792,666.365112L862.981995,664.344604L864.214172,662.039429L864.972900,659.538208L865.229065,656.937012L865.229065,656.937012L864.972900,654.335815L864.214172,651.834595L862.981995,649.529419L861.323792,647.508911L859.303345,645.850708L856.998169,644.618591L854.496887,643.859863L851.895752,643.603638L849.294556,643.859863L846.793335,644.618591L844.488159,645.850708L842.467712,647.508911L840.809509,649.529419L839.577332,651.834595L838.818604,654.335815L838.562439,656.937012L838.562378,656.937012L838.897583,659.907837L839.886292,662.729370L841.478821,665.259644L843.595032,667.371399L846.128601,668.958618L848.952209,669.941406L851.923706,670.270386L854.893860,669.928894L839.700684,662.327148L844.306274,645.974548L842.192871,647.791992L840.503540,650.009216L839.312073,652.529175L838.670654,655.241821L838.607117,658.028442L839.124451,660.767517L840.199951,663.339111L841.786499,665.630859L843.815002,667.542725L846.196594,668.991089L848.827271,669.912598L851.592102,670.266968L854.370178,670.038818L857.040161,669.238037L859.485229,667.899658L859.485352,667.899536L861.616089,666.063599L863.314392,663.821594L864.504456,661.273193L865.133545,658.531860L865.173584,655.719604L864.622742,652.961426L863.505615,650.380249L861.871948,648.090698L859.794312,646.194946L857.365295,644.777039L854.692871,643.900269L851.895874,643.603638L851.895752,656.937012L851.895752,656.937012L851.895752,656.937012L838.648193,658.445740L848.897583,643.945129L846.420654,644.779663L844.154053,646.081421L842.184937,647.800293L840.589111,649.870361L839.427734,652.211975L838.745544,654.735107L838.568604,657.342957L838.903870,659.935181L839.738342,662.412109L841.040161,664.678711L842.759033,666.647827L844.829102,668.243652L847.170654,669.405029L849.693909,670.087280L852.301636,670.264160L854.893860,669.928894L854.894043,669.928833L857.529724,669.021606L859.919128,667.586182L861.957886,665.685425L863.556946,663.402222L864.646301,660.836487L865.178345,658.100342L865.130005,655.313293L864.503235,652.597290L863.325500,650.070923L861.648193,647.844604L859.544617,646.015686L857.106812,644.664062L854.441284,643.848877L851.664490,643.605652L848.897766,643.945068L860.196411,646.502625L851.895752,656.937012L851.895752,656.937012L851.895752,656.937012L851.895752,656.937012L851.895752,656.937012L851.895752,656.937012L851.895874,656.937012L851.895874,656.937012L865.229187,656.936890L864.973083,654.335693L864.214355,651.834473L862.982239,649.529297L861.323975,647.508850L859.303528,645.850708L856.998413,644.618530L854.497131,643.859802L851.895874,643.603577L849.294739,643.859802L846.793457,644.618530L844.488281,645.850708L842.467773,647.508850L840.809692,649.529297L839.577576,651.834473L838.818787,654.335693L838.562561,656.936890L842.467773,647.508911L851.895752,656.937012L851.895752,656.937012L851.895752,656.937012L851.895752,656.937012L851.895752,656.937012L851.895752,656.937012z" fill="#000000" stroke="none" fill-opacity="1" />
			</g>
			<g id="layer.nogaEyes.uuid_0x4">
				<polygon points="1091.708374,430.369202 1088.820312,430.566406 1085.944702,431.157288 1083.093872,432.139282 1080.279907,433.508057 1077.514648,435.257996 1074.810425,437.381470 1072.178345,439.869263 1069.630005,442.710999 1067.176392,445.894287 1064.827515,449.405640 1062.593872,453.229797 1060.485107,457.350647 1058.509888,461.750427 1056.676636,466.410217 1054.993530,471.310181 1053.467773,476.429382 1052.105591,481.745789 1050.913086,487.236633 1049.895386,492.878418 1049.056396,498.647034 1048.400269,504.517761 1047.929443,510.465454 1047.646484,516.464600 1047.551880,522.489563 1047.646484,528.514465 1047.929443,534.513733 1048.400146,540.461365 1049.056396,546.332031 1049.895386,552.100647 1050.913086,557.742432 1052.105591,563.233276 1053.467773,568.549744 1054.993530,573.668823 1056.676636,578.568726 1058.509888,583.228699 1060.485107,587.628418 1062.593872,591.749268 1064.827515,595.573486 1067.176392,599.084717 1069.630005,602.268066 1072.178345,605.109741 1074.810425,607.597595 1077.514648,609.721069 1080.279907,611.470947 1083.093872,612.839844 1085.944702,613.821716 1088.820312,614.412598 1091.708374,614.609863 1094.596436,614.412598 1097.472046,613.821777 1100.322998,612.839844 1103.136963,611.470947 1105.902100,609.721069 1108.606323,607.597595 1111.238281,605.109741 1113.786621,602.268066 1116.240479,599.084717 1118.589233,595.573486 1120.822876,591.749268 1122.931763,587.628418 1124.906982,583.228699 1126.739990,578.568726 1128.423096,573.668823 1129.949097,568.549683 1131.311157,563.233276 1132.503784,557.742432 1133.521484,552.100586 1134.360352,546.332031 1135.016479,540.461365 1135.487183,534.513611 1135.770508,528.514526 1135.864990,522.489563 1135.770508,516.464600 1135.487183,510.465454 1135.016479,504.517761 1134.360352,498.647095 1133.521484,492.878479 1132.503784,487.236633 1131.311157,481.745789 1129.949097,476.429382 1128.423096,471.310242 1126.739990,466.410156 1124.906982,461.750427 1122.931763,457.350647 1120.822876,453.229797 1118.589111,449.405640 1116.240479,445.894287 1113.786621,442.710999 1111.238403,439.869263 1108.606323,437.381470 1105.902100,435.257996 1103.136963,433.508057 1100.322998,432.139282 1097.472046,431.157288 1094.596436,430.566467" fill="#2B2162" stroke="none" fill-opacity="1" />
				<polygon points="811.549316,421.233582 808.661499,421.430786 805.785828,422.021667 802.934875,423.003662 800.120850,424.372498 797.355713,426.122375 794.651428,428.245850 792.019470,430.733704 789.471069,433.575378 787.017456,436.758667 784.668579,440.269958 782.434937,444.094116 780.326050,448.215027 778.350769,452.614746 776.517700,457.274597 774.834534,462.174561 773.308716,467.293762 771.946655,472.610107 770.754028,478.101013 769.736267,483.742737 768.897461,489.511353 768.241333,495.382141 767.770630,501.329834 767.487427,507.328918 767.392883,513.353943 767.487427,519.378845 767.770630,525.378052 768.241333,531.325623 768.897461,537.196411 769.736267,542.964966 770.754089,548.606812 771.946655,554.097656 773.308716,559.414124 774.834534,564.533142 776.517700,569.433228 778.350769,574.093018 780.326050,578.492798 782.434937,582.613647 784.668579,586.437866 787.017456,589.949097 789.471069,593.132446 792.019470,595.974121 794.651428,598.461975 797.355713,600.585388 800.120850,602.335327 802.934875,603.704224 805.785828,604.686157 808.661499,605.276978 811.549316,605.474243 814.437378,605.276978 817.313049,604.686157 820.164001,603.704224 822.977966,602.335327 825.743103,600.585388 828.447327,598.461975 831.079285,595.974121 833.627808,593.132446 836.081421,589.949097 838.430176,586.437866 840.663940,582.613647 842.772827,578.492798 844.748108,574.093018 846.581055,569.433228 848.264160,564.533203 849.790161,559.414062 851.152222,554.097656 852.344788,548.606812 853.362610,542.964966 854.201355,537.196350 854.857422,531.325623 855.328186,525.377930 855.611450,519.378906 855.705994,513.353943 855.611450,507.328918 855.328186,501.329834 854.857422,495.382141 854.201355,489.511414 853.362549,483.742859 852.344788,478.101013 851.152222,472.610107 849.790161,467.293762 848.264160,462.174622 846.581177,457.274536 844.748047,452.614746 842.772827,448.215027 840.664001,444.094116 838.430176,440.269958 836.081421,436.758667 833.627686,433.575378 831.079407,430.733704 828.447327,428.245850 825.743103,426.122375 822.977966,424.372498 820.163940,423.003662 817.313049,422.021667 814.437378,421.430786" fill="#2B2162" stroke="none" fill-opacity="1" />
			</g>
			<g id="layer.nogaPupil.uuid_0x5">
				<polygon points="1065.061279,451.687134 1063.617310,451.783325 1062.179443,452.071472 1060.754028,452.550232 1059.347168,453.217773 1057.964478,454.070984 1056.612305,455.106384 1055.296265,456.319458 1054.022217,457.705078 1052.795288,459.257202 1051.620972,460.969299 1050.504272,462.833984 1049.449829,464.843323 1048.462036,466.988586 1047.545654,469.260681 1046.704102,471.650024 1045.941040,474.146057 1045.260010,476.738281 1044.663696,479.415649 1044.154785,482.166565 1043.735474,484.979309 1043.407349,487.841919 1043.172119,490.742004 1043.030518,493.667114 1042.983276,496.604858 1043.030518,499.542603 1043.172119,502.467834 1043.407349,505.367920 1043.735474,508.230408 1044.154785,511.043213 1044.663696,513.794189 1045.260010,516.471436 1045.941040,519.063721 1046.704102,521.559814 1047.545654,523.948975 1048.462036,526.221191 1049.449829,528.366516 1050.504272,530.375854 1051.620972,532.240417 1052.795288,533.952576 1054.022339,535.504700 1055.296265,536.890320 1056.612305,538.103516 1057.964478,539.138794 1059.347168,539.992065 1060.754028,540.659546 1062.179443,541.138306 1063.617310,541.426453 1065.061279,541.522583 1066.505249,541.426453 1067.943115,541.138306 1069.368652,540.659546 1070.775635,539.992065 1072.158081,539.138794 1073.510254,538.103516 1074.826172,536.890320 1076.100342,535.504700 1077.327271,533.952576 1078.501587,532.240417 1079.618530,530.375854 1080.672852,528.366516 1081.660522,526.221191 1082.577026,523.948975 1083.418579,521.559814 1084.181641,519.063721 1084.862549,516.471436 1085.458862,513.794189 1085.967651,511.043213 1086.387085,508.230408 1086.715088,505.367920 1086.950562,502.467834 1087.092163,499.542603 1087.139404,496.604858 1087.092163,493.667114 1086.950562,490.742004 1086.715088,487.841919 1086.387085,484.979309 1085.967651,482.166565 1085.458862,479.415649 1084.862549,476.738281 1084.181641,474.146057 1083.418579,471.650024 1082.577026,469.260681 1081.660522,466.988586 1080.672852,464.843323 1079.618530,462.833984 1078.501465,460.969299 1077.327271,459.257202 1076.100342,457.705017 1074.826172,456.319458 1073.510254,455.106384 1072.158081,454.070984 1070.775635,453.217773 1069.368652,452.550232 1067.943115,452.071472 1066.505249,451.783386" fill="#FEFEFE" stroke="none" fill-opacity="1" />
				<polygon points="784.902283,442.551514 783.458374,442.647705 782.020569,442.935791 780.595032,443.414612 779.188049,444.082092 777.805481,444.935425 776.453369,445.970703 775.137390,447.183777 773.863342,448.569397 772.636292,450.121521 771.461914,451.833618 770.345154,453.698364 769.290710,455.707703 768.303101,457.852905 767.386597,460.125122 766.545044,462.514343 765.782043,465.010437 765.101135,467.602722 764.504761,470.279968 763.995911,473.030945 763.576538,475.843750 763.248413,478.706299 763.013062,481.606384 762.871582,484.531494 762.824219,487.469299 762.871582,490.406982 763.013062,493.332214 763.248413,496.232239 763.576538,499.094788 763.995911,501.907532 764.504761,504.658569 765.101135,507.335876 765.782043,509.928101 766.545044,512.424194 767.386597,514.813416 768.303101,517.085571 769.290710,519.230835 770.345154,521.240234 771.461914,523.104858 772.636292,524.816956 773.863342,526.369080 775.137390,527.754700 776.453369,528.967773 777.805481,530.003174 779.188049,530.856445 780.594971,531.523926 782.020569,532.002686 783.458313,532.290771 784.902283,532.386963 786.346375,532.290771 787.784058,532.002686 789.209595,531.523926 790.616577,530.856445 791.998962,530.003174 793.351318,528.967773 794.667236,527.754700 795.941345,526.369080 797.168213,524.816956 798.342712,523.104858 799.459473,521.240234 800.513855,519.230835 801.501587,517.085571 802.418030,514.813416 803.259644,512.424194 804.022644,509.928101 804.703552,507.335876 805.299805,504.658569 805.808838,501.907532 806.228149,499.094788 806.556213,496.232239 806.791565,493.332214 806.933105,490.406982 806.980408,487.469299 806.933167,484.531494 806.791565,481.606384 806.556213,478.706299 806.228149,475.843750 805.808777,473.030945 805.299805,470.279968 804.703552,467.602722 804.022644,465.010437 803.259644,462.514343 802.418030,460.125122 801.501587,457.852905 800.513916,455.707703 799.459473,453.698364 798.342529,451.833618 797.168152,450.121521 795.941345,448.569336 794.667297,447.183777 793.351318,445.970703 791.998962,444.935425 790.616577,444.082153 789.209595,443.414612 787.784058,442.935791 786.346375,442.647705" fill="#FEFEFE" stroke="none" fill-opacity="1" />
			</g>
		</g>
	</g>
</svg>
