<?xml version="1.0" encoding="UTF-8" standalone="no"?>
<!-- Generator: Blender, SVG Export for Grease Pencil - v2.0 -->

<svg
   version="1.1"
   x="0px"
   y="0px"
   width="140.23468"
   height="159.88759"
   viewBox="0 0 140.23468 159.88759"
   id="svg2"
   sodipodi:docname="zero.svg"
   xml:space="preserve"
   inkscape:version="1.3.2 (091e20e, 2023-11-25, custom)"
   xmlns:inkscape="http://www.inkscape.org/namespaces/inkscape"
   xmlns:sodipodi="http://sodipodi.sourceforge.net/DTD/sodipodi-0.dtd"
   xmlns="http://www.w3.org/2000/svg"
   xmlns:svg="http://www.w3.org/2000/svg"><defs
     id="defs2" /><sodipodi:namedview
     id="namedview2"
     pagecolor="#ffffff"
     bordercolor="#000000"
     borderopacity="0.25"
     inkscape:showpageshadow="2"
     inkscape:pageopacity="0.0"
     inkscape:pagecheckerboard="0"
     inkscape:deskcolor="#d1d1d1"
     inkscape:zoom="0.32421875"
     inkscape:cx="-1059.4699"
     inkscape:cy="772.62651"
     inkscape:window-width="1920"
     inkscape:window-height="1009"
     inkscape:window-x="1912"
     inkscape:window-y="-6"
     inkscape:window-maximized="1"
     inkscape:current-layer="layer.hole.uuid_0x2" /><g
     id="blender_frame.1"
     transform="translate(-1881.8152,-47.04819)"><g
       id="blender_object.numbersGP.1.uuid_0x0"><g
         id="layer.numbers.uuid_0x1" /><g
         id="layer.hole.uuid_0x2"><path
           d="m 1936.6566,205.43819 c -19.5557,-4.70436 -38.1301,-20.55261 -47.4625,-40.49654 -5.7222,-12.22866 -7.3683,-20.68217 -7.3786,-37.89346 -0.01,-13.97814 0.2539,-16.36288 2.6726,-24.28832 10.4865,-34.36213 36.2264,-55.71168 67.1685,-55.71168 33.5002,0 61.4589,25.48623 69.0484,62.9423 1.3007,6.41893 1.5782,11.38864 1.1719,20.98429 -1.0139,23.94646 -7.879,40.18942 -23.7203,56.12285 -9.7373,9.79396 -18.3213,14.83576 -30.6095,17.97856 -9.1338,2.33603 -22.0551,2.48745 -30.8905,0.362 z m 27,-4.88935 c 3.85,-0.80555 10.6,-3.24442 15,-5.41971 24.6327,-12.17802 39.9607,-41.33542 38.1557,-72.58094 -2.0038,-34.68955 -23.6404,-62.72954 -53.2433,-69.00088 -8.7369,-1.85092 -15.0618,-1.85123 -23.9124,-0.001 -11.4684,2.39725 -20.7376,7.70267 -30.6379,17.53609 -7.5078,7.45712 -9.2972,9.94584 -13.6778,19.02277 -6.6046,13.6856 -8.6771,23.02789 -8.528,38.44319 0.1296,13.41012 2.2819,23.49604 7.3045,34.22956 13.2825,28.38564 41.4009,43.65851 69.5392,37.77109 z m -20,-37.33559 c -2.2,-1.04567 -4.9788,-2.97309 -6.1752,-4.28314 -6.5469,-7.16918 -10.9518,-23.57273 -9.8481,-36.67392 1.9053,-22.61567 13.2469,-36.78296 26.5739,-33.19438 7.9089,2.12965 14.194,10.39627 17.4765,22.98638 2.2384,8.5857 1.5566,25.95386 -1.3396,34.12513 -5.4182,15.28626 -16.0692,22.08689 -26.6875,17.03993 z m 10.8288,-4.52909 c 4.3633,-1.82308 8.0323,-6.37371 10.7802,-13.37037 3.0433,-7.74859 3.3319,-28.01215 0.5083,-35.68268 -3.9518,-10.73529 -9.0035,-15.58292 -16.2391,-15.58292 -3.1002,0 -4.4346,0.74475 -7.9983,4.46403 -5.9525,6.21237 -8.3799,14.33348 -8.3799,28.03597 0,16.69827 4.8997,28.36716 13.4814,32.10643 3.8222,1.66545 3.9312,1.66586 7.8474,0.0295 z m 27.1712,-10.53476 c -2.9206,-1.2634 -5.8062,-4.7968 -4.9925,-6.1134 0.4888,-0.7908 1.3581,-0.55028 2.848,0.78797 1.1795,1.05941 2.9572,2.21378 3.9504,2.56527 2.1053,0.74501 8.6941,-1.74834 8.6941,-3.29003 0,-0.57806 0.675,-1.05102 1.5,-1.05102 2.2309,0 1.8164,2.35416 -0.8566,4.86528 -2.6237,2.46487 -8.0822,3.56011 -11.1434,2.23593 z m -69.8437,-10.23375 c -2.9328,-1.7048 -4.6563,-7.23259 -4.6563,-14.93421 0,-10.96076 3.2822,-16.08319 9.3323,-14.56471 7.4944,1.881 8.8988,23.15811 1.8922,28.66948 -2.8196,2.21792 -3.9368,2.35901 -6.5682,0.82944 z m 2.7591,-14.77392 c 3.5947,-3.97216 0.07,-12.40123 -3.8316,-9.16311 -2.7776,2.30527 -1.6208,11.06957 1.4612,11.06957 0.3548,0 1.4214,-0.85791 2.3704,-1.90646 z m 66.3531,14.20315 c -2.6581,-2.93715 -3.7685,-7.03109 -3.7685,-13.89391 0,-7.39418 1.8505,-12.7172 5.0085,-14.40732 6.4608,-3.45774 11.4534,4.18749 10.8275,16.58063 -0.2748,5.44324 -0.9041,8.04121 -2.4517,10.12317 -2.5549,3.43688 -7.2459,4.21617 -9.6158,1.59743 z m 3.6133,-13.58658 c 2.3436,-1.7137 1.8771,-8.54547 -0.6904,-10.10884 -3.4871,-2.12341 -6.1579,4.79004 -3.6562,9.46447 1.2173,2.2745 1.9655,2.38543 4.3466,0.64437 z m -8.3818,-20.17116 c 0,-0.80357 0.9849,-2.37857 2.1886,-3.5 4.4472,-4.14319 15.8114,-1.62761 15.8114,3.5 0,2.04125 -1.6409,1.82016 -4,-0.53895 -1.2028,-1.2028 -3.3333,-2 -5.345,-2 -2.075,0 -4.0322,0.75933 -5.155,2 -2.1374,2.36184 -3.5,2.57166 -3.5,0.53895 z"
           style="fill:#000000"
           id="path1" /><path
           style="fill:#b4e1ee;fill-opacity:1;stroke:#fcfcff;stroke-width:0"
           d="m 1931.9435,197.20967 c -14.0048,-5.16721 -27.9295,-18.81199 -36.0675,-35.34264 -6.5188,-13.24155 -7.1633,-16.34334 -7.1143,-34.23525 0.046,-16.94079 0.919,-21.56367 6.2801,-33.271224 6.9962,-15.278283 22.201,-30.997144 35.424,-36.621542 27.087,-11.52151 61.5966,3.371389 76.6967,33.099078 18.455,36.332518 5.449,83.790688 -27.9438,101.965338 -14.0287,7.63538 -33.5834,9.45795 -47.2752,4.40624 z m 32.1532,-38.15612 c 7.2123,-7.72085 9.7299,-17.29014 9.4695,-35.99397 -0.2906,-20.8737 -10.7863,-35.821346 -25.1525,-35.821346 -6.3649,0 -16.3731,10.923544 -19.1405,20.890946 -10.399,37.45461 14.0321,73.18164 34.8235,50.92437 z m 28.5101,-12.74177 c 5.9643,-4.83532 4.3746,-8.32715 -1.9833,-4.35656 -2.6775,1.67215 -5.8258,1.98221 -8.391,0.8264 -3.5732,-1.61 -3.3132,-1.95762 2.0053,-2.68094 10.2754,-1.39746 14.0012,-19.45126 6.0211,-29.17556 -3.4513,-4.20558 -4.9495,-4.70223 -8.1786,-2.71118 -3.1293,1.92948 -3.9777,5.35156 -4.07,16.41721 -0.064,7.6888 -0.8093,15.10028 -1.6558,16.46996 -1.7685,2.86148 3.9518,9.38484 8.2295,9.38484 1.5807,0 5.191,-1.87837 8.0228,-4.17417 z m -70.3649,-14.18583 c 3.644,-7.62532 1.2101,-20.2929 -4.5955,-23.91802 -8.3194,-5.19472 -14.2256,11.52359 -9.4201,26.6645 2.202,6.93799 10.13,5.38443 14.0156,-2.74648 z m 58.6611,-27.8171 c 1.9567,-1.95668 3.8925,-1.94995 8.235,0.0286 4.9152,2.23952 5.5816,2.10365 4.9663,-1.01255 -1.5183,-7.689419 -19.2488,-7.505004 -19.2488,0.2002 0,3.98492 2.5198,4.31147 6.0475,0.78373 z"
           id="path6" /></g></g></g></svg>
