<?xml version="1.0" encoding="UTF-8" standalone="no"?>
<!-- Generator: Blender, SVG Export for Grease Pencil - v2.0 -->

<svg
   version="1.1"
   x="0px"
   y="0px"
   width="131.51338"
   height="159.59711"
   viewBox="0 0 131.51338 159.59711"
   id="svg2"
   sodipodi:docname="zero - Copy (3).svg"
   xml:space="preserve"
   inkscape:version="1.3.2 (091e20e, 2023-11-25, custom)"
   xmlns:inkscape="http://www.inkscape.org/namespaces/inkscape"
   xmlns:sodipodi="http://sodipodi.sourceforge.net/DTD/sodipodi-0.dtd"
   xmlns="http://www.w3.org/2000/svg"
   xmlns:svg="http://www.w3.org/2000/svg"><defs
     id="defs2" /><sodipodi:namedview
     id="namedview2"
     pagecolor="#ffffff"
     bordercolor="#000000"
     borderopacity="0.25"
     inkscape:showpageshadow="2"
     inkscape:pageopacity="0.0"
     inkscape:pagecheckerboard="0"
     inkscape:deskcolor="#d1d1d1"
     inkscape:zoom="0.32421875"
     inkscape:cx="-353.15663"
     inkscape:cy="707.85542"
     inkscape:window-width="1920"
     inkscape:window-height="1009"
     inkscape:window-x="1912"
     inkscape:window-y="-6"
     inkscape:window-maximized="1"
     inkscape:current-layer="layer.hole.uuid_0x2" /><g
     id="blender_frame.1"
     transform="translate(-1174,-111)"><g
       id="blender_object.numbersGP.1.uuid_0x0"><g
         id="layer.numbers.uuid_0x1" /><g
         id="layer.hole.uuid_0x2"><path
           d="m 1222.8505,269.12701 c -21.1307,-3.83411 -39.3225,-13.81787 -46.0285,-25.26079 -8.4374,-14.3974 3.08,-34.32851 20.8278,-36.04296 5.985,-0.57815 10.3903,0.93369 18.1108,6.21545 9.4289,6.45046 14.5371,8.74106 20.6834,9.27466 6.5823,0.57146 10.3465,-0.66819 12.6351,-4.16101 1.5264,-2.32948 1.5336,-2.74866 0.086,-4.95773 -1.8725,-2.85788 -4.1853,-3.45031 -17.4936,-4.48118 -8.7189,-0.67537 -10.5044,-1.13466 -13.6049,-3.49949 -6.6759,-5.09199 -9.7147,-14.95016 -7.6196,-24.71927 2.2704,-10.58619 9.2896,-15.82569 21.2541,-15.865 11.025,-0.0362 15.7387,-3.23621 10.7352,-7.28779 -3.7482,-3.03508 -10.5007,-1.7595 -22.4228,4.23575 -8.2488,4.14807 -10.9316,5.03008 -15.2997,5.03008 -14.8053,0 -26.2719,-15.92208 -22.135,-30.7357 2.6332,-9.42906 15.7407,-18.46851 34.0257,-23.46551 10.9493,-2.99226 33.6631,-3.24139 43.9117,-0.48164 16.2089,4.36471 28.252,13.35531 34.2732,25.58611 3.0441,6.18349 3.2268,7.1788 3.2268,17.57571 0,10.32389 -0.1858,11.3565 -2.9381,16.32458 -1.6159,2.91696 -4.7189,6.91243 -6.8954,8.87883 -3.6651,3.31113 -3.8174,3.65336 -2.062,4.63205 4.0501,2.258 12.7225,11.39877 14.88,15.68353 11.1797,22.20368 0.8427,50.07381 -22.7879,61.43968 -14.4339,6.94242 -36.9729,9.41836 -55.3624,6.08164 z m 40.1659,-5.9692 c 14.906,-3.92562 27.7691,-13.26006 32.9839,-23.93578 9.4083,-19.26054 3.0168,-40.44944 -15.0136,-49.77252 -3.5546,-1.83798 -6.4646,-3.8717 -6.4666,-4.51938 0,-0.64768 2.6296,-2.77724 5.8481,-4.73236 9.901,-6.01457 13.6944,-13.77901 12.9328,-26.47134 -0.4923,-8.20429 -3.1417,-14.82429 -8.4643,-21.14991 -4.1671,-4.95236 -13.6497,-10.65351 -22.7419,-13.67301 -7.1927,-2.38869 -9.6133,-2.68619 -22.0784,-2.7135 -11.5562,-0.0253 -15.36,0.35903 -21.7915,2.20184 -16.0711,4.6049 -28.7574,12.97005 -30.7192,20.2558 -2.8928,10.74272 6.6055,23.96008 17.2181,23.96008 1.9602,0 7.3256,-2.03711 13.2919,-5.04667 7.0438,-3.55305 11.6634,-5.21784 15.6089,-5.62505 9.8421,-1.01579 15.9299,2.49418 15.86,9.14422 -0.064,6.10433 -5.8422,9.5133 -16.1861,9.54946 -12.5008,0.0437 -18.1573,5.39028 -18.0474,17.05858 0.058,6.13981 1.688,10.12347 5.6617,13.83573 2.2655,2.1164 3.9438,2.51434 13.5233,3.2066 12.7063,0.9182 17.3248,2.51546 19.5139,6.74869 6.1147,11.82449 -8.1557,20.66679 -25.1897,15.60824 -2.8155,-0.83611 -9.1723,-4.2636 -14.1264,-7.61663 -10.0585,-6.80789 -15.1089,-8.15002 -21.1477,-5.61998 -12.3661,5.18096 -17.7469,18.86249 -11.2198,28.52822 6.953,10.29645 24.5271,18.96118 45.064,22.21829 8.0027,1.26922 28.5472,0.44043 35.686,-1.43962 z m -0.3333,-98.06524 c -6.0901,-7.74237 -2.1789,-26.10705 5.1,-23.94597 8.9549,2.65871 8.5266,25.17959 -0.4996,26.26635 -1.7749,0.2137 -3.1544,-0.48211 -4.6004,-2.32038 z m 4.8684,-12.07713 c 1.0453,-2.74937 -0.5769,-7.67462 -2.5351,-7.69683 -1.843,-0.0209 -3.8357,4.81557 -3.1347,7.60841 0.8964,3.57163 4.3251,3.6251 5.6698,0.0884 z m -9.2995,-18.00548 c -2.078,-2.07797 4.0549,-6.40223 9.0799,-6.40223 3.2439,0 8.1845,3.36392 8.1845,5.57258 0,1.83327 -1.4216,1.82927 -2.9466,-0.008 -2.2104,-2.66326 -7.0004,-2.97954 -10.1262,-0.66861 -3.1217,2.30798 -3.3192,2.37898 -4.1916,1.50656 z"
           style="fill:#000000"
           id="path1-30" /><path
           style="fill:#b4e1ee;fill-opacity:1;stroke:#fcfcff;stroke-width:0"
           d="m 1213.8571,260.10891 c -21.299,-6.73598 -35.2319,-19.29209 -32.6942,-29.46364 1.7639,-7.07042 7.1509,-13.19259 13.8681,-15.76074 4.1355,-1.58111 8.029,-0.37253 19.5425,6.06618 10.3215,5.77211 17.0095,8.04067 23.705,8.04067 10.7627,0 18.1072,-5.27705 18.1072,-13.00999 0,-6.78105 -7.1888,-10.90115 -21.8096,-12.49968 -13.8763,-1.51713 -17.4476,-4.98632 -17.4476,-16.94866 0,-9.90669 5.9272,-14.97351 17.5161,-14.97351 10.6665,0 15.7549,-4.10038 14.8401,-11.95873 -1.0676,-9.17164 -9.8846,-10.9631 -25.6231,-5.20618 -20.3423,7.44093 -25.0296,7.55119 -30.4067,0.71524 -10.2977,-13.09139 -3.2308,-24.68277 20.45,-33.54289 27.9823,-10.46952 64.5774,-1.2345 74.0947,18.69831 1.8048,3.77986 3.2814,11.5379 3.2814,17.24009 0,9.34342 -0.9064,11.22985 -9.1749,19.0955 l -9.1749,8.72788 5.3582,3.45281 c 16.7193,10.7738 23.8006,25.82052 19.5612,41.56461 -3.161,11.73882 -11.0419,20.48676 -24.4967,27.19154 -9.7272,4.84729 -14.0026,5.60186 -31.0274,5.47607 -10.8601,-0.0802 -23.6713,-1.38744 -28.4694,-2.90488 z m 59.6729,-98.23597 c 6.0069,-12.33113 -4.6192,-27.61668 -12.093,-17.39566 -3.9606,5.41642 -3.5996,17.31759 0.6542,21.57145 4.5536,4.55354 7.756,3.38448 11.4388,-4.17579 z m -10.2239,-27.5917 c 3.2201,-1.72336 5.1123,-1.72336 6.8357,0 3.3335,3.33353 5.8725,2.96738 5.8725,-0.84688 0,-7.08943 -16.7447,-6.51233 -19.1353,0.6595 -1.0669,3.20061 0.7006,3.25214 6.4271,0.18738 z"
           id="path3" /></g></g></g></svg>
