<?xml version="1.0" encoding="UTF-8" standalone="no"?>
<!-- Generator: Blender, SVG Export for Grease Pencil - v2.0 -->

<svg
   version="1.1"
   x="0px"
   y="0px"
   width="133.25589"
   height="161.78596"
   viewBox="0 0 133.25589 161.78596"
   id="svg2"
   sodipodi:docname="five.svg"
   xml:space="preserve"
   inkscape:version="1.3.2 (091e20e, 2023-11-25, custom)"
   xmlns:inkscape="http://www.inkscape.org/namespaces/inkscape"
   xmlns:sodipodi="http://sodipodi.sourceforge.net/DTD/sodipodi-0.dtd"
   xmlns="http://www.w3.org/2000/svg"
   xmlns:svg="http://www.w3.org/2000/svg"><defs
     id="defs2" /><sodipodi:namedview
     id="namedview2"
     pagecolor="#ffffff"
     bordercolor="#000000"
     borderopacity="0.25"
     inkscape:showpageshadow="2"
     inkscape:pageopacity="0.0"
     inkscape:pagecheckerboard="0"
     inkscape:deskcolor="#d1d1d1"
     inkscape:zoom="0.32421875"
     inkscape:cx="-513.54217"
     inkscape:cy="630.74699"
     inkscape:window-width="1920"
     inkscape:window-height="1009"
     inkscape:window-x="1912"
     inkscape:window-y="-6"
     inkscape:window-maximized="1"
     inkscape:current-layer="layer.hole.uuid_0x2" /><g
     id="blender_frame.1"
     transform="translate(-1334,-187)"><g
       id="blender_object.numbersGP.1.uuid_0x0"><g
         id="layer.numbers.uuid_0x1" /><g
         id="layer.hole.uuid_0x2"><path
           d="m 1387.7442,347.89355 c -18.1868,-1.92368 -35.4986,-8.48347 -45.4521,-17.2228 -4.1411,-3.63592 -8.2777,-11.74758 -8.292,-16.26033 -0.018,-5.74131 2.89,-13.03605 7.1074,-17.82726 5.4281,-6.16668 10.8735,-8.89372 17.9676,-8.99815 4.8925,-0.072 7.0001,0.63047 17,5.66623 12.5081,6.29883 19.0501,8.00233 25.8861,6.74063 7.2687,-1.34157 10.9832,-7.4931 7.9486,-13.16335 -2.6269,-4.9084 -13.3369,-6.0304 -32.9195,-3.4487 -17.0575,2.24879 -25.61,-0.32116 -31.7015,-9.52601 -3.752,-5.66975 -3.9909,-12.23331 -1.3472,-37.02026 3.6877,-34.57529 4.4543,-37.49151 11.4757,-43.65639 6.5558,-5.75605 10.0834,-6.20066 49.0045,-6.17628 39.1732,0.0245 40.1899,0.18111 46.0114,7.08574 4.1816,4.95953 5.5571,9.01708 5.5571,16.3923 0,10.43964 -3.8559,17.1772 -12.5,21.84158 -3.7129,2.0035 -5.6687,2.18113 -27.25,2.47491 l -23.25,0.31649 v 2.3588 2.35879 l 13.3205,-0.017 c 15.4777,-0.0197 23.5553,1.61279 34.086,6.88886 17.4436,8.7396 26.9097,25.07512 26.8589,46.35035 -0.073,30.52734 -21.6754,51.22703 -57.274,54.88013 -11.1582,1.14505 -11.0481,1.14524 -22.2375,-0.0383 z m 35.7461,-7.39588 c 18.6575,-5.21897 31.6954,-16.83368 36.6054,-32.60971 2.6562,-8.53415 2.5901,-22.90758 -0.1425,-31.0193 -5.3288,-15.81811 -17.4308,-26.19736 -35.5275,-30.46997 -5.415,-1.27848 -10.1552,-1.52936 -21.6228,-1.14442 -11.2012,0.37599 -14.8014,0.1962 -15.1673,-0.75744 -0.264,-0.68775 -0.2279,-4.02915 0.08,-7.42533 0.437,-4.81966 1.0029,-6.41195 2.5783,-7.25512 1.382,-0.73959 7.9455,-0.85278 20.8132,-0.35894 21.267,0.81621 27.4544,0.2713 32.1223,-2.82894 10.2082,-6.77986 10.1729,-25.4988 -0.06,-31.86187 -3.6163,-2.24867 -4.2562,-2.29283 -37.502,-2.58746 -27.9645,-0.24783 -34.7291,-0.0363 -39.0544,1.22107 -6.3114,1.83476 -11.8174,6.94766 -13.4886,12.52538 -1.349,4.50279 -6.1341,47.62056 -6.1341,55.27414 0,7.08625 3.4964,12.87285 9.5482,15.80245 4.0849,1.97751 5.5629,2.14807 13.7641,1.5884 27.6026,-1.88367 31.6248,-1.90745 36.0609,-0.21328 5.9882,2.2869 8.7527,5.5388 9.3708,11.02275 0.9676,8.58375 -3.1004,13.60409 -12.6897,15.66063 -9.1124,1.95426 -17.7509,-0.484 -34.4011,-9.70996 -3.3092,-1.83361 -6.2465,-2.66451 -9.2582,-2.61898 -11.7791,0.17807 -22.4089,14.0543 -19.3808,25.2999 2.595,9.63702 18.5702,19.09351 39.6187,23.45218 9.3321,1.93248 35.5394,1.34331 43.8671,-0.98618 z m -57.1187,-107.05954 c -5.6125,-8.56581 -2.3091,-25.33197 4.7833,-24.27681 4.2377,0.63046 6.3354,5.20318 6.3354,13.81036 0,6.92756 -0.2838,8.14822 -2.4243,10.42667 -3.1081,3.30839 -6.5424,3.3241 -8.6944,0.0398 z m 4.819,-11.9995 c 1.3841,-3.03783 0.017,-7.95971 -2.2109,-7.95971 -2.3282,0 -4.1851,4.85504 -3.0245,7.90771 1.2556,3.30254 3.7431,3.32725 5.2354,0.052 z m 30.8219,-0.70971 c 0.05,-5.02098 5.382,-8.75 12.5121,-8.75 3.9728,0 5.1707,0.50495 8.0657,3.4 5.6727,5.67272 3.3325,10.24534 -2.662,5.20132 -1.7003,-1.43073 -4.2043,-2.60132 -5.5644,-2.60132 -2.9111,0 -8.3736,2.62611 -8.3736,4.02568 0,0.53587 -0.9,0.97432 -2,0.97432 -1.414,0 -1.9935,-0.65926 -1.9778,-2.25 z m -40.0222,-16.59501 c 0,-2.60233 3.1626,-5.15225 7.126,-5.74555 3.7875,-0.56696 9.874,2.5255 9.874,5.01684 0,2.37009 -1.524,2.61052 -3.3118,0.52249 -2.2389,-2.61479 -7.8008,-2.58682 -10.1882,0.0512 -2.2584,2.49549 -3.5,2.55047 -3.5,0.15499 z"
           style="fill:#000000"
           id="path1-4" /><path
           style="fill:#b4e1ee;fill-opacity:1;stroke:#fcfcff;stroke-width:0"
           d="m 1378.8047,340.16101 c -13.0274,-2.77939 -28.7005,-10.68901 -33.6508,-16.98225 -6.1268,-7.78907 -5.3923,-15.05648 2.2992,-22.74798 7.6944,-7.69445 11.0605,-7.54554 32.2828,1.42816 10.7308,4.53742 15.7233,5.51874 22.3668,4.39632 13.9977,-2.3649 19.8065,-15.95091 10.7095,-25.04799 -3.8709,-3.87091 -7.2699,-4.36191 -30.1954,-4.36191 -27.1602,0 -30.0269,-0.97368 -33.7476,-11.46247 -1.4083,-3.97002 3.861,-54.85413 6.3528,-61.34784 3.1605,-8.23602 12.1942,-10.06601 49.6902,-10.06601 h 35.9358 l 4.5202,5.74651 c 5.3824,6.84263 5.6743,11.86698 1.1928,20.53326 -1.8301,3.53901 -3.5476,6.57132 -3.8167,6.73846 -0.2691,0.16715 -12.7571,0.90322 -27.7512,1.63572 l -27.2619,1.33182 -0.6769,8.17858 -0.6769,8.17859 h 16.781 c 20.9427,0 31.3131,3.03854 42.2131,12.36852 24.7842,21.21437 19.1731,60.24533 -10.8343,75.36341 -13.2873,6.69435 -39.5275,9.57442 -55.7325,6.1171 z m -3.505,-105.19 c 1.4395,-1.43943 2.6172,-7.29348 2.6172,-13.009 0,-8.03514 -0.9549,-10.90289 -4.2105,-12.64522 -5.9105,-3.16321 -11.0562,2.52105 -11.0562,12.21336 0,13.26416 6.2186,19.87179 12.6495,13.44086 z m 32.0601,-12.64955 c 0.7413,-1.19952 3.6856,-2.18095 6.5429,-2.18095 2.8572,0 5.8015,0.98143 6.5428,2.18095 2.1877,3.53976 5.4524,2.49505 5.4524,-1.74476 0,-5.81629 -4.3787,-9.16002 -11.9952,-9.16002 -7.6166,0 -11.9953,3.34373 -11.9953,9.16002 0,4.23981 3.2647,5.28452 5.4524,1.74476 z m -40.7295,-17.93827 c 2.1082,-2.10814 3.6249,-2.07627 7.1915,0.15111 5.2107,3.25414 7.4042,2.06345 5.4725,-2.97056 -1.925,-5.01655 -17.4205,-3.60815 -18.4216,1.67436 -0.8405,4.4349 1.919,4.98371 5.7576,1.14509 z"
           id="path8" /></g></g></g></svg>
