<?xml version="1.0" encoding="UTF-8" standalone="no"?>
<!-- Generator: Blender, SVG Export for Grease Pencil - v2.0 -->

<svg
   version="1.1"
   x="0px"
   y="0px"
   width="131.1636"
   height="160.04674"
   viewBox="0 0 131.1636 160.04674"
   id="svg2"
   sodipodi:docname="six.svg"
   xml:space="preserve"
   inkscape:version="1.3.2 (091e20e, 2023-11-25, custom)"
   xmlns:inkscape="http://www.inkscape.org/namespaces/inkscape"
   xmlns:sodipodi="http://sodipodi.sourceforge.net/DTD/sodipodi-0.dtd"
   xmlns="http://www.w3.org/2000/svg"
   xmlns:svg="http://www.w3.org/2000/svg"><defs
     id="defs2" /><sodipodi:namedview
     id="namedview2"
     pagecolor="#ffffff"
     bordercolor="#000000"
     borderopacity="0.25"
     inkscape:showpageshadow="2"
     inkscape:pageopacity="0.0"
     inkscape:pagecheckerboard="0"
     inkscape:deskcolor="#d1d1d1"
     inkscape:zoom="0.32421875"
     inkscape:cx="-473.44578"
     inkscape:cy="695.51807"
     inkscape:window-width="1920"
     inkscape:window-height="1009"
     inkscape:window-x="1912"
     inkscape:window-y="-6"
     inkscape:window-maximized="1"
     inkscape:current-layer="layer.hole.uuid_0x2" /><g
     id="blender_frame.1"
     transform="translate(-1295,-124)"><g
       id="blender_object.numbersGP.1.uuid_0x0"><g
         id="layer.numbers.uuid_0x1" /><g
         id="layer.hole.uuid_0x2"><path
           d="m 1352.5709,283.47415 c -25.8155,-3.93561 -44.6627,-19.55436 -52.9962,-43.91829 -5.5758,-16.30139 -6.079,-36.32811 -1.3756,-54.74921 7.3387,-28.74279 26.8867,-49.58737 54.0749,-57.66139 19.13,-5.68098 43.6107,-3.45453 54.657,4.97089 9.9527,7.59123 9.4822,24.95467 -0.9237,34.09113 -4.9442,4.34113 -9.675,5.70663 -17.1002,4.93578 -16.3935,-1.70191 -18.9252,-1.76839 -23.0769,-0.60599 -4.099,1.14764 -11.5671,6.26191 -11.5671,7.92129 0,0.4163 3.0375,0.11624 6.75,-0.66678 7.8917,-1.66449 19.9876,-1.08766 28.2816,1.34871 26.955,7.91799 41.5387,33.18911 35.5255,61.55955 -4.0984,19.33606 -19.7622,34.74913 -41.4113,40.7484 -8.5932,2.38129 -22.5099,3.29555 -30.838,2.02591 z m 27.2321,-6.44988 c 10.7379,-2.75936 20.0676,-7.89073 27.0599,-14.883 26.3654,-26.36538 14.3728,-70.03077 -21.5998,-78.64591 -9.2176,-2.20753 -21.2942,-1.62464 -30.405,1.46753 -5.0096,1.70022 -8.2541,2.33388 -8.858,1.73 -2.8124,-2.81246 6.0139,-15.37342 13.6348,-19.40399 4.2995,-2.27394 10.9582,-2.62558 30.6282,-1.61744 6.6623,0.34146 7.8759,0.11628 10.8657,-2.01611 3.6871,-2.62965 8.1089,-10.97284 8.1245,-15.32926 0.044,-12.1782 -11.9112,-18.77023 -34.0403,-18.77023 -34.8892,0 -62.1028,21.17703 -71.9628,56 -2.7114,9.57599 -3.7577,29.75362 -2.0511,39.55401 4.6557,26.73494 20.5625,45.21396 44.2657,51.42383 9.2297,2.41803 25.9102,2.65634 34.3382,0.49057 z m -27.0377,-30.04381 c -4.5089,-2.35102 -6.594,-4.50947 -8.6215,-8.9246 -4.1189,-8.96988 -0.356,-19.58282 8.5934,-24.23656 4.118,-2.14143 12.2009,-2.04533 16.8651,0.20052 12.1147,5.83328 12.8574,25.23427 1.2269,32.05017 -5.0261,2.9455 -13.3558,3.36534 -18.0639,0.91047 z m 15.1935,-5.3806 c 5.0239,-3.06331 6.633,-6.27146 6.0723,-12.10702 -0.8914,-9.27654 -9.3449,-14.69056 -17.7112,-11.34302 -7.485,2.99488 -10.8051,10.91947 -7.4963,17.89231 3.353,7.06591 12.3676,9.68417 19.1352,5.55773 z m 17.6004,-10.71487 c -2.425,-3.70108 -2.9699,-14.78081 -0.963,-19.58393 2.6351,-6.3066 7.8659,-6.12857 11.2328,0.3823 1.6117,3.11662 1.9121,12.48521 0.5179,16.15222 -2.3062,6.06554 -7.7949,7.61707 -10.7877,3.04941 z m 5.6886,-14.61432 c -0.022,-4.55531 -1.4422,-6.51536 -3.7062,-5.11396 -2.1175,1.31071 -2.8999,6.94552 -1.2417,8.94346 1.9404,2.33808 4.9661,-0.004 4.9479,-3.8295 z m -61.9198,13.35012 c -3.7919,-3.79197 -5.1585,-13.5129 -2.7198,-19.34705 1.8354,-4.39076 4.0935,-6.07559 7.1237,-5.31506 4.0387,1.01363 5.7943,5.71632 5.3582,14.35248 -0.3377,6.68695 -0.6652,7.70875 -3.1576,9.85269 -3.3656,2.89492 -4.1147,2.94675 -6.6045,0.45694 z m 3.7431,-15.83271 c 0.2367,-3.26779 -0.086,-4.40157 -1.3947,-4.90385 -3.3395,-1.28152 -5.9629,5.72206 -3.1841,8.50081 2.3545,2.35446 4.2558,0.86081 4.5788,-3.59696 z m 48.6324,-11.52692 c -0.8213,-2.14029 0.069,-3.40001 3.7445,-5.30091 3.8955,-2.01443 8.7427,-1.17487 11.7599,2.03689 2.915,3.10283 1.7483,5.5463 -1.3003,2.72335 -3.4722,-3.21518 -8.5849,-3.21837 -11.5765,-0.007 -1.7484,1.87663 -2.0903,1.94793 -2.6276,0.54789 z m -58.0029,-3.00762 c -0.8184,-2.13262 0.075,-3.39404 3.7474,-5.29329 3.7021,-1.91445 9.0489,-1.17065 11.8709,1.65138 3.4757,3.47569 1.5123,5.67329 -2.1265,2.3802 -2.6275,-2.37783 -7.5816,-2.11127 -10.4261,0.56099 -2.1159,1.98779 -2.535,2.0836 -3.0657,0.70072 z"
           style="fill:#000000"
           id="path1-8" /><path
           style="fill:#b4e1ee;fill-opacity:1;stroke:#fcfcff;stroke-width:0"
           d="m 1346.7291,275.15673 c -22.4538,-6.05583 -36.386,-20.931 -42.9133,-45.81777 -3.1066,-11.84459 -3.3219,-16.72074 -1.344,-30.44956 4.2256,-29.33151 17.6115,-48.94593 41.3931,-60.65358 12.358,-6.08381 16.5524,-7.03241 30.9871,-7.00809 28.8856,0.0487 41.0284,11.85597 28.5314,27.74321 -4.2868,5.44985 -5.5365,5.74651 -24.2086,5.74651 -19.4828,0 -19.7658,0.0774 -27.1036,7.41525 -8.034,8.03394 -10.427,18.30349 -3.5986,15.4432 2.0992,-0.8793 11.2359,-2.08102 20.3038,-2.67047 13.6608,-0.88802 17.9604,-0.31646 25.081,3.3341 39.5406,20.27145 31.641,73.41698 -12.878,86.63769 -12.9384,3.84231 -20.8023,3.90649 -34.2503,0.27951 z m 27.4689,-30.73526 c 3.7071,-3.70716 5.3532,-7.77503 5.3532,-13.22911 0,-10.37503 -2.7778,-15.12759 -10.7791,-18.44182 -13.5284,-5.60368 -26.2971,2.89094 -26.2971,17.49472 0,11.67444 7.4563,19.52947 18.5381,19.52947 5.4071,0 9.4889,-1.65726 13.1849,-5.35326 z m 22.9677,-15.80467 c 3.0816,-8.10523 -0.1789,-21.1033 -5.5534,-22.13832 -8.1258,-1.5649 -12.2932,10.49404 -7.7531,22.43518 2.8945,7.6132 10.3625,7.4466 13.3065,-0.29686 z m -59.1864,0.60003 c 3.7014,-4.45989 2.0245,-21.02518 -2.4096,-23.80311 -5.8335,-3.65467 -10.5424,1.95897 -10.5424,12.568 0,12.70099 6.8233,18.61977 12.952,11.23511 z m 49.2089,-27.42903 c 0.8932,-1.44514 2.8495,-1.38521 5.7679,0.1767 5.1408,2.75127 7.3038,1.4276 5.4711,-3.34818 -2.3807,-6.20405 -18.876,-3.04624 -18.876,3.61357 0,2.5047 6.0316,2.15555 7.637,-0.44209 z m -58.8105,-2.30275 c 0.8367,-1.35391 4.1536,-1.70974 8.0205,-0.86042 5.015,1.10149 6.3577,0.74045 5.6082,-1.50803 -1.5546,-4.66402 -17.8248,-3.91718 -18.7448,0.86042 -0.8011,4.15955 2.818,5.22633 5.1161,1.50803 z"
           id="path9" /></g></g></g></svg>
