<?xml version="1.0" encoding="UTF-8" standalone="no"?>
<!-- Generator: Blender, SVG Export for Grease Pencil - v2.0 -->

<svg
   version="1.1"
   x="0px"
   y="0px"
   width="123.27313"
   height="155.76994"
   viewBox="0 0 123.27313 155.76994"
   id="svg2"
   sodipodi:docname="seven.svg"
   xml:space="preserve"
   inkscape:version="1.3.2 (091e20e, 2023-11-25, custom)"
   xmlns:inkscape="http://www.inkscape.org/namespaces/inkscape"
   xmlns:sodipodi="http://sodipodi.sourceforge.net/DTD/sodipodi-0.dtd"
   xmlns="http://www.w3.org/2000/svg"
   xmlns:svg="http://www.w3.org/2000/svg"><defs
     id="defs2" /><sodipodi:namedview
     id="namedview2"
     pagecolor="#ffffff"
     bordercolor="#000000"
     borderopacity="0.25"
     inkscape:showpageshadow="2"
     inkscape:pageopacity="0.0"
     inkscape:pagecheckerboard="0"
     inkscape:deskcolor="#d1d1d1"
     inkscape:zoom="0.32421875"
     inkscape:cx="-137.25301"
     inkscape:cy="535.13253"
     inkscape:window-width="1920"
     inkscape:window-height="1009"
     inkscape:window-x="1912"
     inkscape:window-y="-6"
     inkscape:window-maximized="1"
     inkscape:current-layer="layer.hole.uuid_0x2" /><g
     id="blender_frame.1"
     transform="translate(-959,-283)"><g
       id="blender_object.numbersGP.1.uuid_0x0"><g
         id="layer.numbers.uuid_0x1" /><g
         id="layer.hole.uuid_0x2"><path
           d="m 995.7979,436.99626 c -10.8069,-3.73459 -16.3325,-10.67262 -16.3325,-20.50744 0,-4.47393 0.8256,-7.0875 4.6564,-14.73987 4.4108,-8.81086 4.5559,-9.35709 2.75,-10.35165 -4.0019,-2.20405 -10.3248,-9.59404 -11.3416,-13.25572 -2.9295,-10.54935 0.6997,-21.22846 9.1485,-26.91969 6.8595,-4.62067 13.9589,-5.127 24.9979,-1.78283 1.3262,0.40177 2.6197,-1.28874 5.75,-7.51448 2.2213,-4.41807 4.0388,-8.49285 4.0388,-9.05505 0,-0.66351 -7.4567,-1.02991 -21.25,-1.04416 -19.2241,-0.0199 -21.679,-0.21646 -25.75,-2.06207 C 962.7717,325.36858 959,319.08987 959,307.34733 c 0,-6.32332 0.4619,-8.87047 2.2037,-12.15328 2.7344,-5.15358 8.5619,-10.0717 13.5234,-11.41309 2.3512,-0.63567 19.2249,-0.90764 45,-0.72533 l 41.2383,0.2917 5.1197,2.70084 c 6.0334,3.1828 9.8087,7.36047 13.0781,14.47198 3.0176,6.56377 3.8969,13.90826 2.3843,19.91533 -0.6508,2.58462 -4.974,12.74584 -9.6071,22.58049 l -8.4237,17.88119 3.3557,4.39623 c 8.2508,10.80915 6.7744,25.10707 -3.5008,33.90222 -4.372,3.74227 -13.0215,6.38466 -16.8853,5.15836 -1.7432,-0.55328 -2.7888,1.04368 -8.3596,12.76741 -7.0004,14.73248 -9.696,17.72831 -18.2751,20.31025 -6.4685,1.94671 -17.7516,1.74249 -24.0537,-0.43537 z m 22.2633,-4.62153 c 2.9551,-0.87756 6.2295,-2.7969 8.1037,-4.75 3.6175,-3.76992 13.9065,-25.07541 12.3587,-25.59134 -2.7673,-0.92241 -5.0128,-3.7391 -4.1088,-5.15388 0.8179,-1.28003 1.5528,-1.24741 5.7442,0.25495 14.9805,5.3695 26.632,-1.99952 26.6671,-16.86572 0.011,-4.59722 -0.5406,-6.97639 -2.2626,-9.76265 -2.5332,-4.09887 -4.5019,-5.4586 -11.0888,-7.65876 -2.8974,-0.96778 -4.6191,-2.17466 -4.8525,-3.40143 -0.3282,-1.72498 0.1045,-1.84621 4.6626,-1.30636 6.0823,0.72035 5.0246,2.11758 15.6773,-20.71107 7.3183,-15.68289 7.8968,-17.39964 7.9195,-23.5 0.029,-7.78633 -2.4034,-13.9125 -7.5114,-18.91713 -7.0214,-6.8795 -5.2663,-6.63165 -49.4048,-6.97681 -26.3891,-0.20636 -41.2386,0.0513 -43.6402,0.75724 -4.6849,1.37715 -10.429,7.74183 -11.8927,13.17778 -2.2172,8.23415 0.5834,16.14322 7.6174,21.51195 l 3.7548,2.86583 24.2608,0.3138 c 19.8187,0.25635 24.4837,0.58225 25.4777,1.7799 0.9882,1.19072 0.1293,3.76137 -4.5728,13.6862 -3.1843,6.72105 -6.0865,12.55847 -6.4492,12.97204 -0.3628,0.41356 -4.3207,-0.17385 -8.7952,-1.30538 -9.8798,-2.49837 -14.3318,-1.68394 -20.3077,3.715 -9.5832,8.65779 -7.1593,23.60771 4.7085,29.04097 5.1964,2.37896 6.6062,4.55136 4.444,6.84747 -0.492,0.5225 -2.967,5.05332 -5.5,10.0685 -5.0319,9.963 -5.6842,14.30573 -2.9989,19.96461 3.9263,8.27419 19.5426,12.64055 31.9893,8.94429 z m -3.0958,-48.58569 c -4.9507,-1.59273 -9.5,-6.46005 -9.5,-10.16422 0,-2.88249 2.3794,-1.99368 4,1.49415 1.9624,4.22358 7.8254,7.1713 12.5141,6.2917 4.1936,-0.78674 9.4859,-5.05597 9.4859,-7.65224 0,-1.0511 0.675,-1.9111 1.5,-1.9111 3.5196,0 0.09,8.12632 -4.412,10.45447 -3.8732,2.00292 -9.9259,2.6654 -13.588,1.48724 z m 13.0714,-16.51314 c -0.8175,-0.81755 -1.2233,-2.17222 -0.9016,-3.01038 0.8644,-2.25273 4.7706,-1.33612 5.1331,1.20453 0.3811,2.67113 -2.2453,3.792 -4.2315,1.80585 z m -20.2147,-0.94131 c -0.6627,-1.72707 1.2708,-4.48726 3.1433,-4.48726 0.6903,0 1.8153,0.675 2.5,1.5 0.9932,1.19671 0.9932,1.80328 0,3 -1.6086,1.93829 -4.8974,1.93087 -5.6433,-0.0127 z m -23.3567,-47.76476 c 0,-3.20041 2.3485,-6.18546 6.3665,-8.09214 4.3506,-2.0645 6.9354,-2.05548 11.3504,0.0396 3.0961,1.46918 7.2688,6.40548 7.2794,8.61142 0.01,2.02949 -3.2765,1.6606 -6.0583,-0.68006 -4.1471,-3.48962 -9.6804,-3.53038 -13.7556,-0.10132 -3.6881,3.10327 -5.1824,3.16743 -5.1824,0.2225 z m 45.2781,1.15564 c -2.3399,-2.33998 2.0071,-8.15709 7.4341,-9.94818 1.88,-0.62045 4.9316,-0.84417 6.7813,-0.49715 4.445,0.83387 9.5065,5.60892 9.5065,8.9684 0,3.23717 -0.9459,3.25387 -5.5951,0.0988 -2.0795,-1.41119 -5.1141,-2.5 -6.9677,-2.5 -2.0437,0 -4.4057,0.94408 -6.2548,2.5 -3.4142,2.8728 -3.4106,2.8718 -4.9043,1.37814 z"
           style="fill:#000000"
           id="path1-71" /><path
           style="fill:#b4e1ee;fill-opacity:1;stroke:#fcfcff;stroke-width:0"
           d="m 994.211,428.66536 c -9.1887,-5.7763 -10.0429,-11.13727 -3.8904,-24.41675 6.3526,-13.71151 6.4851,-16.66554 0.8278,-18.46108 -6.0293,-1.91364 -11.3082,-12.79683 -9.5688,-19.72742 2.2331,-8.89708 10.0218,-12.68318 22.6467,-11.00844 l 10.7964,1.43219 5.5225,-10.89809 c 9.8184,-19.37568 9.4351,-19.76693 -19.3647,-19.76693 h -24.8871 l -5.6463,-6.7102 c -7.3991,-8.79339 -7.1776,-16.08446 0.7289,-23.99095 l 6.3751,-6.3751 37.7892,0.1231 c 43.5437,0.14184 50.6514,1.76509 56.7603,12.96264 5.3063,9.72651 4.2848,16.31522 -5.8328,37.62148 -6.7528,14.22065 -8.8644,16.90241 -13.3085,16.90241 -7.0785,0 -6.9079,6.05173 0.2212,7.841 12.255,3.07583 15.838,18.99704 6.3992,28.43581 -4.9801,4.98008 -6.6469,5.39361 -16.3572,4.05812 -10.5871,-1.45611 -13.2055,0.0183 -8.4599,4.76384 2.6314,2.63147 -5.9222,21.69054 -11.9974,26.73257 -6.0147,4.99175 -21.1758,5.24579 -28.7542,0.4818 z m 37.1533,-47.38793 c 3.2052,-3.20525 4.7665,-9.65852 2.3367,-9.65852 -0.5998,0 -3.0533,1.96286 -5.4524,4.36192 -2.399,2.39905 -6.1727,4.36191 -8.3858,4.36191 -2.2131,0 -5.8003,-1.96286 -7.9714,-4.36191 -4.4241,-4.8886 -7.6333,-5.64849 -7.6333,-1.80745 0,9.27324 19.7586,14.45162 27.1062,7.10405 z m -17.1745,-14.21046 c 2.2476,-3.63657 -2.8073,-7.80675 -5.816,-4.7981 -2.5166,2.51666 -0.9415,7.16909 2.4272,7.16909 1.0579,0 2.5829,-1.06695 3.3888,-2.37099 z m 18.4207,-0.90045 c 0,-1.79928 -1.4721,-3.27143 -3.2714,-3.27143 -3.4057,0 -4.327,2.57942 -1.8175,5.0889 2.5095,2.50948 5.0889,1.58826 5.0889,-1.81747 z m -41.5701,-47.31425 c 3.2327,-2.01891 5.4563,-2.01891 9.8873,0 10.6104,4.83442 13.3847,1.75416 5.5113,-6.11916 -5.8651,-5.86516 -16.2737,-5.68474 -20.5044,0.35542 -1.8173,2.59454 -2.7965,5.53883 -2.1759,6.54287 1.4857,2.4039 2.3294,2.31362 7.2817,-0.77913 z m 45.9616,-0.10092 c 3.4483,-2.15347 5.2164,-2.15347 8.6647,0 8.6683,5.41347 12.0381,1.22624 5.1439,-6.39175 -4.4942,-4.96607 -13.3062,-5.14586 -18.5736,-0.37895 -7.7319,6.99726 -4.0271,12.26146 4.765,6.7707 z"
           id="path11" /></g></g></g></svg>
