<?xml version="1.0" encoding="UTF-8" standalone="no"?>
<!-- Generator: Blender, SVG Export for Grease Pencil - v2.0 -->

<svg
   version="1.1"
   x="0px"
   y="0px"
   width="1920.000000px"
   height="1080.000000px"
   viewBox="0 0 1920.000000 1080.000000"
   id="svg2"
   sodipodi:docname="nine.svg"
   xml:space="preserve"
   inkscape:version="1.3.2 (091e20e, 2023-11-25, custom)"
   xmlns:inkscape="http://www.inkscape.org/namespaces/inkscape"
   xmlns:sodipodi="http://sodipodi.sourceforge.net/DTD/sodipodi-0.dtd"
   xmlns="http://www.w3.org/2000/svg"
   xmlns:svg="http://www.w3.org/2000/svg"><defs
     id="defs2" /><sodipodi:namedview
     id="namedview2"
     pagecolor="#ffffff"
     bordercolor="#000000"
     borderopacity="0.25"
     inkscape:showpageshadow="2"
     inkscape:pageopacity="0.0"
     inkscape:pagecheckerboard="0"
     inkscape:deskcolor="#d1d1d1"
     inkscape:zoom="2.59375"
     inkscape:cx="861.49398"
     inkscape:cy="286.6506"
     inkscape:window-width="1920"
     inkscape:window-height="1009"
     inkscape:window-x="1912"
     inkscape:window-y="-6"
     inkscape:window-maximized="1"
     inkscape:current-layer="layer.hole.uuid_0x2" /><g
     id="blender_frame.1"><g
       id="blender_object.numbersGP.1.uuid_0x0"><g
         id="layer.numbers.uuid_0x1" /><g
         id="layer.hole.uuid_0x2"><path
           d="m 852.3715,388.57938 c -13.2437,-1.94675 -22.7176,-6.8361 -26.8041,-13.83313 -2.672,-4.57503 -2.6212,-14.39898 0.102,-19.73686 2.3748,-4.65495 6.528,-9.03001 10.5432,-11.10635 3.3305,-1.72229 11.2605,-1.91362 17.6823,-0.42661 9.7641,2.26093 17.2982,0.75716 22.8444,-4.55963 l 3.6556,-3.50437 -3,0.65623 c -7.4402,1.62753 -24.0622,1.66658 -30.8867,0.0726 -13.6641,-3.19156 -26.5271,-12.07576 -33.6048,-23.2102 -5.185,-8.15695 -7.3,-16.89765 -6.8428,-28.27953 0.3471,-8.64297 0.778,-10.56359 3.6334,-16.19503 2.9342,-5.78706 3.1559,-6.83546 2.3519,-11.12517 -1.4884,-7.94178 0.2643,-13.96969 5.5129,-18.96093 7.2844,-6.92703 17.6448,-7.59606 24.0928,-1.5558 l 2.2568,2.11403 2.7432,-2.62411 c 1.5088,-1.44325 5.4433,-3.88684 8.7433,-5.4302 11.3341,-5.30076 25.6343,-3.16465 37.0763,5.53831 l 5.0764,3.86113 3.5761,-3.27731 c 5.2351,-4.79756 11.1284,-5.47443 18.0272,-2.07047 8.6498,4.26802 12.7063,13.0559 10.5873,22.93637 -0.9655,4.50231 -0.8133,5.32371 2.0747,11.19003 5.3783,10.92475 7.2862,20.22198 7.2883,35.51497 0,21.17534 -4.3811,37.39805 -14.1087,52.20855 -15.5181,23.62661 -43.8474,36.03311 -72.621,31.80351 z m 30.7601,-7.14488 c 23.3196,-6.46218 39.5563,-23.4516 47.3822,-49.57886 3.5454,-11.83613 4.4964,-34.17791 1.9433,-45.65332 -3.4989,-15.72705 -12.321,-27.8746 -24.7649,-34.10005 -3.8863,-1.94422 -7.5779,-3.53495 -8.2034,-3.53495 -0.6256,0 -3.3777,-2.08355 -6.1157,-4.6301 -2.738,-2.54656 -7.898,-6.0142 -11.4667,-7.70588 -15.1807,-7.19614 -29.9022,-2.02324 -41.0782,14.43421 -2.7395,4.03411 -4.8455,6.0671 -6.7126,6.47989 -10.4877,2.31867 -15.9699,6.16609 -19.7262,13.84369 -5.0794,10.38186 -4.3676,25.33043 1.7556,36.87019 3.7116,6.99492 13.301,16.15578 20.2309,19.32674 13.328,6.09865 31.6083,7.09635 43.8881,2.39531 4.4498,-1.70353 6.0516,-1.95142 6.624,-1.02516 1.3329,2.15668 -1.2786,8.11237 -5.7265,13.05953 -5.5123,6.13094 -11.7119,8.42146 -20.6079,7.6138 -3.3873,-0.30754 -9.3087,-0.85099 -13.1587,-1.20769 -6.2961,-0.58332 -7.3519,-0.41172 -10.5,1.70654 -7.1748,4.82777 -10.2142,16.69526 -6.0323,23.55381 3.0975,5.08016 12.3613,8.95802 25.5323,10.68795 5.6268,0.73904 19.7547,-0.60082 26.7367,-2.53565 z m -20.5232,-57.23437 c -5.1878,-1.45471 -12.0173,-6.35251 -12.5368,-8.99088 -0.4422,-2.24553 2.0707,-2.07676 3.5151,0.23609 2.0424,3.27054 9.8163,6.32687 16.2467,6.38744 7.21,0.0679 11.4365,-1.51372 16.2777,-6.09139 3.2011,-3.02685 3.8077,-3.27539 4.3765,-1.79311 0.4215,1.09829 -0.169,2.60358 -1.6322,4.16107 -5.5079,5.86295 -17.3005,8.59947 -26.247,6.09078 z m -21.9773,-17.88281 c -2.4146,-1.83356 -3.7362,-6.16672 -3.7362,-12.25 0,-6.66163 1.1911,-9.9239 4.3883,-12.01878 3.2287,-2.1155 6.2368,-0.62284 8.1964,4.06715 2.6853,6.42696 1.1581,17.11752 -2.8461,19.92214 -2.6499,1.85611 -3.8525,1.9121 -6.0024,0.27949 z m 3.2286,-12.68426 c 1.4505,-2.71016 1.2892,-5.35475 -0.4648,-7.62461 -1.4848,-1.92151 -1.5152,-1.92151 -3,0 -1.8026,2.33275 -1.9593,6.69952 -0.3,8.35887 1.6768,1.6768 2.5674,1.5031 3.7648,-0.73426 z m 49.1341,11.33281 c -3.7453,-4.76132 -4.1113,-15.67822 -0.7003,-20.88412 2.4894,-3.79924 7.0425,-3.45282 9.6682,0.73557 3.0084,4.79893 2.4227,16.5356 -1.0073,20.18672 -3.0604,3.25757 -5.3769,3.24646 -7.9606,-0.0382 z m 4.9011,-14.89855 c 0,-6.06173 -4.4013,-6.74354 -5.5772,-0.86398 -0.4286,2.14297 -0.1076,3.53636 1.0909,4.7348 2.3157,2.31574 4.4863,0.44295 4.4863,-3.87082 z m -36.425,9.23355 c -4.4697,-2.54355 -8.5781,-9.323 -8.5694,-14.14084 0.022,-12.44628 11.2497,-21.30381 22.3569,-17.63808 9.2156,3.0414 13.6526,11.30067 11.4581,21.3283 -2.3964,10.94981 -15.1157,16.21511 -25.2456,10.45062 z m 15.5271,-5.02011 c 10.879,-7.32087 3.3174,-24.62727 -9.4974,-21.73704 -4.5736,1.03151 -6.5456,2.641 -8.2596,6.74148 -1.9146,4.58041 -1.6748,7.4971 0.9349,11.36967 4.1855,6.21083 10.8471,7.6467 16.8221,3.62589 z m -42.1021,-18.591 c 0,-2.7046 2.3883,-4.29979 7.2506,-4.84286 3.326,-0.37149 4.847,-0.003 6.9994,1.69547 2.7044,2.13411 3.7112,5.02495 1.75,5.02495 -0.55,0 -1.9,-0.9 -3,-2 -1.1,-1.1 -3.125,-2 -4.5,-2 -1.375,0 -3.4,0.9 -4.5,2 -2.5078,2.50779 -4,2.55347 -4,0.12244 z m 53.3988,0.71377 c -1.2555,-2.03133 4.3005,-5.83621 8.5221,-5.83621 4.0689,0 9.0791,3.0752 9.0791,5.57258 0,2.00995 -1.6543,1.77315 -4,-0.57258 -1.1111,-1.11111 -3.3333,-2 -5,-2 -1.6667,0 -3.8889,0.88889 -5,2 -2.3266,2.32661 -2.6357,2.39839 -3.6012,0.83621 z m -57.669,-23.30485 c 2.325,-0.49051 4.0758,-1.93502 6.25,-5.15651 1.6611,-2.46131 3.0202,-4.90917 3.0202,-5.43968 0,-1.64014 -6.338,-4.9277 -9.5,-4.9277 -3.9644,0 -9.0412,3.19175 -11.5054,7.23339 -1.8769,3.07838 -2.8031,11.61727 -1.4111,13.00928 0.3209,0.32091 2.6834,-0.45622 5.25,-1.72696 2.5666,-1.27073 6.1199,-2.61705 7.8963,-2.99182 z m 92.5747,-7.74115 c -4.1408,-7.07039 -11.5504,-9.48828 -17.2274,-5.62161 -1.8826,1.28227 -3.5604,2.7814 -3.7284,3.3314 -0.168,0.55 2.7415,2.43107 6.4656,4.18016 3.7241,1.74909 8.7769,4.96384 11.2284,7.14388 l 4.4573,3.96372 0.3045,-4.95819 c 0.2101,-3.42111 -0.2549,-5.91339 -1.5,-8.03936 z"
           style="fill:#000000"
           id="path1-1" /><path
           style="fill:#b4e1ee;fill-opacity:1;stroke:#fcfcff;stroke-width:0"
           d="m 843.11607,379.91209 c -8.99214,-3.03539 -14.38967,-10.71459 -12.585,-17.90497 2.54293,-10.13183 6.83455,-12.16366 25.69202,-12.16366 17.00534,0 17.72365,-0.21369 24.92521,-7.41525 4.07838,-4.07838 7.41525,-9.07763 7.41525,-11.10943 0,-3.22646 -1.4497,-3.47089 -11.45002,-1.93054 -24.25871,3.73657 -39.01921,0.18385 -51.62994,-12.42688 -19.07208,-19.07208 -17.44686,-47.7281 3.20905,-56.58226 5.06189,-2.16978 11.81963,-7.37506 15.0172,-11.56729 11.65359,-15.27864 29.02172,-18.24065 43.42073,-7.40511 3.78695,2.84976 12.05481,7.96901 18.37301,11.3761 20.79908,11.2159 28.28767,28.59081 26.21856,60.8319 -1.76314,27.47344 -15.90278,50.77203 -37.50987,61.8069 -12.66875,6.46999 -38.50554,8.74061 -51.0962,4.49049 z m 41.19387,-57.38658 c 3.53901,-1.83009 6.43456,-4.77438 6.43456,-6.54287 0,-3.57467 -3.41232,-4.33537 -5.35405,-1.19358 -0.68726,1.11201 -4.58674,3.12321 -8.66551,4.46932 -7.12478,2.35139 -11.52995,1.32409 -25.78288,-6.01267 -0.89965,-0.46309 -1.63572,0.48463 -1.63572,2.10605 0,8.75625 22.87689,13.44471 35.0036,7.17375 z m -35.08033,-18.33874 c 1.24173,-2.32019 2.25769,-6.2013 2.25769,-8.62469 0,-4.16367 0.29461,-4.11154 5.35325,0.9471 7.52312,7.52312 21.01018,7.47937 26.96226,-0.0875 l 4.27967,-5.44072 1.45134,7.7363 c 2.94433,15.6946 14.94549,11.22172 13.85621,-5.16425 -0.79646,-11.98104 -6.63399,-17.15618 -11.68279,-10.35712 -3.07973,4.14738 -3.14369,4.13927 -3.14369,-0.39827 0,-5.22365 6.3641,-8.14957 13.08573,-6.01621 3.07989,0.97752 4.36191,0.39192 4.36191,-1.99243 0,-4.5151 -9.32666,-6.63896 -15.24498,-3.47157 -3.88607,2.07975 -5.52395,1.83663 -9.03544,-1.34122 -5.51215,-4.98843 -17.89855,-4.98843 -23.4107,0 -3.51149,3.17785 -5.14937,3.42097 -9.03544,1.34122 -5.97024,-3.19518 -15.24498,-1.02872 -15.24498,3.56103 0,2.51923 1.35872,3.1253 4.9729,2.2182 7.06343,-1.77281 14.58821,0.59439 13.22036,4.15894 -0.88138,2.29685 -2.02121,2.39952 -5.12438,0.46156 -6.21677,-3.88244 -10.88792,1.41288 -10.88792,12.34278 0,13.18949 8.02612,19.43741 13.009,10.12682 z"
           id="path10" /><path
           style="fill:#b4e1ee;fill-opacity:1;stroke:#fcfcff;stroke-width:0"
           d="m 913.13026,248.8387 c -7.34615,-4.96701 -8.15886,-8.65013 -2.16528,-9.81284 4.15505,-0.80605 12.49386,6.92557 12.49386,11.58411 0,4.29005 -1.82746,3.97666 -10.32858,-1.77127 z"
           id="path12" /><path
           style="fill:#b4e1ee;fill-opacity:1;stroke:#fcfcff;stroke-width:0"
           d="m 818.77296,250.66025 c 0,-6.72888 8.77276,-13.01615 15.27996,-10.95085 5.96166,1.89216 4.64956,5.36808 -4.32061,11.44581 -9.21801,6.24566 -10.95935,6.16702 -10.95935,-0.49496 z"
           id="path13" /></g></g></g></svg>
